<?xml version="1.0" standalone="no"?>
<!DOCTYPE svg PUBLIC "-//W3C//DTD SVG 1.1//EN" "http://www.w3.org/Graphics/SVG/1.1/DTD/svg11.dtd" >
<svg>
<metadata>
Created by FontForge 20090622 at Fri Apr  7 15:11:15 2017
 By deploy user
</metadata>
<defs>
<font id="Vanessa" horiz-adv-x="833" >
  <font-face 
    font-family="Vanessa"
    font-weight="400"
    font-stretch="normal"
    units-per-em="1000"
    panose-1="0 0 0 0 0 0 0 0 0 0"
    ascent="750"
    descent="-250"
    x-height="526"
    cap-height="783"
    bbox="25.4 -164 960.286 862"
    underline-thickness="50"
    underline-position="-50"
    unicode-range="U+0020-U+007A"
  />
<missing-glyph horiz-adv-x="500" 
 />
    <glyph glyph-name=".notdef" horiz-adv-x="500" 
 />
    <glyph glyph-name=".null" horiz-adv-x="0" 
 />
    <glyph glyph-name="nonmarkingreturn" horiz-adv-x="500" 
 />
    <glyph glyph-name="space" unicode=" " horiz-adv-x="500" 
 />
    <glyph glyph-name="space" unicode="&#xa0;" horiz-adv-x="500" 
 />
    <glyph glyph-name="E" unicode="E" horiz-adv-x="550" 
d="M493 759v-188h-34v25q0 51 -29 77q-30 27 -86 27h-11q2 -2 2.5 -4t2.5 -4q4 -9 1.5 -18t-9.5 -13q-6 -5 -13 0.5t-5 12.5t6 12.5t1 9.5q-2 3 -10 2.5t-17 -8.5v-3v-233h42q14 0 14 12v28h35v-151h-35v20q0 17 -1 27.5t-7 16.5q-10 10 -18 12.5t-27 2.5h-3v-144
q-5 0 -16.5 0.5t-24.5 3t-24.5 7.5t-17.5 15q-13 22 -5.5 38t21.5 16q15 0 22 -13t3 -23q-2 -5 1.5 -8.5t8.5 -4.5t9.5 2t5.5 11t-3.5 19.5t-13 20.5t-20.5 12t-25 -4q-14 -8 -19.5 -16.5t-6.5 -15.5q-2 -8 2 -16q-5 1 -8 1q-7 0 -3 -10q4 -11 11.5 -18t13.5 -10q3 -2 10 -4
t15 -4q9 -3 19 -5q0 -4 2 -7q2 -2 4.5 -3.5t8.5 0.5q5 2 13 4t17 4v-153q-2 3 -6 8.5l-8 10.5q-5 8 -9.5 18.5t-2.5 15.5t4.5 9t-0.5 9q-2 3 -9 0q-4 -2 -7 -6q-3 9 -5 17q-2 7 -3 13.5t1 10.5t0.5 11t-4.5 12t-6.5 5t-5.5 -12q-2 -11 3 -28t11 -32q7 -18 17 -37
q-29 18 -47.5 24t-29.5 7q-12 1 -19 -4q23 -2 42 -10.5t32 -19.5q15 -12 27 -28q-7 8 -16 14q-8 5 -18 9.5t-22 4.5t-18.5 -6t-9 -14t-1 -16t5.5 -12q9 -8 17 -3t3 11l-4.5 7t-1.5 7.5t5.5 5.5t16.5 2q11 -1 21.5 -8.5t18.5 -17.5q9 -11 17 -25l11 -21v-4q0 -13 14 -13h38
q11 0 21 1t18 3q5 2 14 6.5t18 11t16 14t7 15.5q2 20 -10.5 29t-24.5 3q-13 -5 -13 -17t7 -17q3 -3 2 -6.5t-4.5 -6t-8.5 -2t-9 5.5q-4 6 -5 15.5t2.5 19t11.5 16t22 5.5t22 -4.5t12 -8.5t5 -12q0 -2 2 -3q3 -3 8 -2q2 7 2 19v20v24h34v-175h-34v2q0 13 -14 13h-205
q-2 2 -3.5 3t-3.5 3q-15 17 -15.5 31.5t4.5 16.5q5 3 11.5 -2.5t14.5 -9.5q8 -5 16 2.5t4 16.5q-4 8 -14 13t-22 2q-6 -1 -12 -4t-9.5 -9.5t-2.5 -17.5t9 -29q5 -10 11 -16h-134v30q-12 6 -12.5 14t1.5 15q3 10 11 15.5t16 3.5q8 -1 9.5 -9t-4.5 -12t-13 -6t-7 -7q0 -4 6 -8
t17 -5h9q2 0 4.5 0.5t4.5 0.5q7 2 9 4q3 3 3 8v65q-8 2 -9.5 8t0.5 13q2 5 4.5 16t4.5 21v33q-8 2 -9.5 8t0.5 13q2 5 4.5 16t4.5 21v47q-8 2 -9.5 8t0.5 13q2 5 4.5 16t4.5 21v33q-8 2 -9.5 8t0.5 13q0 1 0.5 2t0.5 2q-3 -2 -6.5 -3.5t-5.5 -4.5q-3 -4 -2.5 -7t1.5 -6
t1 -5.5t-3 -4.5q-7 -4 -12 1t-4 12t5.5 14.5t12.5 8.5q-6 2 -11 3t-11 1t-11 -2q-7 -2 -5.5 -8.5t-3.5 -10.5t-9.5 4t4.5 18q5 5 9.5 6.5t9 1.5t9 -1.5t10.5 -2.5q-5 1 -9 4q-8 5 -17 17q-7 9 -4.5 17t9.5 10q6 2 8.5 -3t0.5 -9t-1 -10.5t6 -10.5q5 -3 13.5 -7t19.5 -2
q-6 4 -11 8t-8.5 8t-2.5 7q1 6 6.5 5.5t5.5 -6.5t4 -9t9 -5q0 2 0.5 3t0.5 2v47q-8 2 -9.5 8t0.5 13q2 5 4.5 16t4.5 21v33q-8 2 -9.5 8.5t0.5 13.5q2 5 4.5 15.5l4.5 19.5q-2 23 -16 36q-16 14 -41 14h-10v19q-13 2 -23.5 7t-13.5 17q-4 15 6.5 29t23.5 16q6 1 9 -3.5
t3 -9.5t-2.5 -9t-6.5 -3q-9 2 -14.5 -5.5t1.5 -16.5q3 -5 8 -7t9 -3h364q14 0 14 12v16q-8 6 -7 9q1 2 3.5 5t5.5 1q4 -2 8 -6l5 -5l2 2q1 1 1 4q0 2 -5 7.5t-12 2.5q-8 -3 -12.5 1.5t-6.5 9.5t4.5 12t23.5 -1q9 -4 14 -10t7 -12q3 -7 3 -16v-4z" />
    <glyph glyph-name="F" unicode="F" horiz-adv-x="599" 
d="M514 802q9 -4 14 -10.5t7 -12.5q3 -8 3 -16v-24v-248h-34v105q0 51 -30 77q-23 21 -66 26q-1 -2 -3 -4q-1 -1 -2 -1q7 -2 11 -7t7 -13.5t1 -22.5t-10 -21t-17.5 -9t-19 0.5t-13.5 7.5q-5 5 -4.5 10t3.5 8t7 3.5t6 -3.5q4 -8 15.5 -9.5t18.5 9.5q8 11 1 25t-27 16
q-11 1 -21 -6.5t-18 -17.5q-10 -11 -18 -27l-6 -14v-168h95q14 0 14 13v27h34v-138h-34v7q0 17 -5 26.5t-16 18.5q-7 7 -18 10q1 -3 3 -11q2 -10 -3 -18t-12 -10q-8 -2 -13 5t-1 13q4 5 9 9.5t3 9.5t-13.5 5.5t-26.5 -10.5q-12 -10 -16 -24v-132q-7 0 -18 0.5t-22.5 3.5
t-21.5 8t-15 14q-14 22 -6.5 38t22.5 16t22 -13t3 -23q-2 -5 1.5 -8.5t8 -4.5t9 2t5.5 11t-3.5 19t-13 20t-20 12.5t-24.5 -4.5q-14 -8 -19.5 -16.5t-6.5 -15.5q-2 -9 2 -16q-4 2 -8 2q-8 0 -4 -10q5 -11 12 -18.5t14 -9.5q3 -2 10 -4t15 -4q9 -3 19 -5q-1 -4 1 -7
q2 -2 4.5 -4t8.5 0q5 2 11.5 4l13.5 4v-126q-2 2 -6 7l-8 10q-6 7 -12 16t-4 14q1 5 3 9t-1 9q-3 4 -9 -2l-6 -6q-4 8 -7 15q-2 6 -3.5 12.5t0.5 10.5q1 4 -1.5 10.5t-5.5 11t-6.5 3.5t-3.5 -12q-1 -11 5 -26t14 -29q9 -16 20 -33q-29 14 -46.5 18t-28.5 3q-12 -1 -18 -6
q23 2 41 -5.5t32 -15.5q16 -11 29 -23q-8 7 -17 12q-17 10 -39 9q-11 -2 -16.5 -8t-7 -14t0.5 -15.5t7 -10.5q9 -6 16 -0.5t2 10.5q-3 3 -5.5 6.5t-2 6.5t4.5 5.5t15 3.5t22 -5.5t19 -14.5q10 -10 19 -22l12 -17q2 -4 3 -5v-1v1q2 -2 2.5 -3.5t2.5 -2.5q16 -15 42 -15h46
v-31h-157l-6 6t-5 8q-9 20 -6 32t8 14q6 1 10 -6t10 -12q5 -5 14.5 -1t7.5 13q-1 8 -9 15t-19 7q-6 0 -12 -0.5t-10.5 -5.5t-6.5 -14.5t1 -27.5q3 -17 14 -28h-148v29q-8 5 -8 12.5t2 13.5q3 10 10.5 15t15.5 4t9.5 -9.5t-4.5 -12.5t-12.5 -5.5t-6.5 -6.5t7 -9h27
q14 0 14 13v67q-10 1 -11.5 7.5t0.5 13.5q2 6 5.5 20.5t5.5 23.5v25q-10 2 -11.5 8t0.5 14q2 6 5.5 20.5t5.5 23.5v25q-10 2 -11.5 8t0.5 14q2 6 5.5 20.5t5.5 23.5v25q-10 1 -11.5 7.5t0.5 14.5q2 6 5 18q-11 -2 -17 -9q-3 -4 -2.5 -7.5t1.5 -6.5t1 -5.5t-3 -4.5
q-7 -4 -12 1.5t-4 12.5t5.5 14.5t12.5 8.5q-2 0 -4 1t-4 1t-5 1l-2 -5q-4 0 -8 -1q-8 -2 -15 -7q-1 -2 -1 -3.5t-2 -3.5q-1 -1 -2 -1q-2 -6 1 -10.5t-2 -8.5q-7 -4 -12 1t-4 13q0 11 9 19q0 3 3 6q-5 2 -12.5 2.5t-15.5 -2.5q-6 -3 -4.5 -9t-3.5 -10t-9.5 4t4.5 18
q10 10 18 7.5t20 -3.5q-5 1 -9 4q-9 5 -17 16q-7 10 -4.5 18t8.5 10q7 2 9.5 -3t0.5 -10q-2 -4 -1 -10.5t6 -9.5t13.5 -7t19.5 -2q-6 4 -11 8q-5 3 -8.5 7t-2.5 7q0 4 3 5.5t5 -0.5q0 11 9 15q6 2 8.5 -3t0.5 -10q-2 -4 -1 -10.5t6 -9.5h1q3 0 7 2l4 2l-3 -9q12 -5 25 -4
q-7 4 -12 8q-5 3 -8.5 7t-2.5 7q1 7 6.5 6t5.5 -7t4.5 -9t9.5 -4h3v51q-10 1 -11.5 7.5t0.5 13.5q2 6 5.5 20.5t5.5 23.5v26q-10 1 -11.5 7.5t0.5 13.5q2 6 5 19l5 22q-2 19 -15 31q-16 14 -42 14h-23v18q-11 3 -20.5 8t-11.5 16q-4 15 6.5 29t23.5 16q6 1 9 -3.5t3 -9.5
t-2.5 -9t-6.5 -3q-9 2 -14.5 -5.5t1.5 -16.5q4 -5 12 -9h408q14 0 14 12v16v1q-8 6 -7 9q1 2 3.5 4.5t5.5 1.5q2 -1 4 -2.5t4 -3.5l5 -5l1 1q2 2 2 4t-5 8t-12 3q-8 -3 -12.5 1t-6.5 9q-3 5 4 12.5t24 -0.5zM130 437l-1 1l-1 -1h2zM319 423v-21q4 6 9.5 12t14.5 9h-24z
M344 676q5 5 10 9t9 8t8 7h-38q-14 0 -14 -13v-49q3 10 6 18.5l5 14.5q2 8 9 8q3 -1 5 -3z" />
    <glyph glyph-name="G" unicode="G" 
d="M583 323h217v-31h-28q-13 0 -13 -12v-189q-125 -89 -315 -89q-82 0 -158 26q-26 9 -49 21.5t-45 26.5q-2 9 -2.5 17.5t3.5 16.5q11 20 26 22.5t23 -8.5q7 -11 0 -23t-16 -14q-4 -1 -5 -5t0.5 -8t5.5 -6t11 1q6 3 12.5 12t9.5 20t0 21.5t-15 16.5q-13 6 -21.5 6t-14.5 -2
q-7 -3 -12 -9q-1 3 -3 6q-2 2 -4 2.5t-5 -4.5q-7 -8 -9 -17.5t0 -15.5q0 -2 1.5 -8t3.5 -13l-12 10l-12 10q-18 15 -33 33q1 2 4 5q5 5 13 6t14 -5q7 -6 13 -0.5t0 12.5q-3 3 -10 3.5t-15 -1.5l-20 -4q10 14 22 19t20 8q9 3 17 -2.5t10 -12.5q2 -6 9.5 -8t12.5 6t-1.5 18.5
t-23.5 12.5q-11 2 -19.5 1t-14.5 -3q-7 -2 -13 -5q7 6 13 9.5t11 8t7.5 10t1.5 16.5q-1 10 -5.5 15.5t-9.5 7t-9.5 0t-4.5 -5.5q0 -5 2.5 -8t5.5 -6t4.5 -6t0.5 -8q-3 -8 -9 -13.5l-12 -10.5q-7 -5 -14 -9q7 10 3 22t-10 20q-7 8 -17.5 7.5t-12.5 -11.5q-2 -6 1 -8t7 -4
t8 -5t5 -9q2 -9 -1 -17.5t-7 -13.5q-18 26 -29 51l-6 13.5t-5 14.5q4 8 9.5 18t8.5 14q4 5 12 6t14 -1t8.5 -8t8.5 -6q6 1 7 8t-8 16q-5 5 -11.5 5.5t-12.5 -0.5q-7 -1 -15 -4l8 12q3 5 6.5 10l6.5 9t5 4.5t4 0t3.5 -0.5t2.5 2q2 6 -1 10q-2 3 -4 5q5 6 16 18t19 17t10.5 0
t-0.5 -13q-2 -8 7.5 -10t16.5 7t0.5 21.5t-27.5 9.5q-11 -2 -22 -12.5t-21 -22.5q-11 -14 -22 -31q0 5 1 10t1.5 9.5t2.5 9.5q2 8 0 18.5t-16 18.5q-7 4 -12.5 2t-10 -6t-6.5 -9.5t-1 -9.5q2 -8 9.5 -6.5t6.5 9.5q-2 7 5.5 8.5t13.5 -6.5q3 -5 2 -12t-4 -15q-4 -9 -8 -19
q-7 12 -32 14v12q0 53 15 103q2 -3 3.5 -6t2.5 -6q3 -7 6 -8t6 0q4 1 7 5q9 -7 18 -12q8 -5 14.5 -9.5t10.5 -6.5q7 -3 17.5 -3.5t21.5 4.5q5 2 5.5 5.5t-1.5 5.5q-3 3 -7 5q8 4 12 12q4 7 6 18t-3 28q-5 18 -16 25t-24 7t-24.5 -5t-16.5 -12t-3.5 -13t6 -9.5t9.5 -3t7 5.5
t7 9.5t11.5 6t13 -0.5t12.5 -8q12 -13 6.5 -31.5t-31.5 -25.5q-9 -2 -18.5 1t-19 9.5t-18.5 14t-15 14.5q3 8 6 15t7 15q31 70 94 125q59 52 139 81q40 14 76 23t80 9q31 0 62.5 -1.5t62.5 -7.5q32 -6 63 -10.5t54 -15.5v8v7v1q-3 2 -5.5 4t-1.5 4q1 3 3.5 5.5t5.5 0.5
q2 -1 3.5 -2t3.5 -3l5 -5q1 0 2 1q2 2 2 4q-1 2 -5.5 7.5t-11.5 2.5q-8 -3 -12.5 1t-6.5 9t4.5 12t23.5 0q8 -4 13 -10.5t7 -12.5q3 -7 3 -15v-179h-33v11q0 32 -16.5 56.5t-45.5 42.5q-21 13 -40 21.5t-38.5 13.5t-41 7t-49.5 2q-32 0 -57 -2t-46.5 -8.5t-41 -18.5
t-40.5 -31l-13 -12q-12 -16 -19 -32q-7 -14 -10 -28.5t3 -24.5q12 -21 30 -21.5t26 12.5q8 14 0.5 25t-17.5 12q-5 0 -6 4.5t0.5 9t6.5 7.5t12 0t14.5 -11.5t10.5 -19.5t-0.5 -22.5t-17.5 -19.5q-14 -9 -24.5 -10t-17.5 1q-8 3 -13 8q-1 -5 -3 -8q-4 -6 -10 1q-8 8 -10 17.5
t0 16.5q1 4 4 14.5t6 18.5q-23 -41 -33.5 -90t-10.5 -97q0 -41 5 -82.5t16 -80t29 -72t45 -58.5q12 -11 21 -18t19 -12.5t21.5 -9.5t27.5 -9t29 -7.5t25 -3.5t25 -0.5t30 0.5q46 0 85 10l16 7q15 10 26 21q10 9 17 20.5t5 22.5q-4 20 -18.5 26t-25.5 -2t-8 -20t11 -16
q4 -2 3.5 -6t-3.5 -7.5t-8 -4.5t-10 4q-6 4 -9 13.5t-2 20t7.5 19t20.5 11.5q14 2 23.5 0.5t14.5 -5.5q6 -4 8 -11q2 3 5 5q5 3 9 -4v-2v96q0 22 -15 37q-17 14 -41 14h-18v15q-19 7 -23 21q-4 15 6.5 29t22.5 15q6 1 9 -3t3 -9t-2.5 -9t-6.5 -3q-8 2 -13.5 -5.5t0.5 -15.5
q1 -2 2 -2.5t2 -2.5v1zM657 122q-2 -5 -3 -6q-2 -3 -6 -8.5l-8 -10.5q-5 -6 -10 -14q1 -1 2 -3q2 -4 0 -7q25 12 25 31v18zM63 320q7 -9 2.5 -25t-11.5 -30q-11 33 -12 69q10 0 21 -14z" />
    <glyph glyph-name="H" unicode="H" horiz-adv-x="652" 
d="M551 59q17 -14 41 -14h10v-31h-170v31h28q14 0 14 12v372h-178v-169q-7 0 -18.5 1t-24 4t-23.5 9t-16 15q-12 23 -3.5 39t24.5 16q17 -1 23 -14.5t1 -23.5q-2 -5 1 -8.5t8 -4.5t10 1.5t7 10.5q1 8 -2.5 20t-12 21.5t-20.5 13t-27 -3.5q-15 -8 -21.5 -16t-8.5 -16
q-2 -9 1 -17q-4 2 -8 2q-3 0 -5 -2t0 -8q4 -11 11 -18.5t14 -10.5q8 -4 26 -9l20 -6q-1 -4 1 -7q1 -2 4 -4t9 0t14 4l16 4v-84q-2 -8 -1.5 -17.5t1.5 -14.5v-3q-2 2 -7 7.5t-11 10.5q-7 7 -13 16t-5 14q1 6 3 10t-2 9q-3 4 -9 -2q-3 -3 -6 -7q-4 8 -8 15q-3 6 -5 12t0 11
q1 4 -2 11t-6.5 11t-6.5 3t-3 -12t7 -26.5t16 -29.5q10 -17 23 -33q-31 13 -49.5 16t-29.5 1q-12 -2 -18 -8q23 3 43 -2.5t34 -13.5q17 -10 31 -22q-8 7 -18 11q-8 4 -19 6.5t-22 0.5q-12 -2 -17.5 -9t-6 -15t2 -15.5t7.5 -10.5q10 -6 17 0t1 11q-3 3 -6 6.5t-3 6.5t4.5 6
t15.5 5t22.5 -4.5t21.5 -14.5q11 -10 21 -21l6 -8q4 -11 13 -20q16 -14 41 -14h9v-31h-128q-8 7 -13 16q-8 19 -2.5 30.5t12.5 12.5q6 1 9.5 -6t9.5 -12t17 -1.5t11 11.5t-8 14.5t-21 8.5q-6 1 -13.5 0.5t-13.5 -5t-9.5 -13.5t-3.5 -26q1 -10 5 -17t9 -13h-147v29
q-10 6 -10 13.5t2 14.5q3 9 10 14.5t15 4.5q8 -2 9.5 -10t-4.5 -12t-12.5 -5.5t-6.5 -6.5q0 -8 13 -11h23h5q1 1 2 1q7 3 7 11v66q-10 1 -11.5 7t0.5 14q2 7 5.5 22.5t5.5 23.5v22q-10 1 -11.5 7.5t0.5 13.5t5.5 23t5.5 24v21q-10 1 -11.5 7.5t0.5 13.5t5.5 23t5.5 24v21
q-10 1 -11.5 7.5t0.5 14.5q1 2 2 7l2 10q-4 -2 -7.5 -3.5t-5.5 -5.5q-3 -3 -2.5 -6.5t1.5 -6t1 -5t-3 -4.5q-7 -4 -12 1t-4 11q1 7 5.5 14.5t12.5 8.5q-6 2 -11 3t-11 1t-11 -2q-6 -2 -4.5 -8.5t-3.5 -10.5t-9.5 4.5t4.5 17.5q5 5 9 6.5t8.5 1.5t9 -1.5t10.5 -2.5q-4 1 -8 4
q-4 2 -8.5 6t-8.5 10q-7 10 -4.5 17.5t8.5 9.5t8.5 -3t0.5 -9t-1 -10.5t6 -9.5t13 -7t19 -2q-7 4 -11 8q-4 3 -7.5 7t-2.5 7q1 6 6.5 5.5t5.5 -6.5t3.5 -9t8.5 -4h2v2v48q-10 1 -11.5 7t0.5 14q2 7 5.5 22.5t5.5 23.5v22q-10 1 -11.5 7.5t0.5 13.5q2 6 5 20l5 23
q-1 16 -14 27q-17 15 -41 15h-10v22q-6 3 -10.5 7t-6.5 12q-2 7 0 14.5t6.5 14t10.5 10.5t12 5q6 0 9 -4t3 -9t-2.5 -9t-6.5 -3q-8 3 -13.5 -4.5t0.5 -16.5q4 -6 13 -9h260v-30h-28q-14 0 -14 -13v-228h123q13 7 25.5 17t13.5 21q2 20 -11 28.5t-24 3.5q-12 -5 -12.5 -16.5
t6.5 -16.5q3 -3 2 -6.5t-4.5 -6t-8 -2t-8.5 5.5t-5 14.5t2 18.5t11 15.5t22 6.5q14 -1 21.5 -4.5t11.5 -8.5t6 -12l2 2q1 1 2 1t3 1v127q0 23 -16 37q-15 15 -41 15h-9v30h168v-30h-26q-14 0 -14 -13v-592q0 -22 15 -37zM474 492q-2 -1 -2.5 -2t-1.5 -2q-2 -2 -7 -5.5
t-10 -8.5l-13 -11l1 -1q0 -1 1 -2h32v32z" />
    <glyph glyph-name="I" unicode="I" horiz-adv-x="441" 
d="M336 49q16 -14 41 -14h10v-31h-132q-8 6 -12 16q-8 19 -2.5 30.5t11.5 12.5t10 -6t10 -12t17 -1.5t11 11.5t-8 15t-21 8q-7 1 -14.5 0.5t-13.5 -5t-9.5 -13.5t-3.5 -26q1 -18 15 -30h-160v29q-8 5 -8.5 12t1.5 14q3 9 10.5 14.5t15.5 4.5q8 -2 9 -10t-4 -12
q-6 -4 -12.5 -6t-6.5 -7t7 -8h27q14 0 14 12v71q-9 2 -10.5 8t0.5 13q2 5 5 16.5t5 21.5v31q-9 2 -10.5 8t0.5 13q2 5 5 16.5t5 21.5v31q-9 2 -10.5 8t0.5 13q2 5 5 16.5t5 21.5v31q-9 2 -10.5 8t0.5 13q2 5 5 16.5t5 21.5v58q-9 2 -10.5 8t0.5 13q2 5 5 16.5t5 21.5v31
q-9 2 -10.5 8t0.5 13q2 5 4.5 15.5l4.5 19.5q-2 20 -15 32q-16 14 -41 14h-14v23q-14 6 -18 19q-4 15 7 29t23 15q6 1 9 -3.5t3 -9.5t-2.5 -9t-6.5 -2q-8 2 -13.5 -5.5t0.5 -16.5q4 -6 13 -9h291v-31h-39q-14 0 -14 -12v-432q-6 0 -18 0.5t-25 3.5t-25 8.5t-17 15.5
q-12 23 -3 39.5t25 16.5q16 -1 22.5 -14.5t1.5 -23.5q-2 -5 1 -9t8 -5t10 2t7 11q1 8 -3 20t-12 21.5t-20.5 13t-27.5 -3.5q-15 -8 -21.5 -16t-8.5 -16q-2 -9 1 -17q-4 2 -8 2q-3 0 -5 -2.5t0 -7.5q4 -12 11 -19.5t14 -10.5q3 -2 10.5 -4.5t15.5 -4.5l20 -6q-1 -4 1 -7
q2 -2 4.5 -4t9.5 0l32 8v-81q-3 -5 -4 -12t0 -13q1 -8 3 -15l-19 19q-7 7 -13 16t-5 15q1 5 2.5 9.5t-1.5 8.5t-9 -2q-3 -3 -6 -7q-4 8 -8 15q-3 6 -5.5 12.5t-0.5 11.5q1 4 -2 11t-6.5 11.5t-6.5 3.5t-3 -13t7 -27.5t16 -29.5q11 -17 24 -33q-32 13 -50.5 16t-29.5 1
q-12 -2 -18 -8q23 3 43 -2.5t35 -13.5q17 -10 31 -22q-8 7 -18 11q-8 4 -19.5 6t-22.5 0q-12 -2 -17.5 -9t-6.5 -15t2 -15.5t8 -10.5q10 -6 17 0t1 12q-3 3 -5.5 6t-2.5 6.5t4 6t15 4.5t22.5 -4t21.5 -14q11 -10 22 -22l10 -13q5 -10 11 -15z" />
    <glyph glyph-name="J" unicode="J" horiz-adv-x="554" 
d="M347 60q7 1 10.5 -6t9.5 -13q3 -3 9 -3q-7 -6 -17 -11t-22 -10q-8 19 -2 30t12 13zM170 743q3 -4 6 -5.5t6 -3.5h308v-31h-39q-14 0 -14 -13v-435l-16 -3q-22 -1 -40 2q-16 2 -30.5 8t-20.5 18q-13 24 -4 40.5t26 16.5q17 -1 23 -14.5t1 -23.5q-2 -5 1 -9t8.5 -5
t10.5 1.5t7 11.5q1 8 -3 20t-12.5 21.5t-21 13.5t-27.5 -4t-21.5 -16t-8.5 -16q-3 -9 0 -17q-4 1 -8 1q-8 0 -5 -10q4 -12 11.5 -19.5t14.5 -10.5q8 -4 26 -9l21 -6q-1 -4 1 -7q1 -2 4 -4t9 0q10 3 25 6t29 9v-81v-7q-4 3 -8.5 4t-9.5 -3q-5 -3 -6.5 -10t-0.5 -15
q0 -9 3 -18l-19 19q-7 7 -13.5 16.5t-5.5 14.5q1 6 3 10.5t-1 9.5q-4 3 -10 -3q-3 -3 -6 -7q-4 7 -8 15q-3 6 -5.5 13t-0.5 12q1 4 -2 11t-6.5 11.5t-6.5 3.5t-3 -13t7 -27.5t16 -29.5q11 -17 24 -34q-32 13 -51 16t-30 1q-12 -2 -18 -8q23 3 43.5 -2.5t35.5 -13.5
q18 -10 31 -23q-8 7 -18 11q-8 4 -19.5 6.5t-22.5 0.5q-12 -2 -17.5 -9.5t-6.5 -15.5t2 -15.5t8 -10.5q10 -7 17 -0.5t1 11.5q-3 3 -6 6.5t-3 7t4.5 6.5t15.5 5q10 1 21 -4t20 -12t16 -14t9 -10l-7.5 -9.5l-7.5 -9.5q-2 7 -10 12.5t-19 6.5q-7 1 -14.5 0.5t-13.5 -5t-10 -14
t-3 -26.5q0 -5 1 -8.5t3 -7.5q-20 -7 -44 -12t-48 -8.5t-46.5 -5t-40.5 -1.5t-27 1.5t-22 4.5v-22h-35v166h35v-50q0 -33 23 -50q12 -8 20 -12.5t26 -4.5q14 0 23 3t17 9q-3 -1 -9.5 -2t-13 -1.5t-12 -1t-8.5 -0.5q-8 0 -17 3.5t-16 12.5q-4 5 -3 6.5t3 3.5q3 1 8 2
q-5 6 -6 15q-1 7 1.5 17t13.5 23t23.5 14.5t23 -3.5t18.5 -14t10 -17q1 -8 -2.5 -12.5t-8.5 -5.5t-9 1.5t-4 7.5q0 10 -10.5 19.5t-24.5 3.5q-15 -6 -17.5 -24t17.5 -33q10 -8 26 -7.5t31 5.5l4 4q25 30 25 81v7q-11 1 -13.5 6.5t-0.5 13.5q2 7 6.5 20.5t7.5 21.5v30
q-11 2 -13.5 7.5t-0.5 13.5q2 7 6.5 20.5t7.5 21.5v30q-11 1 -13.5 6.5t-0.5 13.5q2 7 6.5 21t7.5 21v31q-11 1 -13.5 6.5t-0.5 13.5q2 7 6.5 20.5t7.5 21.5v31q-11 1 -13.5 6.5t-0.5 13.5q2 7 6.5 20.5t7.5 21.5v30q-11 1 -13.5 6.5t-0.5 13.5q2 7 6 19.5t7 20.5
q-3 18 -15 28q-12 12 -35 14h-34v23q-14 7 -18 19q-4 16 7 30t24 16q6 0 9 -4t3 -9.5t-2.5 -9.5t-6.5 -2q-9 2 -14.5 -6t0.5 -16z" />
    <glyph glyph-name="K" unicode="K" horiz-adv-x="712" 
d="M625 71q8 1 15.5 -4.5t9.5 -15.5q2 -7 1.5 -15t-11.5 -13v-24h-138l-204 349v-96q-6 0 -18.5 0.5t-26 3.5t-25 8.5t-16.5 15.5q-13 24 -4 40.5t26 16.5q16 -1 22.5 -14.5t1.5 -23.5q-2 -5 1 -9t8.5 -5t10.5 1.5t7 11.5q1 8 -3 20t-12.5 21.5t-21 13.5t-27.5 -4t-21.5 -16
t-8.5 -16q-3 -9 0 -17q-4 1 -8 1q-3 0 -5 -2t0 -8q4 -12 11.5 -19.5t13.5 -10.5q3 -2 11 -4.5t16 -4.5l21 -6q0 -4 1 -7q1 -2 3.5 -4t9.5 0q6 2 14.5 4t18.5 4v-82q-6 -9 -4 -25q1 -8 3 -16l-19 19q-7 7 -13.5 16.5t-5.5 14.5q1 6 3 10.5t-2 9.5q-3 3 -9 -3q-3 -3 -6 -7
q-4 7 -8 15q-3 6 -5.5 13t-0.5 12q1 4 -2 11t-6.5 11.5t-7 3.5t-3.5 -13t7.5 -27.5t16.5 -29.5q11 -17 24 -34q-32 13 -51 16t-30 1q-12 -2 -18 -8q23 3 43.5 -2.5t35.5 -13.5q18 -10 31 -23q-9 7 -19 11q-8 4 -19 6.5t-23 0.5t-17 -9.5t-6 -15.5t2 -15.5t8 -10.5
q10 -7 17 -0.5t1 11.5q-3 3 -6 6.5t-3 7t4.5 6.5t15.5 5t23 -4.5t22 -14.5q11 -10 22 -22l10 -14q2 -4 4.5 -7.5t6.5 -7.5q16 -14 42 -14h23v-32h-147q-4 4 -7.5 8t-5.5 9q-8 19 -2.5 30.5t12.5 13.5q6 1 10 -6t10 -13q6 -5 17 -1.5t11 11.5q1 8 -7.5 15t-21.5 9
q-7 1 -14.5 0.5t-13.5 -5t-10 -14t-3 -26.5q0 -10 4.5 -17.5t9.5 -13.5h-148v28q-6 5 -6 12t2 13q3 9 10.5 14.5t15.5 4.5t9.5 -9.5t-4.5 -12.5t-12.5 -6t-6.5 -7q0 -2 3 -5h29q14 0 14 12v94q-11 0 -14 6t-1 14t7.5 24.5t7.5 20.5v27q-11 1 -14 6.5t-1 14.5q2 8 7.5 24
t7.5 21v27q-11 1 -14 6.5t-1 13.5q1 4 3 11t4.5 14l4.5 13t3 8v27q-11 0 -14 6t-1 14t7.5 24.5t7.5 20.5v27q-11 1 -14 6.5t-1 14.5q2 8 7.5 24t7.5 21v27q-11 1 -14 6.5t-1 13.5q2 7 6.5 20.5t7.5 21.5q-3 16 -15 26q-7 6 -10 9.5t-11 4.5h-19v23q-15 7 -19 20q-4 15 7 29
t24 16q6 0 9 -4t3 -9.5t-2.5 -9.5t-6.5 -2q-9 2 -14.5 -5.5t1.5 -16.5q2 -4 5 -5.5t6 -3.5h162h106v-31h-40q-14 0 -14 -13v-243l1 -1q18 -9 31.5 -1.5t13.5 21.5t-11 18.5t-19 0.5q-4 -2 -6.5 0.5t-3.5 7t1.5 8.5t8.5 6q7 1 16 -2t16.5 -9.5t10 -16.5t-3.5 -23q0 -1 -1 -1
l151 191q17 23 7 40q-12 17 -43 17h-16v31h181v-31h-19q-16 0 -30 -17l-210 -266l186 -317l17.5 -31t16 -22t18.5 -14t25 -5q2 2 2 5q0 5 -6.5 7t-12.5 6q-5 5 -3.5 13t9.5 9zM337 436q-8 -7 -16 -7q-4 0 -7 1q1 -4 1 -7q0 -7 -8 -4q-6 2 -9 4v-37z" />
    <glyph glyph-name="L" unicode="L" horiz-adv-x="566" 
d="M487 174h35v-203h-35v16q0 12 -14 12h-206q-8 8 -12 17q-8 19 -2.5 30.5t11.5 13.5q7 1 10.5 -6t9.5 -13q6 -5 17.5 -1.5t11.5 11.5t-8 15t-22 9q-7 1 -14.5 0.5t-13.5 -5t-9.5 -14t-3.5 -26.5q1 -10 5 -17.5t10 -13.5h-180v32h53q14 0 14 12v94q-11 1 -13 6.5t-1 13.5
q2 7 7 21.5t7 21.5v29q-11 1 -13 7t-1 14q2 7 7 21.5t7 21.5v29q-11 1 -13 6.5t-1 13.5q2 8 7 22.5t7 21.5v29q-11 1 -13 6.5t-1 13.5q2 7 7 21.5t7 21.5v29q-11 1 -13 7t-1 14q2 7 7 21.5t7 21.5v29q-11 1 -13 6.5t-1 13.5q2 7 6.5 20t6.5 21q-3 16 -15 27q-12 12 -35 14
h-16v1v22q-15 7 -18 19q-4 16 6.5 30t23.5 16q6 0 9 -4t3 -9.5t-2.5 -9.5t-6.5 -2q-8 2 -13.5 -5.5t0.5 -16.5q3 -6 12 -9h94h210v-31h-39q-14 0 -14 -13v-437l-4 -1q-22 -1 -40 2q-16 2 -30.5 8t-20.5 18q-13 24 -4 40.5t26 16.5q17 -1 23 -14.5t1 -23.5q-2 -5 1 -9t8.5 -5
t10.5 1.5t7 11.5q1 8 -3 20t-12.5 21.5t-21 13.5t-27.5 -4t-21.5 -16t-8.5 -16q-3 -9 0 -17q-4 1 -8 1q-8 0 -5 -10q4 -12 11.5 -19.5t14.5 -10.5q3 -2 11 -4.5t16 -4.5l20 -6q-1 -4 1 -7q2 -2 4.5 -4t9.5 0q8 2 19 4.5t22 6.5v-80q-2 -1 -3 -1t-3 -2q-5 -3 -6.5 -10
t-0.5 -15q0 -9 3 -18l-19 19q-7 7 -13.5 16.5t-5.5 14.5q1 6 3 10.5t-1 9.5q-4 3 -10 -3q-3 -3 -6 -7q-4 7 -8 15q-3 6 -5 13t-1 12q1 4 -2 11t-6.5 11.5t-6.5 3.5t-3 -13t7 -27.5t16 -29.5q11 -17 24 -34q-32 13 -51 16t-30 1q-12 -2 -18 -8q23 3 43.5 -2.5t35.5 -13.5
q18 -10 31 -23q-8 7 -18 11q-8 4 -19.5 6.5t-22.5 0.5q-12 -2 -17.5 -9.5t-6.5 -15.5t2 -15.5t8 -10.5q10 -7 17 -0.5t1 11.5q-3 3 -6 6.5t-3 7t4.5 6.5t16.5 5q11 2 22.5 -4.5t21.5 -14.5q11 -10 22 -22l14 -19v-12q0 -12 14 -12h18q30 0 46.5 9t33.5 27t25 36.5t8 50.5v20
z" />
    <glyph glyph-name="M" unicode="M" horiz-adv-x="817" 
d="M747 76q8 1 15.5 -4.5t9.5 -14.5q2 -8 1.5 -16.5t-14.5 -13.5v-26h-158v31h26q14 0 14 13v544l-170 -588h-34l-130 475v-224q-6 0 -18.5 0.5t-25.5 3.5t-25 8.5t-17 15.5q-12 23 -3 40t25 16q17 -1 23 -14.5t1 -23.5q-2 -5 1 -9t8.5 -5t10.5 2t7 11q1 9 -3 21t-12 21
t-20.5 13t-27.5 -4t-21.5 -16t-8.5 -16q-3 -9 0 -17q-4 2 -8 2q-8 0 -5 -10q4 -12 11.5 -19.5t13.5 -10.5q3 -2 11 -4.5t16 -4.5l20 -6q-1 -4 1 -7q2 -2 4.5 -4t9.5 0l32 8v-82q-3 -5 -4 -12t0 -13q1 -8 3 -15l-19 19q-7 7 -13.5 16.5t-5.5 14.5q1 6 3 10t-1 9q-2 2 -5 1
t-5 -3q-4 -3 -6 -7q-4 8 -8 15q-3 6 -5 12.5t0 11.5q1 4 -2 11t-6.5 11.5t-7 3.5t-3.5 -13t7.5 -27.5t16.5 -29.5q11 -17 23 -33q-32 13 -50.5 16t-29.5 1q-12 -2 -18 -8q23 3 43.5 -2.5t34.5 -13.5q17 -10 31 -23q-8 7 -18 11q-8 4 -19 6.5t-23 0.5t-17 -9.5t-6 -15.5
t2 -15.5t8 -10.5q9 -6 16.5 0t1.5 12l-6 6t-3 6.5t4.5 6.5t15.5 5t22.5 -4.5t21.5 -14.5q11 -10 22 -22l10 -13q4 -9 11 -15q15 -15 41 -15h23v-31h-145q-9 7 -13 17q-8 19 -2.5 30.5t12.5 12.5q6 1 10 -6t10 -12t17 -2t11 12q0 8 -8 15t-22 8q-6 1 -13.5 0.5t-13.5 -5
t-10 -14t-3 -26.5q0 -9 4.5 -16.5t9.5 -13.5h-156v29q-5 5 -5 11.5t2 11.5q2 10 9.5 15.5t15.5 3.5q8 -1 9.5 -9t-4.5 -12q-5 -5 -12 -6.5t-7 -6.5q0 -3 3 -6h28q14 0 14 13v93q-11 1 -13 6t-1 13q2 8 7 22.5t7 21.5v28q-11 1 -13 6.5t-1 13.5q2 8 7 22.5t7 21.5v28
q-11 1 -13 6.5t-1 13.5q2 8 7 22.5l7 20.5v29q-11 1 -13 6.5t-1 13.5q2 8 7 22.5l7 20.5v29q-11 1 -13 6.5t-1 13.5q2 8 7 22t7 21v29q-11 1 -13 6.5t-1 13.5l6 20t7 21q-3 15 -14 26q-13 12 -36 15h-17v22q-15 7 -18 19q-4 15 6.5 29.5t23.5 15.5q6 1 9 -3.5t3 -9.5
t-2.5 -9t-6.5 -3q-9 3 -14.5 -5t1.5 -16q2 -4 5 -5.5t6 -3.5h94h146l121 -418q5 5 9 7q12 7 21 8t15 -1q7 -2 11 -7q0 3 2 6q4 5 9 0q7 -8 8.5 -16t-0.5 -13q-1 -3 -2.5 -9.5t-3.5 -12.5l-6 -16q2 0 3 -1t1.5 -2t1.5 -2l138 477h91v-31h-26q-14 0 -14 -13v-601q0 -23 16 -38
q15 -15 41 -15h4q8 5 8 9q0 5 -6.5 7t-12.5 6t-4.5 12t9.5 10zM462 217l8 8q10 14 16 27q5 11 8.5 24t-1.5 22q-10 17 -25 18t-23 -10q-7 -11 -0.5 -21t14.5 -11q4 0 5.5 -3.5t0 -7t-5 -6.5t-8.5 -2zM501 246q-1 0 -3 -2q-6 -5 -15 -14t-20 -17l14 -49z" />
    <glyph glyph-name="N" unicode="N" horiz-adv-x="700" 
d="M502 730h153v-31h-26q-14 0 -14 -13v-697h-23l-288 581v-318q-7 0 -19 1t-24.5 4t-24 8.5t-16.5 14.5q-12 23 -3 40t25 16q17 -1 23 -14.5t1 -23.5q-2 -5 1 -9t8.5 -5t10.5 2t7 11q1 9 -3 21t-12 21t-20.5 13t-27.5 -4q-16 -8 -22 -16t-8 -16q-2 -9 0 -17q-4 2 -8 2
q-3 0 -5 -2t0 -8q4 -12 11 -19.5t14 -10.5q3 -2 11 -4.5t16 -4.5l20 -6q-1 -4 1 -7q1 -2 4 -4t9 0t14 3.5t17 4.5v-85q-3 -8 -2 -19.5t2 -15.5v-2q-1 2 -6.5 7.5l-11.5 11.5q-7 7 -13.5 16.5t-5.5 14.5q1 6 3 10t-1 9q-4 4 -10 -2q-3 -3 -6 -7q-4 8 -8 15q-3 6 -5 12.5
t0 11.5q1 4 -2 11t-7 11.5t-7 3.5t-3 -13t7.5 -27.5t16.5 -29.5q11 -17 23 -33q-32 13 -50.5 16t-29.5 1q-12 -2 -18 -8q23 3 43 -2.5t35 -13.5q17 -10 31 -23q-8 7 -18 11q-8 4 -19 6.5t-23 0.5t-17.5 -9.5t-6 -15.5t2 -15.5t7.5 -10.5q10 -6 17.5 0t1.5 12l-6 6t-3 6.5
t4.5 6.5t15.5 5t22.5 -4.5t21.5 -14.5q11 -10 22 -22l6 -9q5 -13 13 -19q16 -15 42 -15h23v-31h-145q-7 6 -12 17q-8 19 -2.5 30.5t11.5 12.5q7 1 10.5 -6t9.5 -12t17 -2t11 12q1 8 -7 15t-22 8q-7 1 -14.5 0.5t-13.5 -5t-9.5 -14t-2.5 -26.5q0 -9 4 -16.5t10 -13.5h-158v27
q-5 5 -5 11.5t2 11.5q3 10 10 15.5t15 4.5q8 -2 9.5 -10t-4.5 -12q-5 -4 -12 -6t-7 -7l2 -4h30q14 0 14 13v92q-12 1 -15 6.5t-1 13.5q1 5 3 12.5t5 15.5q3 9 7 19l1 -2v27q-12 1 -15 6.5t-1 13.5q1 5 3 12.5t5 15.5q3 9 7 19l1 -2v27q-12 1 -15 6.5t-1 13.5q1 5 3 12.5
t5 15.5q3 9 7 19l1 -2v27q-12 1 -15 6.5t-1 13.5q1 5 3 12.5t5 15.5q3 9 7 19l1 -2v27q-12 1 -15 6.5t-1 13.5q1 5 3 12t5 15q3 9 7 19l1 -1v27q-12 0 -15 6t-1 14q1 8 6.5 22.5t7.5 21.5q-5 15 -14 23l-10 10t-11 5h-20v22q-15 7 -18 19q-4 15 6.5 29.5t23.5 15.5
q6 1 9 -3.5t3 -9.5t-2.5 -9t-6.5 -3q-9 3 -14.5 -5t1.5 -16q2 -4 5 -5.5t6 -3.5h94h140l178 -361q2 8 5.5 12t7.5 6q4 3 8 4q-3 2 -4 5q-2 6 5 8q9 2 16.5 -0.5t12.5 -6.5l11 -11.5l13 -13.5v275q0 23 -16 37q-17 15 -42 15h-9v31zM569 360q-8 9 -16.5 16.5t-17.5 7.5
q-20 0 -27.5 -12.5t-2.5 -23.5l1 -3q7 -11 18 -10t16 8q2 3 6 2t6.5 -4t2.5 -8t-5 -9q-5 -5 -13.5 -6.5t-17.5 0.5l50 -99v141z" />
    <glyph glyph-name="O" unicode="O" horiz-adv-x="987" 
d="M88 305q4 -5 3.5 -13.5t-3 -17.5t-6.5 -17.5t-8 -15.5q-13 32 -19 72q2 7 12 6.5t21 -14.5zM901 511q17 -35 24.5 -71t7.5 -74q0 -74 -33 -143q-33 -70 -94 -123q-63 -54 -143 -82q-41 -15 -83.5 -22t-87.5 -7q-93 0 -173 28q-39 14 -70 31q-5 11 -6.5 22.5t3.5 20.5
q11 21 27 23.5t23 -8.5q8 -12 0.5 -23.5t-16.5 -13.5q-5 -1 -6 -5.5t0.5 -8.5t6 -6t11.5 1t13.5 12.5t9 20t-0.5 21.5t-15 17q-13 6 -22 6t-15 -2q-7 -3 -12 -9q-1 3 -3 6q-2 2 -4 2.5t-5 -4.5q-7 -8 -8.5 -17.5t-0.5 -15.5q1 -5 4 -14.5t5 -17.5q-17 10 -32.5 20.5
t-29.5 23.5q-12 9 -24 23l2 2q5 5 13 6.5t15 -5.5q6 -6 12.5 -0.5t0.5 13.5q-3 3 -11 3.5t-16 -1.5l-20 -4q10 14 22.5 19t21.5 8q8 3 16.5 -3t10.5 -12t9.5 -8t12.5 6t-1.5 19t-23.5 13q-11 1 -20 0t-15 -3q-8 -2 -13 -5q7 6 13.5 10t11 8t7 10t1.5 17q0 10 -4.5 15.5
t-10 7.5t-10 0t-4.5 -6q0 -5 2.5 -8t5.5 -6t4.5 -6t0.5 -8q-3 -8 -9 -14t-12 -11q-7 -5 -15 -9q8 10 4 22.5t-11 20.5t-17.5 7t-12.5 -12q-2 -5 1 -7.5t7.5 -4t8.5 -4.5t5 -10q2 -8 -1.5 -16.5t-6.5 -14.5q-24 31 -43 69q0 1 -2 5q3 5 10.5 19t11.5 19t12 6.5t14 -0.5
t9 -8.5t9 -5.5q6 0 7 7.5t-9 16.5q-5 5 -11.5 5.5t-12.5 -0.5q-7 -1 -15 -4l8 12q3 5 6.5 10t6.5 10q5 8 9.5 4.5t6.5 1.5q2 6 -1 10q-2 3 -4 5q5 6 16 18t19 17q8 6 10.5 0.5t0.5 -13.5q-3 -8 6.5 -10t17.5 7q3 5 3 11t-3 11t-10 8t-17 1q-11 -2 -22.5 -12.5t-21.5 -22.5
q-11 -14 -23 -31q0 5 1 10t1.5 9.5t2.5 9.5q2 8 0 18.5t-16 18.5q-7 4 -13 2.5t-10 -6t-6 -10t-1 -9.5t3.5 -5.5t5.5 -1t5 3t1 6.5q-1 8 6.5 9t13.5 -7q3 -5 2 -12t-4 -15q-4 -9 -8 -19q-5 8 -16.5 11.5t-25.5 1.5h-3q-1 8 -1.5 16.5t-0.5 17.5q0 55 18 106q5 -10 10 -19
t8 -15q3 -7 6 -8t6 0q4 1 7 4q10 -7 19 -12q8 -5 14.5 -9.5t10.5 -6.5q6 -3 17 -3.5t22 4.5q5 2 5.5 5.5t-1.5 5.5q-3 3 -7 5q8 4 13 12q5 7 6.5 18.5t-3.5 29.5t-16.5 25t-24.5 7t-24.5 -5t-16.5 -12q-5 -8 -3.5 -14t6 -9.5t9.5 -3t7 5.5q4 11 18.5 15.5t26.5 -8.5
q11 -13 5.5 -32t-31.5 -26q-14 -3 -28.5 5t-27.5 19q-15 12 -29 30l-1 1q3 8 6 14.5l6 13.5q32 67 95 121q62 55 143 83q41 15 83 22t87 7q94 0 174 -28t143 -82q61 -54 92 -121zM768 127q44 42 62 89t18 110q0 83 -14 150t-61 118q-97 103 -224 109q-30 1 -66.5 -2
t-63.5 -12q-12 -4 -21 -8t-17 -8q-11 -10 -23 -24.5t-10 -28.5q5 -20 19 -25t25 3q10 8 7 19.5t-11 14.5q-4 2 -4 6t2.5 7t7.5 4t10 -3q6 -4 9.5 -13t2.5 -18.5t-7 -18t-19 -11.5q-14 -4 -22.5 -2t-13.5 5q-6 4 -9 10q-2 -3 -5 -5q-5 -4 -8 4q-4 9 -2.5 17t4.5 13
q2 4 8 12.5t11 14.5q-4 -2 -7 -4.5t-7 -4.5q-21 -14 -33.5 -45t-19.5 -68.5t-9.5 -77t-2.5 -70.5q0 -40 4.5 -82.5t15 -82.5t28.5 -75t45 -59q15 -14 31 -24t37 -16t50 -9t69 -1q29 2 49.5 6t42.5 12l11 15q9 14 14 27q5 11 7.5 24t-2.5 24q-10 20 -16 15.5t-10 -11.5
q-4 -8 -12 -2.5t-4 16.5q1 6 7.5 10.5t14.5 6t16 -1.5t14 -14q5 -11 6.5 -22t-0.5 -20q-2 -11 -5 -20q8 18 12 37q3 17 3 37t-10 42q8 -4 13 -15q5 -10 7.5 -29t-0.5 -53l25 32q11 13 23.5 24.5t23.5 15.5q11 3 13 0t-1 -8t-9 -9.5t-10 -4.5q-9 -1 -21 -12q-6 -5 -12 -12
l8 -4q3 -2 5 -4t0 -4q-3 -5 -8 -4.5t-10 -0.5q-6 -1 -13 -9.5t-11 -16.5l-7.5 -13.5t-5.5 -9.5q18 11 35 23t31 25z" />
    <glyph glyph-name="P" unicode="P" horiz-adv-x="930" 
d="M786 649q54 -45 82 -103q29 -61 29 -126q0 -62 -29 -122q-30 -58 -84 -103q-52 -44 -121 -69q-69 -24 -140 -24q-117 0 -196 45v-23l-16 16q-7 7 -13.5 16t-4.5 15q1 5 2.5 9.5t-1.5 9.5q-3 3 -9 -3q-3 -3 -6 -7q-4 8 -8 15q-3 6 -5.5 12.5t-0.5 11.5q1 4 -2 11
t-6.5 11.5t-6.5 3.5t-3 -13q0 -11 7 -26.5t16 -29.5q11 -17 24 -33q-32 12 -50.5 15.5t-29.5 1.5q-12 -2 -18 -8q23 3 43 -2.5t35 -13.5q17 -10 31 -23q-8 7 -18 11q-8 4 -19.5 6.5t-22.5 0.5q-12 -2 -17.5 -9t-6.5 -15t2 -15.5t8 -10.5q10 -7 17 -1t1 12q-3 3 -5.5 6
t-2.5 6.5t4 6.5t15 5t22.5 -4.5t21.5 -14.5l22 -21l2 -4q2 -7 5.5 -13t9.5 -11q15 -15 41 -15h9v-31h-127q-4 4 -7 8t-5 9q-8 19 -3 30t12 13q6 1 10 -6t10 -12q6 -6 17 -2.5t11 11.5t-8 15t-22 9q-6 0 -13.5 -0.5t-13.5 -4.5t-9.5 -13.5t-3.5 -26.5q1 -10 5 -17t10 -13
h-190v24q-11 5 -11 13t2 15q2 9 9.5 14.5t15.5 4.5q8 -2 9.5 -10t-4.5 -12t-12.5 -6t-6.5 -7q0 -2 3 -5h34q14 0 14 13v92q-10 1 -12.5 6t-0.5 13q1 7 5.5 20.5t7.5 20.5v31q-10 1 -12.5 6.5t-0.5 13.5q1 7 5.5 20l7.5 21v30q-10 1 -12.5 6.5t-0.5 13.5q1 7 5.5 20l7.5 21
v30q-10 2 -12.5 7t-0.5 13q1 7 5.5 20l7.5 21v31q-10 1 -12.5 6t-0.5 13q1 7 5.5 20.5t7.5 20.5v31q-10 1 -12.5 6.5t-0.5 13.5q1 6 5 18t7 20q-3 19 -15 28q-6 6 -9 9.5t-11 4.5h-22v23q-14 6 -18 19q-4 15 7 29t23 15q6 1 9 -3.5t3 -9.5t-2.5 -9t-6.5 -2q-8 2 -13.5 -5.5
t0.5 -16.5q5 -7 12 -8h198h54v-37q85 49 199 49q73 0 141 -24q66 -22 119 -65zM318 594q7 -1 16 -2t18 0t16.5 3.5t11.5 7.5q13 16 7.5 30t-18.5 17q-14 2 -20 -7.5t-4 -17.5q1 -4 -1.5 -6.5t-7 -2.5t-8.5 3t-4 9v5q-2 -6 -4 -13t-2 -15v-11zM676 204q75 70 75 191
q0 129 -79 214q-80 84 -201 84q-19 0 -38 -3t-39 -11q-20 -6 -33 -15q9 0 19 -7q11 -9 15 -16.5t5 -13.5q1 -7 -2 -13q4 1 7 0q5 -2 3 -8q-5 -9 -11.5 -13t-12.5 -6q-3 -1 -9 -1t-13 -1q-8 -1 -17 -1q0 -4 -2 -6q-3 -5 -11 -1q-2 2 -5.5 3.5l-8.5 3.5v-333q-7 0 -18 1t-22 4
t-21 8.5t-14 14.5q-11 23 -2.5 39.5t23.5 16.5q14 -1 20 -14.5t2 -23.5q-2 -5 1 -9t7.5 -5t9 2t6.5 11q1 8 -2.5 20t-11 21.5t-19 13t-25.5 -3.5q-14 -8 -19.5 -16t-7.5 -16q-2 -9 0 -17q-5 2 -8 2q-7 0 -4 -10q3 -12 10 -19.5t13 -10.5q3 -2 9.5 -4t14.5 -4q9 -3 19 -6
q0 -4 1 -8q2 -8 12 -4q5 2 12 3.5t15 3.5q3 -23 20 -37q31 -29 78 -44q49 -17 100 -17h12t11 1l13 14q11 13 18 25q6 11 10 23t0 23t-7.5 14.5t-6.5 3t-6 -4t-5 -6.5t-5.5 -3t-6.5 2.5t-4 7t1 9.5t9 9t15 5t16 -3.5t12 -15.5t3.5 -22t-2.5 -20q-3 -11 -8 -20q11 16 17 34
q5 16 7.5 36.5t-5.5 43.5q7 -4 11 -16q3 -11 3.5 -30.5t-6.5 -51.5q15 16 29 29q12 11 26 20.5t25 11.5t12.5 -1t-2 -7.5t-9.5 -8t-10 -3.5q-5 0 -11.5 -3t-11.5 -7q-7 -4 -13 -10q4 -2 8 -5q7 -5 4 -8q-4 -5 -9 -3.5t-10 1.5q-6 0 -14 -8t-13 -16q-3 -4 -6 -7.5t-5 -6.5
q-3 -4 -5 -7l9 3q4 2 9 2.5t10 1.5q27 13 50 35z" />
    <glyph glyph-name="Q" unicode="Q" horiz-adv-x="1008" 
d="M906 -65q32 0 44 -17t10 -37q0 -10 -8.5 -16t-19 -9t-21 -3.5t-15.5 2.5q-10 5 -11.5 14t15.5 15q9 3 11.5 1t3.5 -5.5t2 -7.5t7 -4q11 0 16 10t-6 21t-42.5 10.5t-77.5 -7.5q-23 -3 -48.5 -6t-54 -4t-60 2.5t-67.5 13.5t-66 22t-52 23q-26 12 -47 25q-50 20 -72 20
q-9 0 -15 -6t-16 -11q-40 -21 -74.5 -27t-61.5 -4t-47 9.5t-31 12.5t-16.5 13t-7 16t0.5 15.5t7 11.5q10 7 20.5 6t12.5 -15q1 -7 -4.5 -10l-10.5 -5.5t-5 -5t12 -8.5t26.5 -7t29.5 1t29.5 6.5t26.5 9.5q11 5 25.5 9t27.5 8l30 8q-47 18 -87 45q-3 17 2 29q11 20 26.5 22.5
t23.5 -8.5q7 -11 0 -23t-16 -14q-5 -1 -6 -5.5t0.5 -8.5t6 -6t11.5 1q6 3 12.5 12.5t9.5 20t0 21.5t-15 17q-13 6 -22 6t-15 -2q-7 -3 -12 -9q0 3 -2 6q-2 2 -4 2.5t-5 -4.5q-7 -8 -9 -17.5t-1 -15.5q1 -2 1.5 -6.5t2.5 -9.5q-14 11 -28 23.5t-27 26.5l3 3q6 5 13.5 6
t14.5 -5q6 -6 12 -0.5t1 12.5q-3 4 -10.5 4t-15.5 -1l-20 -4q10 14 22 19t21 8q8 2 16.5 -3.5t10.5 -11.5t9.5 -8t12.5 6t-2 18.5t-24 12.5q-20 1 -34 -2q-7 -2 -13 -5q14 11 24 17t9 27q-1 10 -5.5 15.5t-9.5 7.5t-9.5 0t-4.5 -6q0 -8 8 -13t5 -15q-3 -8 -9 -14t-12 -11
q-7 -5 -15 -9q8 10 4 22.5t-10 20.5q-7 8 -17.5 7.5t-13.5 -11.5q-1 -6 2 -8t7 -4t8 -5t5 -10q2 -8 -1 -16.5t-7 -14.5q-26 34 -43 75q1 3 4 8t6 11l5.5 11t4.5 7q4 5 12 6.5t14 -0.5t9 -8.5t9 -5.5q7 0 7.5 7t-8.5 17q-5 5 -11.5 5.5t-12.5 -0.5q-7 -1 -15 -4l8 12
q3 5 6.5 10l6.5 9q2 4 4.5 4.5t4.5 0t3.5 -0.5t2.5 2q2 6 -1 10q-2 3 -4 5q5 6 16 18t19 17q8 6 10.5 0.5t0.5 -13.5q-3 -8 6.5 -10t16.5 7q4 5 4 11t-3 11t-10 8t-17 1q-11 -2 -22.5 -12.5t-21.5 -22.5q-11 -14 -23 -31l2 10t1.5 9.5t1.5 9.5q2 8 0.5 18.5t-15.5 18.5
q-7 4 -13 2.5t-10 -6t-6.5 -10t-1.5 -9.5q2 -8 9.5 -6.5t6.5 9.5t6 9t14 -7q3 -4 2 -11.5t-4 -15.5q-4 -9 -9 -19q-4 8 -15.5 11.5t-25.5 2.5q-1 6 -1 12.5v13.5q0 54 18 105l7.5 -15t6.5 -12q3 -7 6 -8t6 0t6 5q10 -7 19 -12q8 -5 14.5 -9.5t10.5 -6.5q7 -3 17.5 -4t21.5 5
q5 2 5.5 5.5t-1.5 5.5q-3 3 -7 5q8 4 12 12q4 7 6 18t-3 29t-16 25t-24 7t-24.5 -5t-16.5 -12t-3.5 -13t6 -9.5t9.5 -3.5t7 5q4 11 18.5 15.5t26.5 -8.5q11 -13 5.5 -31.5t-31.5 -25.5q-11 -3 -23 2.5t-23.5 14t-20.5 18t-13 14.5q2 7 5 13t6 13q32 67 94 121q32 26 67 47
t76 35q81 29 168 29q90 0 171 -29q81 -27 141 -81q60 -51 93 -120q31 -69 33 -144q0 -73 -32 -143q-34 -70 -94 -121q-63 -54 -143 -82q-78 -28 -169 -28q25 -2 54 -7.5t57.5 -11.5t54 -12.5t42.5 -9.5q16 -4 45 -6.5t60 -4t58 -2.5t39 -1zM305 577q-5 -7 -9 -13.5t-8 -14.5
l15.5 -5t19 -4.5t18 -0.5t14.5 6q16 14 13 28.5t-15 19.5q-13 5 -21 -3.5t-7 -16.5q0 -4 -3 -6t-6.5 -1.5t-7 3.5t-3.5 8zM336 142q84 -107 228 -107q17 0 34 2.5t34 7.5l13 18q8 14 13 27q5 11 6.5 24t-3.5 24q-5 10 -9.5 13t-7.5 1.5t-5.5 -5t-3.5 -7.5q-4 -7 -11.5 -2
t-5.5 16q1 6 7.5 11t14.5 6.5t16 -1.5t14 -13q6 -11 7 -21.5t0 -19.5q-1 -11 -4 -21q7 18 11 37q3 17 2 37.5t-12 41.5q8 -4 13 -15q5 -10 8.5 -29t1.5 -52q12 18 24 33q11 13 23 24.5t23 16.5q10 4 12 1t-0.5 -8t-8.5 -10t-10 -5q-5 -1 -10 -4.5t-10 -8.5q-6 -5 -12 -12
l8 -4q8 -4 6 -8q-3 -5 -8 -4t-10 -1q-6 -1 -12.5 -10t-10.5 -17q-2 -5 -4 -8.5t-4 -7.5l-4 -8q5 2 9 5q4 2 9 3.5t10 3.5q18 13 36 32q77 83 77 207q0 156 -78 258q-84 109 -231 109q-54 0 -103 -21q-48 -20 -86 -60q-1 -1 -1.5 -2t-1.5 -2q8 4 18 2.5t18 -11.5
q10 -11 12.5 -19t2.5 -14q-1 -7 -4 -12q3 0 6 -1q6 -2 1 -9q-5 -8 -13 -11t-13 -3q-3 0 -9.5 0.5t-13.5 1.5l-16 2q-1 -3 -3 -5t-4.5 -2.5t-6.5 3.5q-4 3 -9 6t-10 7q-31 -61 -31 -139q0 -161 82 -261zM90 311q4 -5 3.5 -13t-2.5 -17t-6 -17.5t-7 -15.5q-7 18 -11 36.5
t-6 37.5q4 4 12.5 2t16.5 -13z" />
    <glyph glyph-name="R" unicode="R" horiz-adv-x="983" 
d="M893 124q13 4 25 -1t20 -15t12 -22t0 -22t-13 -24.5t-26 -27t-42.5 -21t-62.5 -7.5q-59 2 -110 19.5t-81 40.5l-158 115q-17 12 -31.5 20t-26.5 14q-15 8 -30 11t-26 5q-13 2 -25 2v-54q-3 -8 -2 -18t2 -15v-2q-2 2 -7 7.5t-11 10.5q-7 7 -13.5 16t-5.5 15q2 5 3.5 9.5
t-1.5 9.5q-3 3 -9 -3q-3 -3 -6 -7q-4 8 -8 15q-3 6 -5.5 12.5t-0.5 11.5q1 4 -2 11t-6.5 11.5t-6.5 3.5t-3 -13q0 -11 7 -26.5t16 -29.5q11 -17 24 -33q-32 12 -50.5 15.5t-29.5 1.5q-12 -2 -18 -8q23 3 43 -2.5t34 -13.5q17 -10 31 -23q-8 7 -18 11q-8 4 -19 6.5t-22 0.5
q-12 -2 -17.5 -9t-6.5 -15t2 -15.5t8 -10.5q10 -7 17 -1t1 12q-3 3 -5.5 6t-2.5 6.5t4 6.5t15 5t22.5 -4.5t21.5 -14.5l22 -21l6 -9q5 -13 13 -19q15 -15 41 -15h23v-31h-143q-4 4 -7 8t-5 9q-8 19 -3 30t12 13q6 1 10 -6t10 -12q6 -6 17 -2.5t11 11.5t-8 15t-22 9
q-6 0 -13.5 -0.5t-13.5 -4.5t-9.5 -13.5t-3.5 -26.5q1 -10 5 -17t9 -13h-147v26q-12 5 -12.5 13.5t1.5 15.5q2 10 9.5 15t15.5 4t9.5 -9.5t-4.5 -12.5t-12.5 -5.5t-6.5 -6.5q0 -4 7 -9h19q14 0 14 13v92q-11 0 -13.5 5.5t-1.5 13.5q1 4 3 10t4 13t4.5 13t3.5 9v27
q-11 1 -13.5 6.5t-1.5 13.5q1 4 3 10t4 13t4.5 12.5t3.5 8.5v27q-11 1 -13.5 6.5t-1.5 13.5q1 4 3 10t4 13t4.5 12.5t3.5 8.5v27q-11 1 -13.5 6.5t-1.5 13.5q1 4 3 10t4 13t4.5 12.5t3.5 8.5v28q-11 0 -13.5 5.5t-1.5 13.5q1 4 3 10t4 13t4.5 12.5t3.5 8.5v28
q-11 1 -13.5 6.5t-1.5 13.5l6.5 19.5t6.5 21.5q-3 15 -14 25q-9 9 -23 12h-32v23q-7 3 -11.5 7t-6.5 12q-4 15 6.5 29t22.5 15q6 1 9 -3.5t3.5 -9.5t-2 -9t-6.5 -2q-9 2 -14.5 -5.5t1.5 -16.5q2 -4 7 -6h243v-31q74 43 189 43q71 0 134 -22q64 -21 114 -60q52 -40 81 -97
q28 -53 28 -117q0 -58 -24 -106.5t-70 -90.5q-25 -23 -53 -36t-57 -20.5t-59 -12l-58 -8.5l148 -77q24 -11 50.5 -18.5t50 -12t42 -6t27.5 -1.5t19.5 1t20 4t17.5 8t11 13q2 7 -3 15t-10 2t-12.5 -9.5t-17.5 1.5q-5 3 -9.5 7t-5 9.5t4 10.5t17.5 9zM694 256q18 17 29 38
t17 44q-3 -4 -7 -7t-8 -3q-5 -1 -10 -5t-10 -9l-11 -13q4 -1 8 -3q8 -4 6 -8q-3 -5 -8 -4t-10 -1q-6 -2 -12 -11t-10 -17q-2 -5 -4 -9l-4 -8l-4 -8q3 1 7 4q3 2 7 4t9 4zM411 234q14 -7 38.5 -17.5t59.5 -29.5q50 1 92 15l12 18q9 14 13 28q4 11 5 24t-4 23q-11 20 -17 15
t-9 -13t-11 -3t-6 16q1 6 7 11t13.5 7.5t16 -0.5t14.5 -13q6 -11 8 -21.5t1 -19.5q-1 -11 -4 -21q7 18 10 37q2 17 0.5 37.5t-12.5 41.5q8 -3 14 -14q5 -10 9 -29t3 -52l23 33q10 13 21.5 25t22.5 17q8 4 12 2q6 36 6 78q0 58 -14 105t-56 84q-82 73 -214 73q-78 0 -126 -35
q-15 -10 -20 -28q2 0 3 -0.5t2 -0.5q1 -1 2 -1q6 8 11 14q5 5 9 10t6 7q4 4 11.5 7.5t17.5 1.5q7 -2 5 -8q-1 -3 -4 -6q7 -2 12 -6q11 -9 12 -35q0 -15 -7 -23.5t-16 -11.5t-18.5 -1.5t-14.5 5.5t-5.5 9.5t2 9t6 4.5t6.5 -2q5 -8 17 -8t17 12q6 13 -2.5 26.5t-28.5 12.5
q-14 -1 -25.5 -18t-18.5 -30v-332q-7 -2 -19 -3.5t-24.5 -0.5t-23.5 5.5t-16 13.5q-12 23 -3.5 39.5t25.5 16.5q16 -1 22.5 -14.5t1.5 -23.5q-2 -5 1 -9t8 -5t10 2t7 11q1 8 -3 20t-12 21.5t-20.5 13t-27.5 -3.5q-15 -8 -21.5 -16t-8.5 -16q-2 -9 1 -17q-4 2 -8 2
q-3 0 -5 -2.5t0 -7.5q4 -12 11 -19.5t14 -10.5q3 -2 10.5 -4l15.5 -4l20 -6q-1 -4 1 -8q2 -3 4.5 -4.5t9.5 0.5q5 2 13 4t17 4q13 5 28 6q13 1 29.5 -1.5t35.5 -12.5z" />
    <glyph glyph-name="S" unicode="S" horiz-adv-x="652" 
d="M556 288q5 5 12.5 10t15.5 12q6 -14 10 -29t4 -30q0 -38 -3 -71.5t-17 -62.5q-2 6 -3 10q-3 15 1.5 22.5t9.5 14.5q2 3 0.5 7t-5 6.5t-8 3t-8.5 -2.5q-5 -3 -5.5 -10t-0.5 -14q0 -8 2 -17q-3 2 -6 6l-12 12q-6 7 -12 15.5t-5 14.5q1 5 2.5 9t-1.5 9q-3 3 -9 -3l-6 -6
q-4 7 -7 14q-3 6 -5 12t-1 11q1 4 -1.5 10.5t-6 10.5t-6.5 3t-3 -12t7.5 -25l15.5 -28q10 -16 22 -32q-30 12 -48 15t-29 1q-12 -2 -17 -8q23 3 41.5 -2t32.5 -13q16 -9 30 -21q-8 6 -17 10q-8 4 -18.5 6t-21.5 0t-16.5 -8.5t-6 -14.5t2 -15t7.5 -10q9 -5 16 0.5t1 10.5
q-3 3 -5.5 6t-2.5 6.5t4 6t15 4.5t21.5 -4t19.5 -14q11 -9 21 -20l4 -5q-6 -7 -13 -14t-15 -13q-27 -20 -69 -34q6 13 3 28q-5 18 -12 26.5t-15 11t-16 1t-15 -4.5q-14 -5 -21 -15t-4 -19q3 -8 16 -8.5t18 7.5t6.5 15.5t9.5 9.5q8 1 17 -9.5t7 -32.5q-1 -5 -5 -13
q-84 -24 -167 -24q-28 0 -50.5 3t-42.5 10t-38 17.5t-36 25.5q-38 30 -53 65t-15 81q0 33 13.5 58.5t34.5 41.5q13 11 33.5 18.5t41.5 8t38.5 -6.5t25.5 -26q6 -15 6.5 -30t-4 -27.5t-12 -22.5t-16.5 -14q-18 -8 -33 0.5t-15 21.5q0 6 5 12.5t12 10.5t14.5 4.5t12.5 -5.5
q7 7 11 15q3 7 3.5 15t-5.5 16q-7 8 -18.5 11t-24 2t-24.5 -5.5t-19 -11.5q-23 -22 -29.5 -39t-6.5 -40q0 -26 6.5 -43.5t17.5 -31.5q-4 11 0 21q2 5 4 5t4 -1q3 -2 5 -4q3 6 8 10t13.5 6.5t22.5 0.5t21 -9.5t8.5 -17t-1 -19t-7.5 -13.5q-5 -5 -10 -4.5t-8.5 3.5t-4 7t3.5 6
q8 4 10 15t-9 19t-25.5 1.5t-16.5 -26.5q0 -14 13 -27l3 -3q19 -13 36.5 -23t35.5 -16.5t38.5 -8t46.5 1.5q33 5 54.5 19t33.5 33t17 41t5.5 42.5t-1 37t-2.5 24.5q-2 12 -9 31t-20 39t-30.5 39t-38.5 30l-70 33q-36 12 -57 25t-43 36t-28.5 48t-6.5 52q0 68 55 112
q56 44 140 44q21 0 43 -6.5t41.5 -15t35 -16t23.5 -8.5v20q-8 4 -6 7q1 2 3.5 5t5.5 1q2 -1 4 -2.5t4 -3.5l5 -5q0 1 1 2q2 2 2 4t-5 7.5t-12 2.5t-12 1t-7 9t4.5 12t23.5 0q8 -4 13.5 -10.5t7.5 -12.5q3 -7 3 -15l-1 -24v-115h-34v19q0 18 -6 25.5t-19 18.5q-5 5 -19.5 15
t-33 19.5t-39 17t-38.5 7.5q-46 0 -76 -24q-29 -24 -29 -62q0 -15 6 -30q3 -3 11.5 -12.5t20.5 -19t25 -16t25 -3.5q26 6 31 25t-6 32q-11 12 -25.5 7.5t-18.5 -15.5q-2 -5 -7 -5t-9.5 3.5t-6 9.5t3.5 13t16.5 12t24 5t24 -7t16.5 -25t3 -29t-6 -18q-4 -8 -12 -11q5 -2 7 -5
q2 -2 1 -5.5t-6 -5.5q-11 -7 -25 -5l10 -4l10 -4l96 -34q87 -30 134 -86q27 -30 45 -66q-6 -3 -18 -8t-26.5 -8t-28.5 -3t-23 7q-23 17 -22 37t17 27t28.5 -3.5t12.5 -22.5q0 -6 5 -8t10.5 -0.5t9 6.5t1.5 14q-3 9 -12 18.5t-21.5 14.5t-26 3t-24.5 -16t-14 -25.5t-1 -19.5
q2 -10 8 -16q-6 0 -9 -2q-7 -4 1 -12q9 -10 19.5 -14t18.5 -3q4 0 12.5 0.5t17.5 2.5l22 4q1 -4 4 -7q6 -6 15 3z" />
    <glyph glyph-name="T" unicode="T" horiz-adv-x="676" 
d="M619 760h1v-175h-35v11q0 50 -27 77t-77 27h-20q-5 0 -8 -3q-4 -4 -4 -7v-438q-8 0 -19.5 1t-24 4t-23 8.5t-14.5 14.5q-6 12 -6.5 22t3 18t10.5 12t15 4q16 0 22.5 -14t1.5 -24q-2 -5 1 -9t8 -5t10 2t7 11q2 9 -2 21t-12.5 21.5t-21 13t-27.5 -3.5q-15 -8 -21.5 -16.5
t-8.5 -16.5q-3 -9 0 -17q-4 2 -8 2q-8 0 -5 -10q4 -12 11.5 -19.5t14.5 -10.5q8 -4 26 -9l20 -6q-1 -4 1 -7q2 -2 4.5 -4t9.5 0q5 2 12.5 3.5t15.5 3.5v-118l-16 16q-7 7 -13 16t-5 15q1 5 3 9.5t-2 9.5q-2 2 -4.5 0.5t-4.5 -3.5q-3 -3 -6 -7l-8 16l-5.5 13t-0.5 11
q1 4 -2 11t-6.5 11.5t-7 3.5t-3.5 -13t7.5 -27.5t16.5 -29.5q11 -17 24 -34q-32 13 -51 16t-30 1q-12 -2 -18 -8q23 3 43.5 -2.5t35.5 -13.5q18 -10 31 -23q-8 7 -18 11q-8 4 -19.5 6.5t-22.5 0.5q-12 -2 -17.5 -9t-6.5 -15.5t2 -16t8 -10.5q10 -6 17 0t1 12q-3 3 -6 6.5
t-3 6.5t4.5 6t15.5 5t23 -4t22 -14q11 -10 21 -22l3 -3q3 -15 14 -26q15 -14 42 -14h21v-32h-140q-4 4 -7.5 8t-5.5 9q-8 19 -2.5 30.5t12.5 12.5q6 2 10 -5.5t10 -12.5t17 -1.5t11 11.5t-8 15t-21 9q-7 0 -14.5 -0.5t-13.5 -4.5t-10 -13.5t-3 -27.5q0 -9 4.5 -16.5
t9.5 -13.5h-203v25q-11 6 -11 13.5t2 14.5q7 22 26 19q8 -1 9 -9t-4 -12q-6 -4 -13 -6t-7 -7q0 -2 4 -6h34q5 0 8 3t3 7v95q-9 2 -11 7t-1 13q2 6 5.5 18t6.5 20v34q-9 2 -11 7t-1 13q2 6 5.5 18t6.5 20v35q-9 1 -11 6.5t-1 13.5q2 6 5.5 17.5t6.5 19.5v35q-9 2 -11 7t-1 13
q2 6 5.5 18t6.5 20v34q-9 2 -11 7t-1 13q2 6 5.5 18t6.5 20v34q-9 2 -11 7t-1 13q2 6 5.5 18t6.5 20v34q0 4 -3 7t-8 3h-21q-49 0 -76 -27t-27 -77v-11h-35v175h35v-16q0 -12 14 -12h467q14 0 14 12v6v16v1q-8 6 -7 9q1 2 3.5 4.5t5.5 1.5q2 -1 3.5 -2.5l3.5 -3.5q2 -3 5 -5
q1 0 2 1q2 2 2 4q-1 2 -5.5 8t-12.5 3q-7 -4 -12 0.5t-7 9.5t5 12t24 0q8 -4 13.5 -10.5t7.5 -12.5q3 -8 3 -16v-10z" />
    <glyph glyph-name="U" unicode="U" horiz-adv-x="716" 
d="M634 84q8 1 15 -5t10 -17q2 -8 1.5 -18t-14.5 -16v-27h-118v40q-10 -13 -28 -23t-40 -16.5t-45 -10t-42 -3.5q-35 0 -69 6q-2 2 -3.5 4t-3.5 4q-14 21 -12 36.5t8 18.5q7 2 13 -5.5t14 -12.5t18.5 1.5t8.5 17.5q-3 10 -14 17t-25 5q-7 -1 -14.5 -3.5t-13 -9t-6 -19
t5.5 -33.5q2 -5 4.5 -9.5l5.5 -9.5q-27 6 -50.5 15t-37.5 22q-43 39 -51 104q-12 1 -14.5 6.5t-0.5 13.5q0 4 2 10.5l4 13.5t4.5 12.5t3.5 8.5v28q-11 0 -13.5 6t-0.5 14q0 4 2 10t4 13t4.5 12.5t3.5 8.5v28q-11 1 -13.5 6.5t-0.5 13.5q0 4 2 10t4 13t4.5 13t3.5 9v27
q-11 1 -13.5 6.5t-0.5 13.5q0 4 2 10.5l4 13t4.5 12.5t3.5 9v27q-11 1 -13.5 6.5t-0.5 14.5q0 4 2 10t4 13t4.5 12.5t3.5 8.5v28q-11 1 -13.5 6.5t-0.5 13.5q1 7 5.5 20l7.5 21q-3 15 -15 26q-8 10 -25 13h-26v23q-7 3 -11.5 7t-6.5 12q-4 15 6.5 29t23.5 16q6 1 9 -3.5
t3 -9.5t-2.5 -9t-6.5 -3q-9 2 -14.5 -5.5t1.5 -16.5q2 -4 9 -7h253v-397q-9 13 -24 19t-33 -5q-16 -9 -22.5 -18t-8.5 -17q-2 -9 1 -18q-5 1 -9 1q-8 0 -4 -11q5 -12 13 -19.5t15 -10.5q4 -2 12 -4.5t17 -4.5q10 -3 22 -5q-1 -5 1 -8q3 -7 15 -3q1 0 5 2v-94q-7 7 -13 16
t-4 14q1 6 3 10t-2 9q-3 4 -9 -2q-3 -3 -6 -7q-4 7 -8 15q-3 6 -5 13t0 12q1 4 -2 11t-6.5 11.5t-7 3.5t-3.5 -13t7.5 -27.5t15.5 -29.5q10 -17 23 -34q-32 13 -51 17t-30 2q-12 -2 -18 -8q24 2 44 -4t35 -14q17 -10 31 -23q-8 7 -18 11q-8 4 -19.5 6.5t-22.5 0.5
q-12 -2 -17.5 -9t-6.5 -15t1.5 -15.5t7.5 -10.5q10 -7 17 -1t2 12q-3 3 -6 6.5t-3 7t4.5 6t15.5 4.5q17 2 34.5 -11.5t25.5 -23.5q5 -15 17 -28q14 -14 26 -20.5t37 -6.5h4l11 2q16 6 29 14q11 7 20 15t10 19q2 20 -11 29t-25 4t-12 -17t7 -17q3 -3 2 -7t-4.5 -6t-8.5 -2
t-9 6q-4 5 -5 14.5t2 19t11.5 16t22.5 5.5t21.5 -4.5t11.5 -8.5t6 -12l2 2q1 1 1.5 1t1.5 1q4 13 4 31v519q0 25 -16 38q-15 15 -41 15h-10v31h117v-648q0 -22 16 -38q16 -14 39 -14q8 2 11.5 6t3.5 7q0 5 -6.5 7.5t-12.5 7.5q-5 4 -4 13.5t9 10.5zM304 337q17 0 24.5 -14
t2.5 -25q-2 -7 3.5 -11.5t12.5 -2.5v-33q-18 1 -37 6t-27 19q-7 12 -8 23.5t2.5 19.5t10.5 13t16 5z" />
    <glyph glyph-name="V" unicode="V" horiz-adv-x="769" 
d="M552 732h159v-30h-17q-8 0 -11 -3q-5 -3 -6 -12l-170 -572q-2 2 -2.5 5t-2.5 5q-7 14 -4.5 23t5.5 17t-7.5 12.5t-17.5 -3.5q-4 -5 -3 -11.5t3 -13.5q3 -8 7 -17q-3 2 -7 5q-3 2 -7.5 4.5t-8.5 4.5q-8 5 -16 12.5t-9 12.5q0 6 1 10.5t-4 8.5q-4 3 -8 -5l-4 -8l-11 13
q-5 5 -8.5 11t-2.5 11q0 4 -4.5 10t-9 9t-7.5 1.5t0 -12.5t13.5 -24.5t22.5 -24.5q13 -13 30 -26q-33 5 -52 3t-29 -6q-11 -4 -15 -12q21 8 41.5 8t36.5 -5q18 -5 35 -14q-9 4 -20 6q-9 2 -19.5 2t-21.5 -5t-14.5 -13t-2.5 -16t5.5 -14.5t9.5 -8.5q11 -4 17 3.5t-2 11.5
q-7 5 -11 11t16 15q11 4 23.5 1t23.5 -8q13 -6 26 -16l6 -5l-24 -80h-52q-8 17 -6 29.5t8 14.5t12 -5t14 -12t18.5 1.5t7.5 16.5q-2 10 -13 16.5t-25 4.5q-7 -1 -14.5 -3t-12.5 -8.5t-5.5 -18.5t5.5 -32q0 -2 0.5 -2.5t0.5 -1.5h-78l-45 153l-1 -1q-13 -3 -16.5 1.5
t-5.5 13.5q-1 5 -0.5 12.5t1.5 15.5q1 9 1 20l5 -5l-9 30h-1q-12 -4 -16 1t-5 13q-2 10 0 28q0 9 1 20l4 -4l-8 29h-1q-12 -4 -16 1t-5 13q-1 5 -0.5 12.5t1.5 15.5q1 9 1 20l3 -3l-9 28q-12 -4 -16 1t-5 13q-1 5 -0.5 12.5t1.5 15.5q1 9 1 20l2 -2l-8 26q-11 -3 -15 2
t-6 13q-1 5 -0.5 12.5t1.5 15.5q1 9 1 20l1 -1l-7 25q-11 -2 -15 2.5t-5 12.5v10.5v13.5t0.5 13t0.5 9q-17 42 -52 49h-32v22q-6 3 -10.5 7t-6.5 12q-2 7 0 14.5t6.5 14t10.5 10.5t12 5t9 -3.5t3 -9.5t-2.5 -9t-6.5 -3q-8 3 -13.5 -4.5t0.5 -16.5q3 -3 9 -7h324v-30h-24
q-11 0 -16 -5q-3 -5 0 -17l114 -402q-8 -3 -19.5 -6t-24.5 -4.5t-25 0t-20 8.5q-20 19 -17.5 38.5t18.5 24.5q17 5 28 -6t9 -22q0 -6 4.5 -8.5t10 -2t9.5 5t3 13.5q-2 9 -10 19.5t-19.5 16.5t-25 5.5t-25.5 -13.5q-13 -14 -16 -24.5t-2 -18.5q1 -10 6 -17q-5 0 -9 -1
q-8 -2 -1 -11q8 -11 18 -15.5t18 -4.5q4 -1 12 -0.5t17 1.5q10 1 22 1q1 -4 4 -7q2 -2 5.5 -3t8.5 4q5 4 11 7.5t13 8.5l20 -71l43 147q1 14 -1.5 28.5t-11.5 21.5q-17 11 -30.5 5t-15.5 -19q-2 -14 8.5 -19.5t18.5 -2.5q4 1 6.5 -1.5t2.5 -6.5t-2.5 -8t-9.5 -5q-6 -1 -15 3
t-15 11t-8 17t6 22q8 11 15.5 16t13.5 6q7 1 13 -1q-1 4 -1 7q0 6 8 3q9 -4 13.5 -10.5t6.5 -11.5q1 -4 2.5 -14t2.5 -18l72 246q12 41 -4 65q-8 12 -14.5 18.5t-26.5 6.5h-17v30z" />
    <glyph glyph-name="W" unicode="W" horiz-adv-x="947" 
d="M749 732h159v-30h-16q-9 0 -12 -3q-5 -3 -6 -12l-126 -684h-23l-142 537l-119 -432q-1 3 -3 11q-3 16 2 23.5l10 14.5q2 4 0.5 8t-5 6.5t-8.5 3t-9 -2.5q-5 -3 -5.5 -10t-0.5 -14q0 -9 2 -18l-19 19q-6 7 -12.5 16.5t-4.5 14.5q1 6 2.5 10t-1.5 9q-3 4 -9 -2q-3 -3 -6 -7
q-4 8 -8 15q-3 6 -5 12.5t0 11.5q1 4 -1.5 10.5t-6.5 11t-7 3.5t-3 -12q0 -12 7 -27.5t15 -29.5q10 -17 23 -33q-31 13 -49.5 17t-29.5 2q-12 -2 -18 -8q23 3 43 -3t34 -14q17 -10 30 -23q-7 7 -17 11q-8 4 -19 6.5t-22 0.5q-12 -2 -17.5 -8.5t-6.5 -14.5t1.5 -15.5
t7.5 -10.5q10 -7 17 -1t1 12q-3 3 -5.5 6t-2.5 6.5t4.5 6t15.5 4.5t22.5 -4.5t20.5 -14.5q11 -10 21 -22l12 -16l-19 -66h-42q-9 5 -14 13q-14 21 -12.5 36t8.5 18q6 2 12 -5t14 -12t18.5 1.5t7.5 16.5q-2 10 -13 16.5t-25 4.5q-7 -1 -14.5 -3t-12.5 -8.5t-5.5 -18.5
t5.5 -33q2 -8 7 -14.5t10 -11.5h-71l-43 158q-9 -2 -12 2.5t-4 12.5q-1 6 -0.5 18.5t1.5 20.5l-9 33q-9 -2 -12 3t-4 13q-1 6 0 17.5t2 20.5l-9 33q-9 -1 -12 3.5t-4 12.5q-1 6 -0.5 17.5t1.5 20.5l-9 34q-9 -2 -12 3t-4 13q-1 5 0 16.5t1 19.5l-9 35q-9 -1 -12 3.5t-4 12.5
q0 5 0.5 16t1.5 20l-10 35q-8 -1 -11 3.5t-4 12.5q-1 5 -0.5 15.5t1.5 19.5q-8 25 -18.5 38t-32.5 15h-22v22q-15 7 -18 19q-4 15 6.5 29t22.5 15q6 1 9 -3t3.5 -9t-2 -9t-6.5 -3q-9 2 -14 -5.5t1 -15.5q2 -4 5 -5.5t6 -3.5h283v-30h-24q-13 0 -16 -5t0 -17l21 -76
q8 9 17 7.5t16 -4.5q11 -6 15.5 -16t1.5 -19q-2 -9 -12.5 -9t-13.5 8q-4 8 -5 16t-6 9q-3 1 -10 -4l79 -289l-2 -2q-21 -6 -40 -9q-17 -2 -33.5 -1t-25.5 11q-20 20 -16 39t21 24q16 4 26 -8t9 -23q-1 -5 3.5 -8t10 -2.5t10 4.5t3.5 13t-8.5 20t-19 17.5t-24.5 6.5t-26 -12
q-14 -13 -18 -23t-3 -18q1 -9 6 -17q-5 0 -9 -1q-8 -2 -2 -11q8 -11 17 -16t17 -6q4 -1 12.5 -1h17.5h22q0 -4 3 -7q4 -7 15 0q6 5 16 10t20 12l22 -78l133 437h3v15q-15 7 -18 19q-4 15 6.5 29t22.5 15q6 1 9 -3t3.5 -9t-2 -9t-6.5 -3q-9 2 -14.5 -5.5t1.5 -15.5
q4 -7 12 -9l6 -24l78 -328q3 11 7.5 16.5t9.5 7.5q5 3 11 3q-2 3 -3 6q-2 6 7 6q9 -1 16 -4.5t10 -8.5q2 -2 5.5 -7.5t6.5 -11.5q4 -7 8 -15h1q1 0 1.5 0.5t2.5 0.5l52 293q12 41 -4 65q-16 25 -53 25h-5v30zM755 296q-5 14 -13 28t-20 17q-20 5 -30 -6t-7 -24
q4 -13 15 -14.5t18 4.5q3 3 6.5 1t5 -6t0.5 -8.5t-7 -7.5q-6 -4 -17 -2.5t-20 7.5l38 -160z" />
    <glyph glyph-name="X" unicode="X" horiz-adv-x="704" 
d="M551 121q36 -90 96 -90h13v-31h-138q-19 17 -20.5 32.5t4.5 19.5q5 4 13 -2t17 -9t18 6t4 18t-17 13t-26 -1q-7 -2 -14 -6t-10.5 -11.5t-1.5 -19.5t13 -31q4 -6 7 -9h-196v31h51q23 0 16 22l-5 13q-17 -5 -20 14q-2 7 -2 21t-1 22l-11 29q-10 -3 -13.5 1.5t-5.5 12.5
q-2 6 -2 18.5t-1 20.5l-11 28q-10 -3 -13.5 1.5t-5.5 12.5q-2 7 -2.5 21t-0.5 22l-7 17l-78 -166q-23 -41 -14 -75q9 -35 44 -35h29v-31h-191v26q-14 5 -14.5 13.5t1.5 16.5q3 10 10.5 15t15.5 4t9.5 -9.5t-4.5 -12.5t-12.5 -6t-6.5 -7q0 -4 8 -9h5q14 0 23 15l142 297
q-4 6 -5 12q-2 10 -2 28q-1 10 -1 20l2 -1l-10 26q-12 -5 -16.5 -0.5t-6.5 13.5q-2 10 -2 28q-1 10 -1 20h1l-10 24q-11 -4 -15 0.5t-6 12.5t-2.5 24.5t-0.5 22.5l-11 26q-10 -4 -14 0.5t-6 12.5q-2 6 -2 18.5t-1 21.5q-11 19 -22 31q-12 11 -28 14h-29v23q-15 7 -18 19
q-4 15 6.5 29.5t23.5 15.5q6 1 9 -3.5t3 -9.5t-2.5 -9t-6.5 -3q-9 3 -14.5 -5t1.5 -16q2 -3 8 -7h290v-31h-15q-23 0 -16 -22l39 -95q-1 7 0 14.5t5.5 14t11.5 10.5t18 3q14 -1 22 -4.5t12 -8.5t6 -12q2 3 5 4q6 2 7 -6v-6l14 24q20 37 11 60q-5 12 -8.5 18t-20.5 6h-24v31
h160v-31h-15q-12 0 -21 -15l-131 -232l77 -193q-3 -1 -16 -4t-28.5 -4.5t-31 0.5t-24.5 12t-12.5 20.5t-2 19.5t7.5 15t14 8t15 -0.5t12 -7.5t7.5 -11.5t1.5 -12.5t3.5 -9t10 -2.5t10 5t3.5 13.5t-8.5 20t-18.5 18.5t-25 7.5t-27 -12q-14 -12 -18 -23t-4 -19q0 -10 5 -17
q-5 1 -9 0q-3 -1 -4.5 -4t2.5 -8q8 -11 17.5 -16.5t17.5 -6.5q10 -2 30 -2h22q0 -4 3 -7q2 -2 5.5 -3.5t9.5 2.5q6 5 15.5 9.5t19.5 11.5l37 -92q-10 3 -19 11q-13 10 -14.5 19.5t-2.5 17.5q0 4 -4 6t-8.5 2t-8.5 -3t-5 -8q-2 -5 1.5 -11.5t8.5 -11.5q5 -6 14 -12q-5 0 -9 1
q-4 0 -8.5 0.5t-9.5 1.5q-9 1 -20 3.5t-14 7.5t-4.5 9.5t-6.5 6.5q-3 1 -4 -2l-2 -6q-1 -4 0 -9q-9 3 -16 7q-6 3 -11.5 6.5t-7.5 7.5t-8.5 7.5t-12.5 4.5t-8 -2t6 -12t23 -16t31 -12q18 -6 40 -11q-28 -9 -44 -17.5t-24.5 -16t-11 -13t-2.5 -7.5l1 -1q16 17 35 25.5
t36 11.5q19 4 38 2q-10 0 -21 -3q-9 -2 -19 -7.5t-18 -14.5t-7.5 -18t5 -15.5t11.5 -10.5t13 -3q11 2 13 10.5t-6 9.5q-4 0 -8.5 1t-7 3.5t-1 7.5t9.5 14q8 8 20 11t25 3q14 0 31 -3l25 -6zM436 563q-4 -3 -7.5 -6.5l-6.5 -6.5q-4 -4 -8 -6q2 -2 2 -5q0 -6 -10 -7
q-8 -2 -19 -3l13 -31zM390 579q3 -3 2 -6.5t-4 -6t-8 -2.5t-9 5l13 -32q13 6 29.5 17.5t18.5 25.5q1 20 -11.5 29t-24.5 4q-13 -5 -13 -17t7 -17z" />
    <glyph glyph-name="Y" unicode="Y" horiz-adv-x="676" 
d="M605 700q-16 0 -23 -15l-138 -324v-111q-9 0 -21 1t-23.5 4t-21 8t-14.5 14q-14 24 -5 42t26 18t24.5 -14t2.5 -25q-2 -5 1.5 -9t9 -5t11 2t6.5 12t-3.5 21.5t-14 22t-22.5 13.5t-29 -5t-22.5 -18.5t-8.5 -17.5q-2 -10 1 -18q-5 1 -9 1q-8 0 -4 -10q5 -13 13 -20.5
t15 -10.5q4 -2 12.5 -4l16.5 -4q10 -3 21 -5q0 -4 2 -8q2 -3 4.5 -4.5t9.5 0.5q5 2 10.5 3.5t11.5 3.5v-116q-3 3 -7 7.5t-8 9.5q-7 7 -13.5 16t-5.5 15q2 5 3.5 9.5t-1.5 9.5q-3 4 -9 -2q-3 -3 -6 -7q-4 8 -8 15q-3 6 -5 12.5t0 11.5q1 4 -2 11t-6.5 11.5t-7 3.5t-3.5 -13
q0 -11 7 -26.5t16 -29.5q10 -17 23 -34q-32 13 -50.5 16.5t-29.5 1.5q-12 -2 -18 -8q23 3 43 -3t35 -14q17 -10 31 -23q-8 7 -18 11q-8 4 -19.5 6.5t-22.5 0.5q-12 -2 -17.5 -9t-6.5 -15t1.5 -15.5t7.5 -10.5q10 -7 17 -1t2 12q-3 3 -6 6.5t-3 7t4.5 6t15.5 4.5t22.5 -4.5
t21.5 -14.5q11 -10 21 -22l5 -7q4 -12 13 -19l11.5 -11.5t16.5 -3.5h10v-31h-119l-1 1q-14 21 -12.5 36.5t8.5 18.5q7 2 13 -5t14 -12t18.5 1t7.5 17q-2 10 -13 17t-25 5q-7 -1 -14.5 -3.5t-13 -9t-6 -18.5t5.5 -33q3 -10 7 -15h-161v24q-10 5 -10 12.5t2 14.5q7 22 26 19
q8 -1 9 -9t-4 -12q-6 -4 -13 -6t-7 -7q0 -2 3 -5h34q14 0 14 13v345l-100 209q-21 36 -39 62.5t-38 34.5h-27v23q-15 7 -18 19q-4 15 6.5 29t23.5 16q6 1 9 -3.5t3 -9.5t-2.5 -9t-6.5 -3q-9 2 -14.5 -5.5t1.5 -15.5q3 -5 8 -7h196v-31h-17q-22 0 -16 -21l123 -213
q1 13 9 23.5t26 9.5q14 -1 22 -4.5t12 -8.5t6 -12q2 2 4 3q5 2 7 -1l45 97q5 13 11 26.5t10.5 26.5t6.5 24t-1 19q-8 16 -15 23.5t-27 7.5h-19v31h165v-31h-10zM381 416q13 7 25 17t13 21q1 20 -11.5 29t-24.5 4q-12 -6 -12.5 -17.5t6.5 -16.5q5 -4 1.5 -9t-9.5 -6zM419 433
l-18 -14q2 -3 2 -6q0 -6 -9 -7q-2 0 -3 -0.5t-3 -0.5l10 -18z" />
    <glyph glyph-name="Z" unicode="Z" horiz-adv-x="611" 
d="M315 350q17 0 24.5 -14.5t2.5 -24.5q-2 -5 2 -9t9 -5t10.5 2t6.5 12t-3.5 21.5t-14 22t-22.5 13t-29 -5.5t-22 -18.5t-8 -17.5q-2 -10 1 -18q-5 2 -9 2q-3 0 -5 -2.5t0 -8.5q5 -12 13 -20t15 -10q4 -2 12 -4.5t17 -4.5q10 -3 22 -5q-1 -5 1 -8q3 -7 15 -3q3 1 6.5 2
t7.5 2l-39 -93v2q-6 15 -2.5 23.5t7.5 16.5q2 4 0 7.5t-5.5 6t-8.5 2.5t-9 -4q-5 -4 -5.5 -11t1.5 -14q2 -9 5 -18q-3 2 -7 5q-3 2 -6.5 5.5t-7.5 6.5q-8 6 -15 14.5t-7 13.5q0 6 1.5 10.5t-2.5 8.5q-3 2 -9 -4q-3 -3 -5 -7q-6 7 -10 14q-4 6 -6.5 12t-1.5 11q0 4 -3.5 10.5
t-8 10.5t-7.5 2.5t-1 -12.5q2 -12 10.5 -26.5t19.5 -27.5q12 -15 27 -30q-33 9 -52 9.5t-30 -2.5q-12 -4 -17 -10q23 6 43.5 3t36.5 -9q18 -7 34 -19q-8 5 -19 9q-9 3 -20.5 4t-22.5 -3q-12 -3 -16.5 -11t-4 -16t4.5 -15t9 -10q10 -5 16.5 2t-0.5 12l-6 6t-3.5 6t3 6.5
t14.5 6.5t23.5 -1.5t23.5 -11.5q12 -8 24 -19l1 -1l-37 -86h27q49 0 73.5 6.5t38.5 20.5q5 4 8.5 7.5l7.5 7.5q2 19 -6 21q-5 2 -9 -4t-9 -10q-6 -5 -13.5 -0.5t-5.5 12.5t9.5 13.5t17.5 4.5q8 0 16 -4t7 -20q7 13 7 36v24v9v1q-8 6 -7 9q1 2 3.5 4.5t5.5 1.5q2 -1 4 -2.5
t4 -3.5l5 -5q1 0 2 1t1 4q0 2 -5 8t-12 3t-12 1t-7 9t4.5 12.5t24.5 -0.5q8 -4 13 -10.5t7 -12.5q3 -8 3 -16v-13h1v-174h-35v15q0 13 -14 13h-243q-1 0 -1 1q-15 21 -13 36.5t8 18.5q7 2 13 -5t14 -12t18.5 1t8.5 17q-3 10 -14 17t-25 5q-7 -1 -14.5 -3.5t-13 -9t-6 -18.5
t5.5 -33q3 -10 7 -15h-114v21l59 142q-7 5 -6.5 10.5t4.5 11.5q3 5 9.5 12l12.5 14l15 37q-7 5 -6.5 10.5t5.5 11.5q2 5 8.5 12l12.5 14l15 37q-7 5 -6.5 10.5t5.5 11.5q2 5 8.5 12.5t12.5 13.5l16 37q-12 8 -2 22q2 5 9 12.5l13 13.5l15 37q-7 5 -6.5 10.5t4.5 11.5
q3 5 9.5 12.5l12.5 14.5l15 36q-7 5 -6.5 10t4.5 12q3 5 9.5 12.5l12.5 14.5l26 61h-83q-51 0 -80 -23q0 -1 0.5 -1t0.5 -1t1 -1q9 3 17 6l14 4t10 3q6 2 15 0.5t19 -8.5q7 -4 2 -9q-3 -2 -6 -3q5 -4 9 -11q3 -6 3.5 -15t-5.5 -22t-16.5 -16.5t-21.5 -1t-20.5 8.5t-13.5 13
q-3 6 -1 10.5t6 6.5t8.5 0.5t5.5 -5.5q2 -9 14.5 -15.5t23.5 1.5t8 23.5t-25 25.5q-9 4 -19 2.5t-20 -5.5t-19 -9t-14 -9l-8 -17.5t-3 -22.5v-25h-35v161h1v9v1q-8 6 -7 9q1 2 3.5 4.5t5.5 1.5q2 -1 4 -2.5t4 -3.5l5 -5q1 0 2 1t1 4q0 2 -5 8t-12 3t-12 1t-7 9t4.5 12.5
t24.5 -0.5q8 -4 13 -10.5t7 -12.5q3 -8 3 -16v-11v-4q0 -12 14 -12h400v-21l-187 -447q-9 0 -20.5 1t-23 4t-21 8t-14.5 13q-14 24 -5 42t26 19z" />
    <glyph glyph-name="a" unicode="a" horiz-adv-x="562" 
d="M515 27v-25h-145v29q-55 -41 -133 -41q-57 0 -102 24q-11 18 -9.5 31t6.5 15t10.5 -4.5t12.5 -11.5t15.5 1t6.5 15q-3 9 -12 15t-21 5q-6 -1 -12.5 -3t-10.5 -7.5t-5 -16.5t5 -29q1 -1 1 -2q-5 4 -11 7.5t-11 8.5q-29 24 -44 58q5 3 11.5 8t9.5 6q4 2 9 0.5t8 -4.5t3 -7
t4 -6t6.5 2.5t-0.5 12.5t-13 10q-4 1 -10 1q4 2 8 5q6 4 13 8q5 4 7 1t4 -1q2 1 2 6v4q4 2 14 5.5t17 5.5q6 1 6 -3t-4 -8t1.5 -8t12.5 0q7 3 6.5 12.5t-14.5 13.5q-7 2 -17 -1t-19 -8q-11 -5 -22 -12l4 6q2 2 3.5 5t3.5 5q4 5 5.5 11.5t-4.5 15.5q-6 8 -14.5 3.5
t-10.5 -9.5q-1 -5 3.5 -6t6.5 4t6.5 3.5t6.5 -8.5q1 -3 -2 -7t-7 -8t-10 -9q-1 6 -7 11t-15 9t-12.5 -3t-4.5 -13q-1 -5 3.5 -3t7.5 7q3 4 9 1.5t9 -14.5q1 -5 -2 -10t-7 -9.5t-9 -9t-9 -7.5q-9 24 -9 52q0 45 20 83q5 -7 9.5 -12t7.5 -9q6 -9 10 -5q2 1 4 5q8 -3 15 -6
q6 -2 12 -5t9 -4q6 -2 13.5 -0.5t15.5 7.5q6 4 2 8q-2 2 -6 3q4 5 7 11q2 5 1.5 13.5t-6.5 21.5q-6 12 -15.5 16t-19 2.5t-17 -7.5t-10.5 -12t-1 -10t6 -6t7.5 -1t4.5 5q2 8 11.5 14t20.5 -2t9.5 -23t-19.5 -24q-8 -3 -18 -1t-19.5 7t-17.5 10.5t-12 8.5q16 27 39 46
q64 54 156 54q68 0 107 -21v114q0 52 -32 80q0 1 -1 1q8 -13 8 -30q0 -21 -3.5 -32t-9.5 -16t-13.5 -5t-14.5 1q-13 3 -21 12t-7 20q0 11 11 14t17 -5q5 -7 9 -15.5t10 -7.5q6 0 12 14t-2 38q-6 18 -20 28q-28 13 -60 13q-31 0 -64 -14t-51 -33q-26 -29 -26 -62v-16h-27v102
v15v1q-7 5 -6 9q1 2 3 4.5t4 0.5q2 -1 6 -5q2 -2 4 -5l1 1q2 2 2 4t-4 8t-10 2q-5 -3 -9 1.5t-6 9.5t3.5 12t19.5 -1q7 -4 10.5 -10t5.5 -12q2 -7 3 -16v-2v-25q32 30 72 46q41 16 88 16q88 0 138 -49q43 -42 49 -109l18 -35q0 -8 -2 -14q-2 -5 -5 -9.5t-9 -4.5v-16l16 -33
q0 -8 -2 -14q-2 -5 -5 -9.5t-9 -4.5v-16l16 -33q0 -8 -2 -14q-2 -5 -5 -10t-9 -5v-16l16 -33q0 -8 -2 -14q-2 -5 -5 -9.5t-9 -4.5v-29l16 -33q0 -6 -1 -10t-3 -8.5t-5 -6.5q9 -11 31 -11h16zM370 229q0 40 -25 62t-69 22q-42 0 -69 -36q-27 -38 -27 -95q0 -66 34 -109
q32 -42 77 -43l15 10.5t17 15t13.5 18t4.5 18.5q-2 23 -18 30t-29 -1q-12 -9 -9.5 -21.5t10.5 -17.5q4 -3 4 -7.5t-3.5 -7.5t-9 -3.5t-11.5 4.5t-9 15.5t-1.5 21.5t9.5 20t24 11t25.5 -0.5t14.5 -7.5q6 -5 9 -12q2 3 5 5q6 4 9 -5q4 -10 2 -19.5t-6 -14.5q-2 -3 -6.5 -8.5
l-9.5 -11.5q-6 -7 -13 -14l2 -4q2 -5 0 -7q5 2 9 4t8 5q23 17 23 38v145z" />
    <glyph glyph-name="b" unicode="b" horiz-adv-x="740" 
d="M674 361q23 -51 23 -103q0 -22 -4 -41q0 2 -2 4q-7 13 -4.5 21.5l4.5 15.5q3 8 -6.5 11.5t-15.5 -4.5q-3 -4 -2.5 -10.5t2.5 -12.5q2 -7 6 -15q-3 2 -7 4q-3 2 -6.5 4t-7.5 4q-8 4 -15 10.5t-8 11.5t0 9.5t-3 7.5q-5 2 -8 -5l-4 -8q-6 6 -10 11t-7 10t-3 10q0 4 -4 9
t-8.5 8t-7.5 1t0 -12q3 -11 13 -22t21 -21q12 -11 28 -23q-30 2 -47.5 0t-26.5 -7q-11 -5 -14 -12q20 9 38.5 9.5t33.5 -2.5q18 -4 33 -11q-8 3 -18 5q-8 1 -18.5 0t-20.5 -6t-13 -12.5t-1.5 -15t5.5 -13.5t9 -7q10 -2 15 5t-2 10q-3 2 -6.5 4t-4 5t2.5 6.5t12 8.5
q10 5 21 3t22 -7t24 -13l3 -2q-5 -16 -12 -29q-25 -51 -68 -87l-12 -10t-13 -10q-9 6 -16 16q-14 20 -12.5 35.5t7.5 17.5q5 2 11 -5t14 -12t17.5 1t6.5 16q-2 11 -12.5 17.5t-23.5 4.5q-7 -1 -14 -3t-11.5 -8.5t-5 -18.5t5.5 -32q5 -11 11.5 -19.5t14.5 -13.5
q-83 -54 -192 -54q-102 0 -176 44v-32h-133v20q-11 5 -11.5 13t1.5 15q3 10 10 15t15 4t9 -9t-4 -12q-6 -4 -12.5 -6t-6.5 -7t7 -8h21q14 0 14 12v47q-11 1 -13 6.5t0 13.5q1 7 6 20.5t7 20.5v30q-11 1 -13 6t0 13q1 7 6 20.5t7 21.5v16q-11 1 -13 6t0 13q1 7 6 20.5t7 21.5
v16q-11 1 -13 6.5t0 13.5q1 7 6 20.5t7 20.5v16q-11 2 -13 7t0 13q1 7 6 20.5t7 20.5v25q-11 1 -13 6t0 13q1 7 6 20.5t7 20.5v26q-11 1 -13 6.5t0 13.5q1 7 5.5 20l7.5 21q-1 8 -2.5 14t-6.5 10q-9 8 -18 -1l-19 -15l-19 18l113 104q0 7 -1 10q-5 23 -22 28t-28 -6
q-11 -10 -7 -22.5t13 -16.5q5 -2 5 -6t-3 -8t-8.5 -5.5t-11.5 3.5q-6 4 -10.5 14t-4.5 21t6.5 21t22.5 15q15 4 25 3t16 -5q7 -4 10 -11q2 4 5 6q5 3 9 -4q4 -8 4 -18l23 20l19 -17l-20 -23v-289q78 45 176 45q138 0 227 -79q43 -36 66 -86zM605 353q4 6 -2 8q-3 1 -7 0
q3 6 2 13q-1 6 -5 13.5t-15 16.5q-11 8 -21.5 7t-18 -6.5t-12 -14t-4.5 -14.5q0 -7 4 -10t8.5 -3t7 2.5t1.5 6.5q-2 8 4.5 17.5t19.5 6.5q13 -2 18 -16t-7 -30q-5 -6 -15 -8.5t-20.5 -2.5t-20 1.5t-14.5 2.5q-14 40 -38 70q-55 74 -140 74q-49 0 -90 -26q-35 -23 -35 -45
v-250q0 -57 46 -97q44 -38 105 -40q6 2 18 6.5t24 11.5t21.5 16t11.5 20q2 13 -1.5 22.5t-10 15.5t-15 8t-16.5 -1q-16 -6 -17 -20.5t7 -22.5q4 -4 2.5 -8.5t-6.5 -7t-11 -2t-11 8.5q-5 7 -5 19.5t5 23.5t15.5 18.5t28.5 5.5t27.5 -8t14.5 -12q5 -7 6 -15q4 3 8 4q7 2 8 -8
q1 -12 -4 -21t-10 -14q-3 -3 -10 -7.5t-14 -9.5q-8 -5 -17 -12v-1q0 -2 1 -3q37 12 69 45q51 57 51 149q0 57 -15 104q13 -5 20 -9q5 -2 6.5 -1.5t3.5 2.5q1 2 2 5q9 0 17 1q7 1 13 1.5t9 1.5q5 1 12 5.5t11 12.5z" />
    <glyph glyph-name="c" unicode="c" horiz-adv-x="655" 
d="M90 151q3 -7 0 -16t-8 -17q-14 22 -23 44q1 1 1 1.5t1 1.5q2 6 11.5 4t17.5 -18zM610 78q-26 -23 -54 -39.5t-57 -27.5q-57 -21 -129 -21q-52 0 -100.5 10.5t-90.5 32.5q-3 14 0 23t8 11q6 2 11 -5.5t12 -13.5q8 -6 18 -1t8 16q-2 10 -11 17.5t-23 7.5q-6 0 -13 -1.5
t-12 -6.5t-7.5 -15t0.5 -27l-19.5 12t-17.5 13q-25 22 -42 43l5 5q5 3 12.5 2t12.5 -5q5 -3 7 -9t7 -8q5 -1 7 5t-5 17q-7 9 -21 11q-7 1 -14 0l24 21q6 5 9.5 1.5t5.5 -0.5q2 2 0 9q-1 3 -2 5q5 5 17.5 11.5t20.5 9.5q8 2 9.5 -3t-2.5 -11t4.5 -10.5t16.5 1.5t4 18.5
t-23 14.5q-10 2 -22 -4t-23 -14q-13 -9 -26 -20q1 4 3 8t3 8t3 7q4 7 4 16.5t-11 20.5q-6 5 -11.5 5.5t-10 -2.5t-7.5 -7t-3 -8q1 -8 7.5 -8t7.5 6q0 7 6.5 6t11.5 -9q2 -5 0 -11.5t-6 -11.5q-4 -7 -11 -13q-2 8 -12 13.5t-24 9.5q-7 1 -12 -2q-9 31 -9 67v10l14 -7t11 -5
q7 -4 11 0q2 2 2 6q8 0 16 1q7 1 13.5 1t9.5 1q5 2 11.5 6.5t11.5 12.5q2 6 -3 8q-3 1 -6 0q3 6 2 13q-1 6 -5 13.5t-15 15.5q-11 9 -21.5 8t-18 -6.5t-12 -14t-4.5 -15.5q0 -6 4 -9t8 -3t7 2.5t2 6.5q-2 8 4 17t19 7t18.5 -16t-7.5 -30q-5 -7 -15.5 -9t-21.5 -2t-20.5 1.5
t-13.5 2.5q3 44 22 85q22 49 64 90q46 44 108.5 65.5t130.5 21.5q79 0 153 -30v23v16v1q-6 4 -6 8q1 2 3 5t5 1l2.5 -2.5l3.5 -3.5q2 -3 3 -5q0 1 1 2q2 2 2 4t-4 7.5t-10 2.5q-5 -3 -9 1t-6 9t3.5 12t19.5 0q7 -4 10.5 -10.5t5.5 -12.5q2 -7 3 -15v-11v-145h-27v8
q0 7 0.5 7t-0.5 8q-4 -9 -11.5 -11t-15.5 -2q-12 1 -20 8t-10 16t7.5 13.5t15.5 -0.5q7 -6 11.5 -13.5t9.5 -5.5q10 4 9 23q-5 14 -17 23q-13 10 -24 17t-22.5 11.5t-25.5 6.5t-32 2q-23 0 -39.5 -1.5t-30.5 -6.5t-27.5 -14t-28.5 -24q-31 -31 -46.5 -79t-15.5 -94
q0 -24 3 -52t9.5 -55.5t18 -51.5t28.5 -39q-3 7 -3 16q0 10 8 8q4 -1 7 -4q1 8 5 14q4 5 12.5 10.5t25.5 7.5q16 2 26.5 -4.5t15 -16.5t4.5 -21t-4 -17q-4 -7 -9.5 -7.5t-10 1.5t-6.5 6.5t2 7.5q7 7 5.5 20t-15.5 18q-15 5 -29 -6.5t-10 -34.5q1 -5 4.5 -10t8.5 -10
q35 -16 58.5 -22.5t48.5 -4.5q14 1 24.5 2.5t20 3.5t19 5t23.5 8q53 18 94 51z" />
    <glyph glyph-name="d" unicode="d" horiz-adv-x="724" 
d="M666 29v-25h-132v33q-78 -45 -175 -45t-171 38q-5 17 -2 28t9 13t11 -6.5t13 -14.5q7 -6 17.5 -1t9.5 16q-2 11 -11.5 18.5t-23.5 8.5q-7 0 -14 -1.5t-12.5 -7t-7.5 -17t1 -31.5l-23 14t-22 16q-14 11 -25.5 23.5t-21.5 26.5q5 3 8.5 6t5.5 4q4 2 10 0.5t11 -5.5
q4 -4 4.5 -9t5.5 -7t7 2.5t-3 15.5q-3 5 -7.5 7.5t-9.5 4.5t-12 2l8 6q4 2 8 4.5l7 4.5q5 4 7.5 0.5t5.5 -1.5q2 4 1 8q-1 3 -2 5q5 3 16 7t18 6t8.5 -3t-3.5 -10q-4 -5 3 -10t15 -1q8 5 5.5 16t-19.5 16q-8 2 -19 -1.5t-21 -8.5q-11 -6 -24 -14l3 6q4 8 7 12q3 6 4 14
t-8 19q-8 10 -18 5t-10 -11q0 -7 5.5 -8t6.5 4q2 6 7.5 4.5t8.5 -9.5q2 -5 -1 -9.5t-7 -9.5t-10 -10q-2 7 -10 13t-19 11t-14 -3t-3 -15q1 -8 5 -5t7 8q2 5 10 2t13 -17q3 -9 -3.5 -19t-14.5 -18q-35 56 -35 125v9q9 -5 17.5 -8t13.5 -6q9 -4 12 1q2 2 2 6q9 1 17 2
q7 1 13.5 1t9.5 1q6 2 13 6.5t12 13.5q2 7 -3 9q-3 1 -7 0q3 6 2 13q-1 6 -5.5 14t-16.5 17t-23 8t-19 -7t-12.5 -15t-3.5 -16q0 -7 4 -10t8.5 -3t7.5 2.5t2 6.5q-3 8 3.5 18.5t20.5 8.5t20 -17t-7 -32q-7 -8 -19.5 -10.5t-26.5 -1.5q-16 1 -34 4h-1q3 47 24 92q25 52 68 89
q43 39 102 60q57 21 121 21q103 0 175 -44v155q0 19 -8 27t-19 -1l-12 -8l-19 17l88 79q5 11 8 22t-1 19q-10 20 -27 22t-26 -10t-3 -23t16 -13q5 -1 5.5 -5t-1.5 -8.5t-7 -6.5t-12 1t-13 12t-7.5 19.5t3 21t18.5 17.5t24 7t16 -2q7 -3 12 -8q1 4 3 7q4 6 10 -2q7 -9 8 -18
t-1 -15q-2 -3 -4 -9t-5 -13l43 38l19 -17l-18 -18v-39l17 -33q0 -9 -2 -15q-2 -5 -5.5 -9.5t-9.5 -4.5v-27l17 -33q0 -8 -2 -14q-2 -5 -5.5 -9.5t-9.5 -4.5v-25l17 -33q0 -8 -2 -14q-2 -5 -5.5 -9.5t-9.5 -4.5v-24l17 -33q0 -8 -2 -14q-2 -5 -5.5 -9.5t-9.5 -4.5v-16l17 -33
q0 -8 -2 -14q-2 -5 -5.5 -9.5t-9.5 -4.5v-16l17 -33q0 -8 -2 -14q-2 -5 -5.5 -9.5t-9.5 -4.5v-16l17 -33q0 -8 -2 -14q-2 -5 -5.5 -9.5t-9.5 -4.5v-29l17 -33q0 -8 -2 -14q-2 -5 -5.5 -9.5t-9.5 -4.5v-12q0 -24 6.5 -35.5t32.5 -11.5h3zM534 351q0 56 -49 96t-115 40
q-50 0 -88 -25h3q19 -2 28.5 -6t13 -10t3 -12.5t-1.5 -12.5q-4 -12 -12.5 -18.5t-18.5 -4.5q-9 1 -11 11t5 15t15 7t8 8t-11.5 12t-32.5 2q-13 -10 -23 -21q-56 -61 -56 -155q0 -107 59 -177q58 -69 151 -69q43 0 78 16l9.5 13t12.5 20.5t9 23t-1 20.5q-9 20 -26 21.5
t-26 -9.5q-9 -12 -3 -23t16 -13q4 -1 5 -5t-1.5 -8.5t-7 -6.5t-11.5 1t-13 12t-7.5 19.5t3 21t18.5 17.5t24 7t16 -2q7 -3 12 -8q1 4 3 7q4 6 10 -2q7 -9 8 -18t-1 -15q-2 -3 -4.5 -10t-5.5 -14q-4 -8 -7 -17q2 -1 3 -2q2 -2 2 -6q18 15 18 31v249z" />
    <glyph glyph-name="e" unicode="e" horiz-adv-x="647" 
d="M78 154q2 -7 -1 -16t-8 -17q-7 10 -11.5 21t-8.5 22q1 1 3 5q2 6 10.5 4t15.5 -19zM497 85q13 9 22.5 17t18 18.5t16.5 23.5t17 32l22 -12q-14 -44 -37.5 -69.5t-60.5 -50.5q-74 -52 -175 -52q-91 0 -161 41q-4 16 -1 26t8 12q6 2 10.5 -6.5t11.5 -14.5t17 -1t8 16
t-10.5 18.5t-21.5 8.5q-6 0 -12.5 -1.5t-11.5 -6.5t-7 -15.5t0 -29.5q-8 5 -15 10.5l-14 11.5q-14 11 -24.5 22.5t-19.5 25.5l6 6q4 3 10.5 1.5t11.5 -5.5t6 -9.5t6 -7.5t7 4t-4 17q-3 5 -8.5 7.5t-10.5 4.5q-6 1 -12 1q4 3 8 7q3 3 7 6.5t7 6.5q5 5 8 1t5 -1q3 3 1 9l-2 6
q5 4 16 10t18 9q8 2 9 -3.5t-2 -11.5q-4 -5 3.5 -10t14.5 1q8 6 4.5 18.5t-20.5 15.5q-9 2 -20 -4t-21 -13l-24 -19q1 4 3 8l6 15q3 7 3 16t-10 20q-9 11 -19 4.5t-9 -14.5q0 -8 6 -8.5t7 6.5q0 6 6 5t10 -10q2 -5 0 -11t-6 -11q-4 -6 -10 -13q-2 8 -11 14t-21 10
q-10 3 -13 -4q-4 16 -6 32t-2 34v6q14 -6 22 -11q8 -4 11 1q2 2 2 6l16 2q6 1 12 1t9 1q5 2 11.5 6.5t10.5 13.5q2 7 -3 9q-3 1 -6 0q3 6 2 13q-1 6 -5 14t-15 17t-20.5 8t-17 -7t-11.5 -15t-4 -16t4 -10t7.5 -3t6.5 2.5t2 6.5q-2 8 4 18.5t18 8.5q13 -2 18 -17t-6 -32
q-5 -7 -14 -9.5t-19 -3t-19.5 1t-14.5 2.5q1 44 20 89q11 26 26 48t35 42q41 41 93 62q51 22 110 22q110 0 188 -60q39 -31 63 -76t33 -93h-345q1 -1 1.5 -1t1.5 -1q12 -11 16.5 -19.5t5.5 -15.5q1 -8 -3 -14q5 1 8 0q6 -2 2 -10q-5 -9 -12.5 -13.5t-14.5 -5.5q-8 -2 -25 -2
h-19q0 -4 -2 -7q-3 -5 -12 0q-4 2 -8 4.5t-9 4.5q5 -33 15.5 -61t33.5 -51q16 -17 30 -27.5t29.5 -17.5t34 -9.5t43.5 -2.5q20 0 36 2t30 6t27.5 11t28.5 18zM508 341l-2 18t-3 18q-2 -4 -4 -7t-4 -7q-14 -17 -23 -22h36zM243 446q-21 -20 -34 -46.5t-21 -58.5h251
q-5 3 -8 8q-9 10 -9.5 22t6.5 20t17.5 3.5t10.5 -13.5t-2.5 -18t2.5 -13q5 -3 18.5 4.5t22.5 30.5q1 2 1 4t1 4q-5 19 -13.5 34t-22.5 27q-23 20 -56 31t-70 9q-26 -1 -49.5 -14t-44.5 -34zM186 275q0 -12 0.5 -24t1.5 -23q7 -2 17.5 -3t21 -1t19.5 2.5t14 8.5q14 17 8.5 33
t-19.5 19q-14 4 -22 -6.5t-5 -19.5q1 -5 -2.5 -7.5t-8.5 -2.5t-9 3.5t-4 11.5q0 7 5 16t14 15h-29q-1 -10 -1.5 -12t-0.5 -10z" />
    <glyph glyph-name="f" unicode="f" horiz-adv-x="562" 
d="M520 679h-27v16q0 21 -17 33q-18 15 -53 15q-41 0 -69 -28q-27 -27 -27 -69v-140h62v-40h-62v-182q-19 -3 -37 8q-21 13 -26 27t0 19t13 0.5t17 -6.5t15.5 8t-0.5 18q-6 8 -18 10t-24 -5q-6 -3 -11.5 -8t-7 -12.5t3 -18.5t18.5 -27q13 -15 29.5 -18.5t27.5 -2.5v-57
q-9 3 -17 8.5t-10 10.5t-1.5 10t-4.5 8q-3 1 -7 -6q-2 -4 -3 -9l-13 11l-9.5 9.5t-5.5 9.5q-1 4 -6 9t-10 7t-8 0t2 -12q5 -11 17.5 -21.5t26.5 -19.5q16 -11 34 -21q-33 -2 -51.5 -7t-27.5 -10q-11 -6 -13 -14q16 10 32 13.5t30.5 3.5t26 -2t18.5 -4v-1q-9 2 -24.5 1
t-29.5 -10q-10 -7 -12 -15.5t0.5 -16t8 -13t11.5 -6.5q11 -2 15.5 6.5t-3.5 11.5q-4 1 -8 3t-5.5 5t1.5 7.5t12 10.5q7 4 16 5t18 -1v-106q-6 -8 -13 -14t-15 -7q-20 -2 -28.5 9.5t-3.5 23.5q5 11 16.5 11.5t16.5 -5.5q3 -3 6.5 -2t5.5 4.5t2 8t-6 8.5q-5 4 -14.5 4.5
t-18.5 -3t-15 -11.5t-5 -21q1 -14 4.5 -20.5t8.5 -10.5t12 -5q-3 -3 -4 -6q-2 -6 6 -6q9 -2 16.5 1.5t11.5 7.5q2 2 7 9t10 12q5 -38 51 -38h3v-24h-213v19q-11 5 -12 13t1 15q3 9 10 14.5t15 4.5q8 -2 9.5 -10t-4.5 -12q-5 -4 -11.5 -5.5t-6.5 -6.5q0 -3 5 -8h23
q14 0 14 13v17q-9 2 -11 7t0 13q1 5 4.5 15.5t6.5 18.5v36q-9 2 -11 7t0 13q1 5 4.5 15.5t6.5 18.5v23q-9 2 -11 7t0 13q1 5 4.5 15.5t6.5 18.5v23q-9 2 -11 7t0 13q1 5 4.5 15.5t6.5 18.5v23q-9 2 -11 7t0 13q1 5 4.5 15.5t6.5 18.5v37h-43h-18q-6 -1 -17.5 -4.5
t-18.5 -12.5q-5 -5 -4 -10t2.5 -9.5t1.5 -8.5t-5 -7q-11 -6 -18.5 1.5t-5.5 18.5q1 11 7.5 22.5t19.5 12.5q-8 3 -17 5q-8 2 -17 2t-17 -3q-5 -2 -6 -6t-1 -8.5t-1 -8.5t-4 -7t-7.5 -0.5t-6.5 7.5t-1.5 12.5t7.5 14.5q7 8 13.5 10.5t13.5 2t14 -3t16 -3.5q-7 3 -13 7
l-12 9.5t-13 14.5q-11 15 -7 27.5t13 14.5t13 -5.5t1 -13.5q-4 -5 -2 -15.5t10 -15.5t20.5 -10.5t29.5 -2.5q-10 6 -17 12q-7 5 -12 10.5t-4 10.5q1 10 9.5 9t8.5 -10t6.5 -14t13.5 -6q10 -2 19 1h6h43v40q-9 2 -11 7t0 13l3 11.5t5 15.5q3 9 7 18q11 60 56 104q15 15 36 26
t44.5 18.5t48 11t47.5 3.5q11 0 22.5 -1.5t23.5 -3.5v12v1q-6 6 -6 9q1 2 3 4.5t5 0.5q1 -1 2.5 -2t3.5 -3t3 -5l1 1q2 2 2 4t-4 7.5t-10 2.5q-5 -3 -9 1t-6 9t3.5 12t19.5 0q7 -4 10.5 -10.5t5.5 -12.5q2 -7 3 -15v-1v-105z" />
    <glyph glyph-name="g" unicode="g" horiz-adv-x="575" 
d="M461 153q65 -44 65 -118q0 -35 -19 -69q-18 -36 -52 -64q-77 -66 -191 -66q-39 0 -70 7q-4 16 -0.5 25.5t8.5 11.5q7 2 12 -6t12 -15q8 -6 18.5 -1t8.5 16t-11.5 19t-23.5 8q-7 0 -14 -1t-12.5 -6.5t-7.5 -17t1 -31.5q-49 12 -83 38q1 0 1 0.5t1 0.5q3 3 9 1.5t10 -3.5
q4 -3 5 -7.5t6 -6.5t6 3t-4 14q-6 7 -16 9q-5 1 -11 1q3 3 7 6q8 6 12 10q5 4 7.5 1t4.5 -1q2 4 1 7l-2 4q4 3 13.5 8t16.5 7q6 2 7 -2t-2 -9t3.5 -8.5t13.5 1.5q6 5 3 14.5t-18 12.5q-8 1 -18 -3t-18 -10q-11 -7 -20 -16q1 2 2 6t5 12q3 5 3 13t-8 16q-8 9 -16.5 3
t-8.5 -11q0 -6 5.5 -6.5t5.5 4.5q1 5 6 4.5t9 -7.5q2 -4 -0.5 -8l-5.5 -9l-9 -11q-2 6 -9 11t-18 8t-13 -4.5t-1 -14.5q1 -6 4.5 -3t5.5 8t9.5 3t12.5 -15q3 -5 1 -12t-7 -13q-53 45 -53 115v1q9 -5 17.5 -8t14.5 -6q8 -5 12 1q2 3 2 6q9 1 17 2q7 1 14 1t10 1q6 2 12.5 6.5
t11.5 13.5q3 7 -3 9q-3 1 -7 0q3 6 2 13q-1 6 -5.5 14.5t-16.5 17.5t-23 7.5t-19 -7.5t-12.5 -15t-4.5 -16q1 -7 5 -10t8.5 -3t7.5 2.5t2 6.5q-3 9 3.5 19t20.5 8t20 -17t-7 -32q-7 -9 -19.5 -11.5t-26.5 -1.5q-16 1 -34 5h-1q3 79 94 134q-21 15 -21 35q0 29 56 71
q-74 46 -74 121q0 61 55 106q54 44 131 44q55 0 101 -25q20 12 37.5 21.5t26.5 22.5q3 5 4 9t1 7q0 4 -2 7q-3 -8 -7 -12t-10.5 -5t-14.5 5q-9 6 -10 13t3 14t11 13.5t13 9.5q7 3 14.5 -0.5t14 -11.5t10 -18t2.5 -20q-2 -10 -13 -21.5t-25 -21.5q-16 -12 -35 -24
q28 -18 46 -49q18 -30 18 -64q0 -61 -55 -106q-56 -45 -130 -45q-39 0 -88 17q-23 -15 -23 -27q0 -10 25 -13q12 -2 33.5 -3t53.5 -1q113 0 178 -43zM235 463q-22 -28 -22 -72q0 -36 11 -66q0 2 5 5l4 2v18q0 16 2 24q1 6 5.5 14t12.5 14q8 5 10 -1q1 -3 0 -7q6 4 14 5
q6 1 14.5 -2t18.5 -13t9.5 -20.5t-6.5 -20t-15 -16t-16 -7.5t-10.5 2t-3.5 7.5t2 8t7 3.5q9 -1 19 8t7 22t-18.5 15.5t-32.5 -13.5q-8 -8 -10 -22t0 -27q2 -16 6 -32l9 -15q23 -20 56 -20q35 0 56 27t21 72q0 59 -27 97q-25 37 -72 37q-35 0 -56 -27zM330 -113q59 0 97 34
q3 4 7 7l-2 2q-10 -5 -19 -9q-8 -4 -15 -7t-10 -4q-7 -2 -17.5 -2t-21.5 6q-6 3 -6 5.5t2 4.5q3 2 7 4q-8 5 -12 12q-4 6 -6 16t3 26q5 15 16.5 20.5t24 4.5t24 -7t16.5 -13t3.5 -12t-6 -7.5t-9.5 -2t-7 5.5q-4 10 -18.5 15t-26.5 -5q-11 -10 -5.5 -27.5t31.5 -25.5
q9 -3 20 -0.5t21 8t19 12.5l15 12q10 20 10 46q0 62 -45 95t-128 33q-30 0 -49 0.5t-27 1.5q-25 -16 -41 -44q-15 -27 -15 -58q0 -62 49 -105q49 -42 121 -42z" />
    <glyph glyph-name="h" unicode="h" horiz-adv-x="632" 
d="M589 24v-24h-202v24h43q14 0 14 13v342q0 103 -91 103q-41 0 -77 -30q-18 -15 -20.5 -31t-2.5 -33v-101q-10 -3 -22 -2.5t-25 8.5q-21 14 -26 28t0 19t13 0.5t17 -6.5t15.5 8t-0.5 18q-6 8 -18 10t-24 -5q-6 -3 -11.5 -8t-7 -12.5t3 -18.5t18.5 -27q9 -11 20 -15.5
t20.5 -6t17 -0.5t9.5 1v-62q-2 1 -4 1.5t-4 1.5q-9 3 -18 9t-11 11t-1.5 10.5t-4.5 7.5q-3 1 -7 -6q-2 -4 -3 -9l-13 11l-9.5 9.5t-5.5 9.5q-1 4 -6 9t-10.5 7.5t-8 0t2.5 -12.5q5 -11 17.5 -21.5t26.5 -19.5q16 -11 34 -21q-33 -2 -51.5 -7t-27.5 -10q-11 -6 -13 -14
q20 12 40 15.5t37 1.5q19 -2 37 -8q-10 2 -21 2q-9 0 -19.5 -2t-20.5 -8q-10 -7 -12 -15.5t0.5 -16t8 -13t11.5 -6.5q11 -2 15 6.5t-4 10.5q-4 1 -7.5 3t-5 5t1.5 7.5t12 10.5t21 5.5t23 -3.5v-86q-6 -13 -16 -25.5t-22 -13.5q-20 -2 -29 10t-4 23q5 12 17 12.5t17 -6.5
q3 -3 6.5 -2t5.5 4.5t2 8t-6 8.5q-5 4 -14.5 4.5t-18.5 -2.5t-15.5 -11t-5.5 -21q1 -14 5 -21t9 -11t12 -5q-3 -3 -4 -6q-2 -6 6 -6q9 -1 16.5 2t11.5 7q2 2 6 7l8 10q4 6 10 13q0 -1 1 -1h2q2 -46 52 -46h3v-24h-236v19q-8 5 -8 12.5t2 13.5q2 10 9.5 15t15.5 4t9 -9
t-4 -12q-6 -4 -12.5 -6t-6.5 -7q0 -3 3 -6h22q14 0 14 13v47q-9 2 -11 7t-1 13q2 5 5.5 16t6.5 19v36q-9 1 -11 6t-1 13l5.5 17t6.5 19v22q-9 2 -11 7t-1 13q2 5 5.5 16t6.5 19v22q-9 2 -11 7t-1 13q2 5 5.5 16.5t6.5 19.5v22q-9 2 -11 6.5t-1 12.5l5.5 17t6.5 19v30
q-9 2 -11 7t-1 13q2 5 5.5 16t6.5 19v32q-9 2 -11 6.5t-1 12.5l5.5 17t6.5 19v2q0 19 -9 27t-18 -1l-21 -17l-11 22l132 91q3 13 -1 22q-10 20 -26.5 22t-26.5 -10q-9 -11 -3 -22.5t16 -13.5q5 -1 6 -5t-1.5 -8.5t-7.5 -6.5t-12 1t-13 12t-7.5 19.5t3 21.5t18.5 18t24 7
t16 -2q7 -3 12 -9q2 4 4 7q3 5 10 -2q6 -8 7 -17.5t-1 -15.5q0 -2 -1 -3l55 37l14 -22l-21 -16v-318l24 29.5t30 21.5q38 19 81 19q35 0 54.5 -9t39.5 -29q39 -39 39 -107v-308q0 -47 52 -47h16z" />
    <glyph glyph-name="i" unicode="i" horiz-adv-x="331" 
d="M208 657q0 -26 -17.5 -44t-43.5 -18t-44 18t-18 44t18 43.5t44 17.5t43.5 -17.5t17.5 -43.5zM232 54q-7 -10 -11 -13q-4 -4 -11 -7t-17 -2q-8 0 -6 6q1 3 4 6q-7 1 -12 5t-8.5 11t-4.5 21q-1 13 5.5 21t15.5 11t18.5 2.5t14.5 -4.5t5.5 -8.5t-2 -8t-6 -4.5t-6.5 2
q-5 7 -16.5 6.5t-16.5 -12.5q-5 -11 4 -23t29 -10q9 1 19 11v7v111q-8 0 -14 -1t-11 -5q-10 -6 -12.5 -10.5t-1.5 -7.5t5 -5t8 -3q8 -2 3.5 -10.5t-15.5 -6.5q-6 1 -11.5 6.5t-8 13t-0.5 16t12 15.5q11 8 23.5 9.5t22.5 0.5v3q-17 3 -44 3t-55 -17q2 8 13 14q9 5 27.5 10
t52.5 7q-19 10 -35 21q-14 9 -26.5 19.5t-17.5 21.5q-5 10 -2 12.5t8 0t10.5 -7.5t5.5 -9q1 -5 5.5 -9.5l9.5 -9.5l13 -11q1 5 3 9q4 7 7 6q5 -2 5 -7.5t2 -10.5q1 -4 6 -7.5t12 -7.5v53q-11 1 -24.5 5t-24.5 17q-14 16 -18 27t-2.5 18.5t7 12.5t11.5 8q11 7 23 5t19 -10
t0.5 -18t-15.5 -8t-17.5 6.5t-12.5 -0.5q-5 -5 0 -19t26 -28q12 -8 28 -8v225l22 21l-19 17l-36 -32q4 8 7.5 17l5.5 14q2 6 1 15t-8 18q-6 8 -10 2q-2 -3 -3 -7q-5 5 -12 8q-6 2 -16.5 2t-24.5 -7t-18.5 -17.5t-3 -21.5t8 -20t13.5 -12t11.5 -0.5t7 6.5t1.5 8.5t-6 5.5
q-9 2 -15 13t3 23t26 10t26 -23q5 -10 0.5 -24t-12.5 -26l-136 -99l19 -18l24 20q10 10 18 1q6 -5 8 -16q-3 -8 -7 -20.5l-6 -18.5q-2 -8 0.5 -13.5t13.5 -6.5v-15q-2 -7 -7 -21t-7 -21q-2 -8 0.5 -13.5t13.5 -6.5v-16l-7 -20.5t-7 -21.5q-2 -8 0.5 -13.5t13.5 -6.5v-28
q-2 -7 -7 -21t-7 -21q-2 -8 0.5 -13.5t13.5 -6.5v-47q0 -13 -13 -13h-35q-5 5 -5 8q0 5 6.5 6.5t12.5 5.5q5 4 4 12t-9 10q-8 1 -15 -4.5t-10 -14.5q-2 -7 -2 -14.5t10 -12.5v-20h201h24v24q-41 0 -50 30z" />
    <glyph glyph-name="j" unicode="j" horiz-adv-x="441" 
d="M336 657q0 -26 -18 -44t-44 -18t-43.5 18t-17.5 44t17.5 43.5t43.5 17.5t44 -17.5t18 -43.5zM362 550l-43 -39q4 8 7.5 17t4.5 13q2 6 1 15t-7 18q-7 7 -10 2q-2 -3 -4 -7q-5 6 -12 9q-6 2 -16 1.5t-24 -7.5t-18.5 -17.5t-3 -21.5t7.5 -20t13 -12t12 -0.5t7.5 6.5
t1.5 8.5t-6 5.5q-10 2 -16 13t3 23t26 10t27 -22q5 -11 0.5 -24t-11.5 -25l-142 -92l20 -18l21 17q9 9 18 1q8 -8 8 -23q-2 -8 -6.5 -20.5t-5.5 -18.5q-2 -8 0.5 -13t12.5 -7v-26l-7.5 -20.5t-5.5 -18.5q-2 -8 0.5 -13.5t12.5 -6.5v-18l-7.5 -20.5t-5.5 -19.5q-2 -8 0.5 -13
t12.5 -6v-19l-7.5 -20.5t-5.5 -18.5q-2 -8 0.5 -13t12.5 -7v-18l-7.5 -20.5t-5.5 -18.5q-2 -8 0.5 -13.5t12.5 -6.5v-31l-7.5 -20.5t-5.5 -19.5q-1 -6 0 -11t6 -7q5 -8 5.5 -13.5t-2 -9.5t-6 -7.5t-5.5 -6.5q-11 -14 -28.5 -16.5t-35.5 -2.5q-7 0 -13 1t-13 3q-5 7 -4 11
q2 4 8 3.5t12 1.5t7.5 9t-5.5 10q-6 4 -14 2t-13 -10q-3 -5 -5.5 -10t1.5 -12q-5 2 -9 4.5t-9 6.5l-26 16q-4 2 -12 2q-11 0 -18 -5q-7 -7 -7 -16q0 -18 24 -30q25 -11 62 -11q21 0 46.5 3.5t51 10.5t47.5 17.5t37 24.5q60 55 60 134v43l-2 1q-1 0 -1 1q-6 -7 -10 -13
l-8 -10t-6 -7q-5 -4 -12 -7t-16 -2q-8 0 -6 6q1 3 4 6q-7 1 -12 5t-9 11t-5 21q-1 13 5.5 21t15.5 11t18.5 2.5t14.5 -4.5t5.5 -8.5t-1.5 -8t-5.5 -4.5t-6.5 2q-6 7 -17.5 6.5t-16.5 -12.5q-5 -11 4 -23t29 -10q12 1 22 14t16 26v85q-11 3 -23 3.5t-21 -5.5
q-10 -6 -12.5 -10.5t-1.5 -7.5t5 -5t8 -3q8 -2 3.5 -10.5t-15.5 -6.5q-6 1 -11.5 6.5t-8 13t0 16t12.5 15.5q10 6 20.5 8t19.5 2q11 0 21 -2q-18 6 -37 8q-17 2 -37 -1.5t-40 -15.5q2 8 13 14q9 5 27 10t52 7q-18 10 -34 21q-14 9 -26.5 19.5t-17.5 21.5q-5 10 -2.5 12.5
t8 0t10.5 -7.5t6 -9q0 -5 4.5 -9.5l9.5 -9.5l13 -11q1 5 3 9q4 7 7 6q5 -2 5 -7.5t2 -10.5t11 -11t18 -9q6 -2 8 -3v63v-1q-12 -3 -24 -1q-11 1 -22.5 6t-21.5 16q-14 16 -18 27t-2.5 18.5t7 12.5t11.5 8q11 7 23 5t19 -10t0.5 -18t-15.5 -8t-17 6.5t-13 -0.5t0 -19t26 -28
q13 -8 25.5 -8.5t21.5 2.5v223l24 22z" />
    <glyph glyph-name="k" unicode="k" horiz-adv-x="664" 
d="M629 25v-25h-139l-110 219q-11 21 -28 31.5t-28 10.5q-10 0 -21 -8l-7 -7v-33q-2 1 -3 1t-3 1q-8 4 -17.5 10t-11.5 11t-1.5 10t-4.5 8q-4 1 -8 -6q-2 -4 -3 -9l-13 11l-9.5 9.5t-5.5 9.5q0 4 -5.5 9t-11 7.5t-8 0t2.5 -12.5q5 -11 17.5 -21.5t26.5 -19.5q16 -11 35 -21
q-34 -2 -52.5 -6.5t-27.5 -10.5q-11 -7 -13 -15q20 12 40.5 15.5t37.5 1.5q19 -2 37 -8q-10 3 -21 3q-9 0 -19.5 -2t-20.5 -9t-12.5 -15.5t0 -16t8 -13.5t11.5 -7t10 1.5t6 5.5t1 6.5t-5 4.5t-8 3t-5 5t1.5 7.5t12.5 10.5q8 6 19.5 5.5t22.5 -2.5v-92q-6 -11 -15.5 -22.5
t-20.5 -12.5q-20 -2 -29 10t-4 24q5 11 17 11.5t17 -5.5q3 -3 6.5 -2t5.5 4.5t2 8t-6 8.5q-5 4 -14.5 4.5t-18.5 -3t-15.5 -11.5t-5.5 -21q1 -14 5 -21t9 -11t12 -5q-3 -3 -4 -6q-2 -6 6 -6q9 -2 16.5 1.5t11.5 7.5q2 2 6 7l8 10q4 6 10 13l2 -1q3 -40 52 -40h3v-25h-243v19
q-11 6 -11 13.5t2 14.5q3 10 10 15.5t15 3.5q8 -1 9.5 -9t-4.5 -12q-5 -4 -12 -6t-7 -7q0 -4 6 -7h22q14 0 14 12v50q-10 2 -12.5 7t-0.5 13q1 7 5.5 20l7.5 21v31q-10 1 -12.5 6t-0.5 13q1 7 5.5 20l7.5 21v8h-10q-6 -1 -17.5 -4t-18.5 -12q-5 -6 -4 -11t2.5 -9.5t1.5 -8.5
t-5 -7q-11 -6 -18.5 1.5t-6.5 18.5q2 11 8.5 22.5t19.5 13.5q-8 3 -17 5q-8 2 -17 1.5t-17 -3.5q-5 -2 -6 -5.5t-1.5 -8l-1 -9t-4.5 -7.5q-3 -3 -7.5 -0.5t-6.5 8t-1.5 12.5t7.5 15q8 8 14.5 10.5t13 2t14 -3t16.5 -3.5q-6 3 -13 7q-6 4 -13 9.5t-13 14.5q-11 15 -7 27.5
t13 14.5q10 2 14 -5.5t0 -12.5q-3 -6 -1.5 -16.5t9.5 -15.5t21 -10.5t31 -3.5l-18 13q-7 5 -12.5 11t-4.5 11q2 9 10.5 8.5t8.5 -10.5q0 -9 6.5 -14t13.5 -6q2 0 3 -0.5t3 -0.5q2 8 5.5 17l5.5 14v18q-10 1 -12.5 6t-0.5 13q1 7 5.5 20.5t7.5 20.5v18q-10 1 -12.5 6t-0.5 13
q1 7 5.5 20.5t7.5 20.5v26q-10 1 -12.5 6t-0.5 13q1 7 5.5 20l7.5 21v27q-10 1 -12.5 6.5t-0.5 13.5q1 7 5.5 19.5l7.5 20.5q-2 16 -9 23q-9 8 -18 -1l-17 -16l-19 18l141 91q6 11 10 23t-1 21q-10 21 -27 23t-26 -10t-3 -23.5t16 -13.5q4 -1 5 -5t-1.5 -8t-7 -6.5
t-11.5 0.5t-13.5 12t-8 20t3 21.5t18.5 17.5t24.5 7.5t16.5 -1.5q7 -3 12 -9q2 4 4 7q3 5 10 -2q6 -9 7 -18t-1 -15q-1 -4 -4 -11t-6 -15l50 36l19 -17l-21 -20v-465q-9 -2 -20.5 -2t-24.5 8q-21 14 -26 28t0 19t13 1t17 -6t15.5 8t-0.5 18q-6 8 -18.5 10t-23.5 -5
q-6 -3 -11.5 -8t-7 -12.5t2.5 -19t18 -27.5q9 -10 19 -14.5t19.5 -6t17 -1t10.5 0.5v-9l141 125q14 12 20.5 20.5t9 15t2 11.5t-0.5 11q1 12 -6 14t-20 2h-12v25h154v-25h-12q-26 0 -42 -16l-178 -175q66 0 121 -104l60 -113q31 -58 83 -58h13z" />
    <glyph glyph-name="l" unicode="l" horiz-adv-x="364" 
d="M323 25v-25h-256v18q-10 6 -10.5 13.5t1.5 14.5q3 10 10.5 15t15.5 4t9 -9t-4 -12q-6 -4 -12.5 -6t-6.5 -7q0 -3 4 -6h23q14 0 14 12v48q-14 3 -11 19q1 6 4.5 16.5t6.5 18.5v37q-14 3 -11 20q1 5 4.5 15.5t6.5 18.5v24q-14 3 -11 20q1 5 4.5 15.5t6.5 18.5v24
q-14 3 -11 20q1 5 4.5 15.5t6.5 18.5v24q-14 3 -11 20q1 5 4.5 15.5t6.5 18.5v32q-14 3 -11 20q1 5 4.5 15.5t6.5 18.5v34q-8 1 -10.5 6t-0.5 13q1 5 4.5 15.5t6.5 18.5q-2 18 -9 25q-9 8 -18 -1l-25 -13l-19 17l152 101q8 12 12.5 25t-0.5 24q-10 20 -27 22t-27 -10
q-9 -11 -3 -22.5t16 -13.5q5 -1 6 -5t-1.5 -8.5t-7.5 -7t-12 0.5t-13 12t-7.5 20t3 22t18.5 18t24.5 7t16.5 -2q7 -3 12 -9q1 4 3 7q4 6 10 -2q7 -8 8 -17.5t-1 -15.5l-6.5 -16t-8.5 -19l73 48l15 -27l-28 -22v-485q-10 -3 -22.5 -3t-26.5 9q-21 13 -26 27t0 19q4 5 12.5 1
t17.5 -6t15.5 8t-0.5 18q-6 8 -18.5 10t-23.5 -5q-6 -3 -11.5 -8t-7 -12.5t2.5 -19t18 -27.5q10 -11 21.5 -15.5t22.5 -5.5q12 -1 25 1l1 1v-33v-10v-22q-6 2 -10 4q-9 3 -18 9t-11 11t-1.5 10.5t-4.5 7.5q-4 2 -8 -6q-2 -4 -3 -9l-13 11l-9.5 9.5t-5.5 9.5q-1 4 -6 9.5
t-10.5 7.5t-8 0t2.5 -12q5 -11 17.5 -22t26.5 -20q16 -11 35 -21q-34 -2 -52.5 -7t-27.5 -10q-11 -6 -13 -14q20 12 40 15t37 1q19 -2 38 -8q-10 3 -21 3q-9 0 -20 -2t-21 -9t-12 -15.5t0.5 -16t8 -13t11.5 -6.5q11 -2 15.5 6.5t-3.5 11.5q-4 1 -8 3t-5 5t1.5 7.5t12.5 10.5
q9 6 22 5.5t24 -4.5v-82q-5 -13 -15.5 -27.5t-24.5 -16.5q-20 -2 -29 10t-4 24t16.5 12t17.5 -6q3 -3 6.5 -2t5.5 4.5t2 8t-6 8.5q-5 4 -14.5 4.5t-18.5 -2.5t-15.5 -11t-5.5 -21q1 -14 5 -21.5t9 -11.5t12 -5q-3 -2 -4 -5q-2 -6 6 -7q9 -1 16.5 2t11.5 8q2 2 6 6.5t8 9.5
q4 6 10 13q1 -1 2 -1h4q0 -23 6.5 -34t32.5 -11h16z" />
    <glyph glyph-name="m" unicode="m" horiz-adv-x="809" 
d="M766 25v-25h-150v19q-12 5 -12.5 13t1.5 16q3 9 10 14.5t15 4.5q8 -2 9.5 -10t-4.5 -12q-5 -4 -12 -6t-7 -7q0 -4 6 -7h24q13 0 13 12v358q0 45 -19 68q-6 6 -10 9h-8t-7 -2q-19 -8 -20.5 -23.5t9.5 -23.5t20.5 -2t11.5 14q1 4 4.5 5t7.5 -1t6 -6.5t-1 -10.5t-10.5 -11.5
t-17 -7t-19.5 2.5t-16 16q-6 13 -6.5 22t1.5 14q3 6 8 10q-4 1 -6 3q-4 4 2 9q6 4 9 5q-4 1 -15 1q-38 0 -72 -30t-34 -65v-319q0 -47 52 -47h16v-25h-177v18q-13 6 -13.5 14t1.5 16q3 9 10 14.5t15 4.5q8 -2 9.5 -10t-4.5 -12q-5 -4 -11.5 -5.5t-6.5 -6.5t6 -8h24
q14 0 14 12v358q0 43 -20 68q-20 23 -56 23q-33 0 -59 -20q14 2 26 -12q9 -11 11.5 -19.5t1.5 -14.5q-1 -7 -5 -12q3 0 6 -1q6 -2 1 -9q-6 -8 -13.5 -10.5t-13.5 -2.5q-3 0 -9.5 0.5t-13.5 1.5q-8 1 -16 3q-1 -3 -3 -5t-4.5 -2t-6.5 4q-5 5 -8 7q0 -1 -0.5 -1.5t-0.5 -1.5
v-101q-10 -3 -22.5 -3t-26.5 9q-21 13 -26 27t0 19t13 1t17 -6t15.5 8t0.5 18q-7 8 -19 10t-24 -5q-6 -3 -11.5 -8t-7 -12.5t2.5 -19t18 -27.5q10 -11 21.5 -15.5t22.5 -5.5q12 -1 25 1l1 1v-34v-7v-24q-6 2 -10 4q-8 3 -17.5 9t-11.5 11t-1.5 10.5t-4.5 7.5q-4 2 -8 -6
q-2 -4 -3 -9l-13 11l-9.5 9.5t-4.5 9.5q-1 4 -6.5 9.5t-10.5 7.5t-8 0t2 -12q5 -11 17.5 -22t26.5 -20q16 -11 35 -21q-38 -2 -57 -8t-27 -12q-1 -2 -1 -4t-1 -4q19 11 38 13t35 0q18 -2 35 -8q-10 3 -21 3q-9 0 -19.5 -2t-20.5 -9t-12 -15.5t0.5 -16t8 -13t11.5 -6.5
q11 -2 15.5 6.5t-3.5 11.5q-4 1 -8 3t-5.5 5t1.5 7.5t12 10.5t22 5.5t24 -4.5v-82q-5 -13 -15.5 -27.5t-24.5 -16.5q-20 -2 -29 10t-4 24t17 12t17 -6q3 -3 6.5 -2t5.5 4.5t2 8t-6 8.5q-5 4 -14.5 4.5t-18.5 -2.5t-15.5 -11t-5.5 -21q1 -14 5 -21.5t9 -11.5t12 -5
q-3 -2 -4 -5q-2 -6 6 -7q9 -1 16.5 2t11.5 8q2 2 6 6.5t8 9.5q4 6 10 13q1 -1 2 -1h4q0 -23 6.5 -34t32.5 -11h16v-25h-229v18q-13 6 -13.5 14t1.5 16q3 9 10 14.5t15 4.5q8 -2 9.5 -10t-4.5 -12q-5 -4 -12 -6t-7 -7q0 -4 6 -7h24q14 0 14 12v48q-11 0 -13.5 5.5t-0.5 13.5
q1 4 3 10t4 13t4 12.5t3 8.5v28q-11 1 -13.5 6.5t-0.5 13.5t7 23l7 21v14q-11 1 -13.5 6.5t-0.5 13.5t7 23l7 21v14q-11 1 -13.5 6.5t-0.5 13.5q1 6 5.5 19l7.5 21q-1 10 -8 15q-9 9 -18 0l-24 -19l-20 17l135 100q6 11 9 22.5t-1 19.5q-10 21 -27 23t-26 -10t-3 -23.5
t16 -13.5q5 -1 5.5 -5t-1.5 -8.5t-7 -6.5t-12 1t-13.5 12t-8 19.5t3 21.5t19.5 18q14 7 24 7.5t16 -1.5q7 -3 12 -9q2 4 4 7q3 5 10 -2q6 -9 7 -18t-1 -16q-1 -3 -4.5 -11t-6.5 -16l55 40l20 -17l-24 -25v-56q14 15 30 27.5t36 22.5q20 11 39.5 15.5t38.5 5.5q31 0 57 -20.5
t40 -61.5q12 17 27 31t36 26q22 12 35.5 16t33.5 4q25 0 46 -11t38 -29q17 -17 21 -37t4 -52v-323q0 -24 6.5 -35.5t32.5 -11.5h16zM290 449q-12 5 -20.5 -2.5t-8.5 -16.5q1 -7 -7.5 -6.5t-11.5 8.5q-8 -15 -11 -27q14 -5 31.5 -8.5t27.5 4.5q16 13 14 28t-14 20z" />
    <glyph glyph-name="n" unicode="n" horiz-adv-x="594" 
d="M559 25v-25h-137v20q-12 5 -13 13t1 15q3 10 10.5 15.5t15.5 3.5q8 -1 9 -9t-4 -12q-6 -4 -12.5 -6t-6.5 -7t7 -8h22q14 0 14 12v345q0 107 -117 104q-22 0 -38 -10q12 -2 20 -12q9 -11 11.5 -19.5t1.5 -14.5q-1 -7 -5 -12q3 0 6 -1q6 -2 1 -9q-6 -8 -13.5 -10.5
t-13.5 -2.5q-3 0 -9 1t-13 2q-8 1 -16 3q-1 -3 -3 -5t-4.5 -2.5t-6.5 3.5q-3 3 -7.5 6t-9.5 7q-1 -5 -1.5 -9.5t-0.5 -9.5v-102q-10 -2 -22.5 -1.5t-25.5 8.5q-21 13 -26.5 27t-0.5 19t13.5 1t17.5 -6t15.5 8t-0.5 18q-6 8 -18.5 10t-23.5 -5q-6 -3 -11.5 -8t-7 -12.5
t2.5 -19t18 -27.5q10 -11 21.5 -15.5t22.5 -5.5q12 -1 25 1v-64q-2 1 -4.5 2t-4.5 2q-9 3 -18 9t-11 11t-2 10.5t-5 7.5q-3 2 -7 -6q-2 -4 -3 -9l-13 11l-9.5 9.5t-5.5 9.5q-1 4 -6 9.5t-10.5 7.5t-8 0t2.5 -12q5 -11 17.5 -22t26.5 -20q16 -11 35 -21q-42 -2 -61 -8.5
t-26 -13.5q0 -3 -2 -7q20 11 39.5 13.5t35.5 0.5q18 -2 36 -8q-10 3 -21 3q-9 0 -20 -2t-21 -9t-12 -15.5t0.5 -16t8 -13t11.5 -6.5q11 -2 15.5 6.5t-3.5 11.5q-4 1 -8 3t-5 5t1.5 7.5t12.5 10.5q9 6 21 5.5t24 -3.5v-87q-7 -12 -17 -25t-22 -15q-20 -2 -29 10t-4 24
t16.5 12t17.5 -6q3 -3 6.5 -2t5.5 4.5t2 8t-6 8.5q-5 4 -14.5 4.5t-18.5 -2.5t-15.5 -11t-5.5 -21q1 -14 4.5 -21.5t8.5 -11.5t12 -5q-2 -2 -3 -5q-2 -6 6 -7q9 -1 16.5 2t11.5 8q2 2 6 6.5t8 9.5q4 6 10 13q0 -1 1 -1h3q1 -45 52 -45h3v-25h-229v17q-11 5 -11.5 13t1.5 15
q3 10 10 15t15 4t9.5 -9t-3.5 -12q-6 -4 -12.5 -6t-6.5 -7q0 -4 2 -5h26q13 0 13 12v48q-11 0 -13.5 5.5t-0.5 13.5q1 4 3 11t4.5 14l4.5 13t2 8v26q-11 1 -13.5 6.5t-0.5 13.5q1 4 3 10.5t4.5 13.5l4.5 13t2 8v13q-11 1 -13.5 6.5t-0.5 13.5q1 4 3 10.5t4.5 13.5l4.5 13
t2 8v13q-11 1 -13.5 6.5t-0.5 13.5q1 7 5.5 20l7.5 21q-1 8 -7 14q-10 9 -19 0l-25 -18l-15 16l121 89q6 12 10 24t-1 22q-10 21 -27 22.5t-26 -9.5q-9 -12 -3 -23.5t16 -13.5q5 -1 5.5 -5t-1.5 -8.5t-7 -7t-12 0.5t-13 12t-8 20t2.5 22t19.5 18q14 7 24 7t17 -2q7 -3 12 -9
q1 4 3 7q4 6 10 -2q7 -8 7.5 -17t-1.5 -16q-1 -4 -5 -13.5t-7 -17.5l64 48l20 -18l-22 -21v-56q14 16 26.5 28t32.5 21q20 10 38 16t39 6q35 0 55 -9.5t40 -29.5q39 -39 39 -108v-310q0 -24 6.5 -35.5t32.5 -11.5h3zM317 459q-12 5 -20.5 -2.5t-7.5 -15.5q0 -8 -9 -7.5
t-11 9.5q-11 -12 -17 -25q6 -3 15 -6t18.5 -4.5t18 -1t14.5 5.5q16 12 13.5 27t-14.5 20z" />
    <glyph glyph-name="o" unicode="o" horiz-adv-x="724" 
d="M596 455q92 -78 92 -194q0 -53 -24 -102q-22 -49 -66 -88q-93 -82 -231 -82q-100 0 -178 43q-1 11 2 18.5t8 8.5q7 2 12 -6.5t13 -14.5q7 -6 17.5 -1t9.5 16q-2 11 -12 19t-24 9q-6 0 -12.5 -1t-12 -5.5t-8.5 -13t-2 -23.5l-21.5 14t-20.5 15q-12 11 -22 21.5t-19 21.5
q2 1 3.5 2t2.5 1q5 2 10.5 -1t9.5 -7t3.5 -9.5t4.5 -7.5q5 -3 7.5 1.5t-0.5 15.5q-4 8 -15 14q-5 3 -12 4q5 1 9 4q4 2 8.5 4t7.5 4q7 3 8.5 -0.5t4.5 -1.5q2 1 2 7v5q5 2 17 5t19 4q7 0 7.5 -4.5t-4.5 -9.5t1.5 -10.5t14.5 -1.5q8 3 7.5 14.5t-16.5 17.5q-8 3 -19.5 1.5
t-22.5 -5.5q-12 -4 -26 -11q1 3 4 6q2 2 4.5 5t4.5 6q4 5 6.5 13t-4.5 19q-7 12 -17.5 8t-12.5 -10q-1 -6 4.5 -8t7.5 3t7.5 3t7.5 -10q1 -5 -2.5 -9.5t-8.5 -8.5t-12 -9q0 8 -7 15t-18 13q-10 6 -14 -1.5t-6 -14.5q-1 -8 4 -5.5t8 7.5q4 5 11.5 1t10.5 -20q1 -7 -4.5 -14.5
t-12.5 -13.5q-37 52 -43 116l17 -7.5t13 -5.5q8 -5 12 1q2 3 2 6l18 2q7 1 14 1t10 1q6 2 13 6.5t11 13.5q3 7 -3 9q-3 1 -7 0q3 6 2 14q-1 6 -5.5 14.5t-16.5 17.5t-23 7.5t-19.5 -8t-13 -15.5t-4.5 -16q1 -7 5 -10t8.5 -3t7.5 2.5t2 7.5q-3 8 4 18.5t21 8.5t20 -17.5
t-7 -32.5q-7 -9 -20 -11.5t-27 -1.5q-16 1 -34 5q-1 5 -1 9v9q0 52 23 103q24 49 66 87q94 82 232 82q136 0 229 -78zM607 209q13 111 -43 193q-56 81 -152 92q-81 11 -143 -42q6 2 14 3t17 -3t5 -8q-2 -2 -6 -4q8 -3 13 -9q5 -5 7 -13.5t0 -22.5t-11 -20t-20.5 -6.5t-22 3
t-15.5 8.5t-4.5 10t4 7.5t8 3t6.5 -3.5q5 -8 18 -11.5t22 7.5t1.5 25t-30.5 18q-8 2 -15.5 -1t-15.5 -8q-39 -46 -46 -113q-12 -113 43 -193q54 -81 152 -93q7 -1 13 -1h13l3 4q10 13 18 25q6 11 10.5 23t0.5 23q-3 11 -6.5 14.5t-7 3t-6.5 -4t-5 -6.5q-5 -7 -12 -1t-2 17
q2 5 9 9t15 5t16 -3.5t12 -15.5t3 -22t-3 -20q-3 -11 -8 -20q11 16 17 34q5 16 7.5 36.5t-4.5 43.5q7 -5 11 -17q3 -11 3.5 -30t-7.5 -52q14 16 29 29q12 11 26.5 20.5t25.5 11.5q12 2 13.5 -1t-2 -7.5t-10 -8t-10.5 -3.5q-5 0 -11 -3t-12 -7q-7 -4 -14 -10q4 -2 8 -5
q7 -5 4 -8q-4 -4 -8.5 -3t-10.5 1t-14 -7.5t-13 -15.5l-6 -8t-5 -7q-3 -4 -5 -7q1 0 3 1t10 3q14 6 28 14t27 19q62 51 71 138z" />
    <glyph glyph-name="p" unicode="p" horiz-adv-x="748" 
d="M686 366q22 -48 22 -105q0 -56 -22 -104q-22 -50 -64 -89q-88 -79 -211 -79q-96 0 -166 45v-61q-3 -6 -6.5 -14t-8.5 -15.5t-11 -12.5t-13 -6q-19 -2 -27.5 10t-3.5 24t16 12.5t16 -6.5q3 -3 6 -2t5.5 4.5t2 8t-5.5 8.5t-14 4.5t-17.5 -2.5t-14.5 -11t-5 -21
q1 -14 4.5 -21.5t8.5 -11.5t11 -5q-3 -3 -4 -6q-2 -6 6 -6q8 -1 15 2t11 7q2 2 5.5 7t7.5 10q4 6 10 13q1 -1 2 -1t1.5 -0.5t2.5 0.5v-34q0 -47 49 -47h3v-25h-226v17q-9 5 -9.5 12.5t1.5 14.5q7 22 24 19q7 -1 8.5 -9t-4.5 -12q-5 -4 -11 -6t-6 -7q0 -2 2 -4h23q13 0 13 12
v35q-14 3 -11 20q1 5 4.5 15.5t6.5 18.5v38q-14 3 -11 19q1 5 4.5 15.5t6.5 18.5v25q-14 3 -11 20q1 5 4.5 15.5t6.5 18.5v25q-14 3 -11 19q1 5 4.5 15.5t6.5 18.5v25q-14 3 -11 20q1 5 4.5 15.5t6.5 18.5v32q-14 3 -11 20q1 5 4.5 15.5t6.5 18.5v9q0 10 -0.5 15.5t-4.5 9.5
q-9 9 -18 0l-27 -21l-18 18l133 99q8 13 12.5 27t-0.5 25q-9 21 -25 23t-24 -10q-9 -12 -3 -23.5t15 -13.5q4 -1 5 -5t-1 -8.5t-7 -7t-11 0.5t-12 12.5t-7.5 20.5t2.5 21.5t18 17.5q13 7 22.5 7.5t15.5 -1.5q7 -3 11 -9q1 4 3 7q3 5 9 -2q6 -9 7 -18t-1 -16l-6.5 -17
l-7.5 -20l56 42l18 -18l-21 -21v-31q75 45 166 45q130 0 214 -80q41 -39 61 -87zM564 82q62 57 62 151q0 111 -66 186q-68 75 -167 75q-59 0 -106 -26q-42 -24 -42 -46v-7q8 -12 19 -23.5t23 -10.5q20 1 27 15t0 26q-7 13 -18 11.5t-16 -9.5q-2 -4 -6 -3t-6.5 4.5t-3 8.5
t4.5 10t14.5 7t19 0t16.5 -10t8 -23t-2 -23.5t-7 -13.5t-11 -7l4 -6q1 -2 1 -4t-5 -4q-9 -2 -17 0t-12 6q-5 4 -16 16q-5 6 -12 13q0 -1 -1 -1t-2 -0.5t-2 -0.5v-139q-9 -3 -21.5 -3.5t-25.5 8.5q-20 14 -25 28t0 19t12.5 1t15.5 -6q9 -2 15 8t0 18t-17.5 10t-22.5 -5
q-6 -3 -11 -8t-6.5 -12.5t2.5 -19t17 -27.5q9 -11 20 -16t21 -6q11 -2 23 1l3 3v-79q0 -2 0.5 -5t0.5 -5q-2 2 -5 3t-5 3q-8 5 -15.5 12.5t-8.5 12.5q-1 6 0 10.5t-3 8.5q-4 3 -8 -5l-4 -8q-7 6 -11 12q-4 5 -7.5 11t-3.5 11q0 4 -4 10t-8.5 9t-7 1t0.5 -13t13.5 -24
t21.5 -24q13 -13 29 -26q-32 4 -49.5 2.5t-26.5 -6.5q-11 -5 -14 -13q20 9 39 9t34 -4q18 -4 34 -14q-9 4 -19 6q-8 2 -18.5 1.5t-20.5 -5.5t-13 -13.5t-2 -16.5t5.5 -14.5t9.5 -8.5q11 -3 15.5 4.5t-1.5 11.5l-6.5 4.5t-4.5 6t2 7t13 8.5q9 4 19.5 2t20.5 -6.5t17.5 -9.5
t9.5 -7q13 -20 36 -36q53 -41 128 -41h16l6 7q9 13 16 25q6 11 10 23t1 23t-6.5 14.5t-6.5 3t-6 -4t-5 -6.5q-4 -7 -11 -1t-2 17q2 6 8.5 10t14 4.5t14.5 -4t11 -15.5t3 -22t-3 -20q-3 -11 -7 -20q10 16 16 34q5 16 7.5 36.5t-4.5 43.5q6 -4 10 -16q3 -11 3 -30.5t-7 -51.5
q13 15 27 28q11 11 24.5 21t24.5 12q10 2 11.5 -1.5t-2 -8t-9 -8t-9.5 -3.5q-5 0 -10.5 -2.5t-10.5 -6.5q-6 -4 -13 -10q4 -2 7 -5q2 -2 4 -4.5t0 -4.5q-4 -4 -8.5 -3t-9.5 1t-12.5 -7.5t-12.5 -15.5q-3 -4 -5.5 -8l-4.5 -7q-3 -4 -5 -7q1 1 4 2q2 1 10 3q16 7 30.5 16
t27.5 22z" />
    <glyph glyph-name="q" unicode="q" horiz-adv-x="736" 
d="M691 -139v-25h-147v199q-80 -46 -179 -46q-97 0 -173 38q-3 15 0.5 24.5t8.5 11.5q6 2 11 -6.5t13 -14.5q4 -3 9 -3t9.5 2t7.5 6.5t2 9.5q-2 11 -12 19t-24 8q-7 0 -14 -1t-12.5 -6.5t-8 -16t0.5 -28.5q-13 7 -25 14.5t-23 17.5q-10 8 -18 16l-16 16q3 2 5 4t4 3
q4 2 10 -0.5t11 -7.5q5 -4 6 -9.5t6 -7.5t6.5 2.5t-3.5 15.5q-3 5 -8 8.5t-10 5.5q-6 2 -12 3q4 2 8 5q6 4 13 8q5 4 7.5 0t5.5 -2q2 2 0 8q-1 3 -2 5q5 2 15.5 5.5t17.5 4.5t8.5 -4t-2.5 -10q-3 -5 4 -10.5t14 -1.5t4 15.5t-20 17.5q-8 3 -18.5 0.5t-20.5 -6.5
q-11 -5 -23 -12l3 6l6 12q2 5 2.5 13t-9.5 20q-9 11 -18 7t-9 -11q0 -6 6 -8t6 4q1 5 6.5 3t9.5 -10q2 -5 0 -10t-5 -9q-4 -5 -10 -9q-5 15 -31 27q-11 5 -13.5 -2.5t-1.5 -14.5q1 -8 5 -5t6 8t10.5 1t14.5 -20q4 -8 -1 -16.5t-11 -15.5q-46 58 -49 136q10 -5 19.5 -8.5
t15.5 -6.5q8 -5 12 1q2 3 2 6q9 0 17 1q7 1 14 1.5t10 1.5q6 2 13 6.5t12 13.5q3 7 -3 9q-3 1 -7 0q3 7 2 14q-1 6 -5.5 14t-16.5 17t-23 8t-19.5 -7.5t-13 -15.5t-4.5 -16t4.5 -10t9 -3t7.5 2.5t2 6.5q-3 9 4 19.5t21 7.5q14 -2 20 -17t-7 -32q-7 -9 -20 -11.5t-27 -1.5
q-16 1 -34 5l-5 1v3q0 56 24 109q26 53 69 91q46 40 104 61q60 21 124 21q113 0 190 -52l55 50q5 10 6.5 19.5t-1.5 17.5q-10 21 -27 22.5t-27 -10.5q-9 -11 -3 -22.5t16 -13.5q5 -1 6 -5.5t-1.5 -8.5t-7.5 -6.5t-12 0.5t-13 12t-8 20t2.5 22t19.5 18q14 7 24.5 7t16.5 -2
q7 -3 12 -9q2 4 4 7q4 6 10 -2t7 -17.5t-1 -15.5q-1 -2 -3 -7.5l-4 -10.5l27 24l19 -18l-37 -33v-611q0 -24 7 -35.5t33 -11.5h16zM544 355q0 57 -51 98q-50 41 -117 41q-50 0 -92 -28v-1q-2 -14 -2 -25t2.5 -21t10.5 -16q15 -12 18 -6.5t3 12.5t7.5 6t9.5 -10q1 -5 -2 -11
t-8.5 -10t-12.5 -4.5t-15 5.5t-12.5 13.5t-6.5 15.5q-3 8 -4 17q-1 -15 3 -31q3 -14 11 -29t23 -27q-7 0 -15 6q-7 5 -15.5 18.5t-18.5 39.5q-3 -17 -7 -32q-4 -13 -9 -26t-12 -20q-7 -6 -9.5 -4.5t-2 6t3 10t5.5 7.5q7 3 12 16q3 6 5 13q-4 -1 -8 0q-3 0 -5.5 1.5t-1.5 3.5
q2 4 5.5 5.5t7.5 3.5q4 3 6 11.5t2 16.5q1 6 1 11.5t1 8.5q-1 -1 -1.5 -1t-1.5 -1q-56 -62 -56 -158q0 -110 60 -180q59 -71 153 -71q29 0 53 7l14 9.5t15.5 12.5t12.5 14.5t5 15.5q-1 22 -15 29.5t-26 0.5q-13 -7 -11.5 -19.5t9.5 -17.5q4 -2 3 -6t-4.5 -7t-8.5 -3t-10 5
t-7 15t0 20.5t10 18t23 8.5t23.5 -2t13.5 -8t7 -12q2 3 5 4q7 2 9 -5q2 -10 -0.5 -18t-6.5 -13q-2 -2 -6 -6.5t-8.5 -9l-8.5 -8.5l-5 -5q3 2 5.5 3t5.5 3q39 24 39 46v254z" />
    <glyph glyph-name="r" unicode="r" horiz-adv-x="494" 
d="M438 594q7 -4 10.5 -10t5.5 -12q2 -7 3 -16v-25v-130h-28v13q0 21 -1.5 35.5t-11.5 26.5t-20.5 13.5t-27.5 1.5q11 -9 10 -17t-6 -15q-5 -8 -13.5 -10t-15.5 1q-6 3 -5 11t7 10q7 2 13 1.5t8 3.5q2 7 -9 15q-33 -3 -64 -31q-34 -30 -34 -67v-101q-9 -2 -20 -1t-22 8
q-21 14 -26 28t0 19t13 1t17 -6t15.5 8t0.5 18q-7 8 -19.5 10t-23.5 -5q-6 -3 -11.5 -8t-7 -12.5t2.5 -19t18 -27.5q15 -17 34 -20t29 -2v-60q-1 0 -1.5 0.5t-1.5 0.5q-8 3 -17.5 9t-11.5 11q-2 6 -1.5 11t-4.5 7q-4 2 -8 -6q-2 -4 -3 -8l-13 11l-9.5 9.5t-5.5 9.5
q-1 4 -6 9t-10.5 7.5t-8 0t2.5 -12.5q5 -11 17.5 -22t26.5 -20q16 -11 35 -21q-34 -2 -52.5 -7t-27.5 -10q-11 -6 -13 -14q18 11 36 14.5t33.5 3t27 -3.5t16.5 -5q-7 2 -24.5 2t-34.5 -11q-10 -7 -12.5 -15.5t0 -16t8 -13t11.5 -6.5q12 -2 16 6.5t-3 10.5q-4 1 -8 3.5
t-5.5 5.5t1 7.5t12.5 10.5q8 5 18 5t21 -2v-100q-7 -11 -15 -19t-18 -9q-20 -2 -29 10t-4 24q5 11 17 11.5t17 -6.5q3 -3 6.5 -1.5t5.5 5t2 8t-6 8.5q-5 4 -14.5 4.5t-18.5 -3t-15.5 -11.5t-5.5 -21q1 -14 5 -21.5t9 -11.5t12 -5q-3 -2 -4 -5q-2 -6 6 -7q9 -1 16.5 2t11.5 8
q3 3 10.5 12.5l11.5 14.5q2 -44 52 -44h3v-25h-243v21q-8 5 -8 12t2 14q3 9 10.5 14.5t15.5 4.5q8 -2 9.5 -10t-4.5 -12t-12.5 -6t-6.5 -7q0 -3 4 -6h20q14 0 14 12v48q-12 0 -15 6t-1 14q1 5 3 12t5 15q3 9 7 19l1 -1v27q-12 0 -15 5.5t-1 14.5l3 11.5t5 15.5q3 9 7 19
l1 -2v14q-12 0 -15 6t-1 14q1 5 3 12t5 15q3 9 7 19l1 -1v14q-12 0 -15 5.5t-1 14.5q1 7 6.5 21.5t7.5 21.5q-4 10 -7 13q-10 8 -19 -1l-26 -21l-20 18l160 113q5 11 7.5 21.5t-1.5 18.5q-9 21 -26.5 23t-26.5 -10t-3 -23.5t16 -13.5q5 -1 5.5 -5t-1.5 -8.5t-7 -7t-12 0.5
t-13.5 12t-8 20t3 22t19.5 18q14 7 24 7.5t17 -1.5q7 -3 12 -9q1 4 3 7q4 6 10 -2q7 -9 8 -18t-1 -16q-2 -3 -5 -10.5l-6 -15.5l53 38l13 -29l-22 -21v-57q25 29 67 51q39 20 75 20q13 0 16.5 -1t11.5 -3v20v3h1v1q-8 4 -6 8q1 3 3 5.5t4 0.5q3 -2 6 -6q2 -3 4 -5q0 1 1 2
q2 2 2 4t-4 8t-10 2q-5 -3 -9 1.5t-6 9.5t3.5 12t19.5 -1z" />
    <glyph glyph-name="s" unicode="s" horiz-adv-x="498" 
d="M426 213q4 4 10 8t12 9q5 -11 8 -22.5t3 -22.5q0 -30 -2.5 -55.5t-13.5 -47.5q0 1 -2 7q-2 11 1 17.5t7 11.5t-3 10t-13 0q-3 -2 -4 -7.5t-1 -10.5q0 -6 2 -13q-2 2 -4 5l-9 9q-5 5 -10 11.5t-4 11.5q1 4 2 7t-1 6q-3 3 -7 -1q-2 -2 -4 -5q-3 6 -6 11q-6 11 -4 17
q1 3 -1 8t-5 8t-5.5 2.5t-2.5 -8.5q0 -9 5.5 -20t12.5 -22q8 -12 17 -24q-23 9 -37 11.5t-22 1.5q-9 -1 -13 -6q17 2 31.5 -2t25.5 -10q12 -7 23 -17q-6 4 -13 8q-6 3 -14.5 5t-16.5 0q-9 -2 -12.5 -7t-4.5 -11t1.5 -11.5t5.5 -7.5q7 -5 12.5 -0.5t0.5 9.5q-4 4 -6 9.5
t14 7.5q8 2 16.5 -2.5t15.5 -10.5q8 -7 16 -16l3 -4q-10 -12 -22 -21q-11 -8 -24 -14.5t-28 -11.5q5 11 2 22q-8 27 -21 28.5t-24 -2.5q-11 -5 -16 -12t-3 -14t12 -7t14 6t5.5 12t7.5 7q5 1 12.5 -7t5.5 -25q-2 -6 -4 -10q-32 -9 -64 -14t-64 -5q-44 0 -72 10.5t-57 33.5
t-40.5 50t-11.5 62q0 26 10 45t27 32q10 8 26 14t31.5 6.5t29.5 -5t20 -20.5q10 -23 2 -44.5t-22 -27.5t-25.5 0t-11.5 17q0 5 4 9.5t9.5 7.5t11 3t9.5 -4q5 6 8 12q2 5 2.5 11t-4.5 13q-5 6 -13.5 8t-18.5 1.5t-19 -4t-14 -8.5q-17 -17 -22.5 -30t-5.5 -30q0 -20 5 -33.5
t13 -24.5q-1 3 -1.5 7t1.5 9q1 5 6 3q2 -1 4 -4q2 4 6 8q4 3 10.5 5t17.5 1q11 -2 16 -8t6.5 -13.5t-0.5 -14.5t-6 -10q-8 -7 -14 -0.5t0 9.5q6 4 7.5 12.5t-7.5 14.5q-8 5 -18.5 0.5t-12.5 -20.5q-1 -10 9 -20q2 -2 3 -2q29 -21 55 -31t65 -5q38 5 56.5 26t24.5 45.5
t4.5 47.5t-2.5 32q-2 9 -7.5 24t-15.5 30.5t-23.5 29.5t-29.5 23l-54 26q-27 9 -43.5 19t-33.5 28q-17 17 -21.5 36.5t-4.5 40.5q0 51 42 86q43 34 107 34q16 0 33 -5t32 -11.5t27 -12.5t18 -7v15q-5 5 -4 6q2 7 7 5q1 -1 2.5 -2t3.5 -3t3 -4l1 1q2 2 2 4t-4 6t-9 1
q-5 -2 -9 1t-6 7q-2 5 3.5 10t18.5 -1q7 -3 10.5 -7.5t5.5 -9.5t2 -12v-19v-88h-27v15q0 14 -4.5 20t-14.5 14q-4 4 -15 11.5t-25 15t-30 13t-30 5.5q-36 0 -58 -19q-22 -18 -22 -47q0 -14 4 -23q2 -3 9 -10t16 -14.5t19 -12.5t19 -3q20 5 24 19.5t-4 24.5q-9 10 -20 6.5
t-15 -11.5q-2 -4 -5.5 -4t-6.5 2.5t-4.5 7t2.5 9.5q4 6 12.5 10t18.5 4t18.5 -6t12.5 -19q4 -14 2.5 -22.5t-4.5 -13.5q-4 -6 -10 -9q4 -2 6 -4t1.5 -4t-4.5 -4q-5 -3 -10 -3.5t-10 -0.5q4 -2 7.5 -3t8.5 -3l74 -26q67 -23 102 -66q10 -11 18.5 -24t16.5 -27q-5 -2 -14 -6
t-20 -6.5t-22 -2.5t-18 6q-17 13 -16.5 28.5t12.5 20.5q13 5 22 -3t10 -17q0 -4 3.5 -5.5t7.5 -0.5t7 4.5t1 10.5t-9 14.5t-16.5 11.5t-20 2.5t-18.5 -12.5q-9 -11 -11 -20t0 -15q2 -7 6 -12q-4 -1 -7 -2q-2 -2 -3 -3.5t3 -5.5q8 -8 16 -11t14 -2q2 0 8.5 0.5t13.5 1.5
q8 1 17 3q1 -3 4 -5q4 -5 11 2z" />
    <glyph glyph-name="t" unicode="t" horiz-adv-x="574" 
d="M529 114q8 0 8 -7q0 -44 -46 -80q-47 -36 -106 -36q-19 0 -40.5 3t-41.5 9t-37.5 14.5t-28.5 20.5q-23 24 -40.5 55.5t-17.5 71.5v17q-10 1 -12.5 6.5t-0.5 13.5l6 18.5t7 20.5v20q-10 1 -12.5 6.5t-0.5 13.5l6 18.5t7 20.5v20q-10 1 -12.5 6.5t-0.5 13.5l6 18.5t7 20.5
v20q-10 1 -12.5 6.5t-0.5 13.5l6 18.5t7 20.5v7h-33q-6 -1 -17.5 -4.5t-18.5 -11.5q-5 -6 -4 -11.5t2.5 -10t1.5 -8.5t-5 -7q-11 -6 -19 2t-6 19t8.5 23t19.5 13q-9 3 -18 5q-8 2 -17 2t-17 -4q-5 -2 -6 -5.5t-1.5 -8l-1 -9t-3.5 -7.5q-4 -3 -8.5 -0.5t-6.5 7.5t-1 12.5
t8 15.5t13.5 10.5t13.5 2t14.5 -3t16.5 -3.5q-6 3 -13 7q-6 4 -13 10t-13 15q-11 15 -7.5 27.5t13.5 15.5q10 2 14 -6t0 -13q-3 -6 -1.5 -16.5t9.5 -15.5t21.5 -10.5t30.5 -3.5l-18 13q-7 5 -12 11t-4 11q1 9 9.5 8.5t8.5 -10.5q0 -9 6 -13.5t13 -6.5h28q1 4 3.5 11.5l5 15
l4.5 13t2 6.5v22q-11 1 -14 6.5t-1 13.5q2 7 6.5 21t7.5 22q-1 8 -8 15q-5 4 -12.5 2.5t-12.5 -6.5l-18 -10l-19 17l154 102q7 12 11.5 25.5t-0.5 24.5q-10 21 -27 22.5t-27 -10.5q-9 -12 -3 -23.5t16 -13.5q5 -1 6 -5t-1.5 -8.5t-7.5 -6.5t-12 1t-13 12t-8 20t2.5 22
t19.5 18q14 7 24.5 7t16.5 -2q7 -3 12 -9q2 4 4 7q4 6 10 -2q7 -8 8 -17.5t-1 -15.5q-2 -5 -7 -16.5t-8 -19.5l74 49l15 -27l-28 -23v-136v-124h68v-41h-71v-189q-10 -2 -22 -1.5t-25 8.5q-21 14 -26 28t0 19t13 1t17 -6q5 -1 9.5 1.5t7 6.5t2.5 9t-3 9q-7 8 -19 10t-24 -5
q-6 -3 -11.5 -8t-7 -12.5t2.5 -19t18 -27.5q9 -11 20 -15.5t20.5 -6t17 -1t10.5 0.5v-63q-2 1 -3.5 1.5t-3.5 1.5q-9 4 -18.5 9.5t-11.5 11.5q-2 5 -1.5 10t-4.5 8q-3 1 -7 -6q-2 -4 -3 -9q-8 6 -14 11l-9.5 9.5t-5.5 9.5q-1 4 -6 9.5t-10.5 8t-8 0t2.5 -12.5
q5 -11 18 -22.5t27 -20.5q16 -11 35 -21q-35 -2 -53.5 -7t-27.5 -10q-11 -6 -13 -14q20 12 40.5 15t37.5 1q19 -2 38 -8q-10 3 -21 3q-9 0 -20 -2t-21 -9t-12.5 -15.5t0 -16t8.5 -13.5t12 -7q11 -2 15.5 6.5t-3.5 11.5q-4 1 -8 3.5t-5.5 5.5t1 7.5t12.5 10.5q9 5 21 5t23 -3
v-52v-20t1 -17q-7 -13 -16.5 -25.5t-22.5 -13.5q-20 -2 -29 10t-4 24t17 12t17 -6q3 -3 6.5 -2t6 4.5t2 8t-5.5 8.5q-6 4 -15.5 4.5t-18.5 -2.5t-15.5 -11t-5.5 -22t5 -21t9 -11t12 -5q-3 -3 -4 -6q-2 -6 6 -7q10 -1 17 2t12 8q2 2 6 7l8 10q4 6 10 13q0 -1 1 -1h3
q4 -28 16 -41.5t42 -13.5q33 0 61 31q1 11 -5 19.5t-16 10.5q-14 2 -21 -8.5t-4 -19.5q1 -4 -2 -6.5t-7.5 -2.5t-9 3t-4.5 10t4.5 16t13 15.5t19.5 8t23 -7.5q16 -12 21 -24q2 2 6 8q29 41 53 41z" />
    <glyph glyph-name="u" unicode="u" horiz-adv-x="582" 
d="M549 29v-25h-108v59q-14 -17 -31 -30t-38 -23q-39 -19 -83 -19q-35 0 -70.5 7.5t-55.5 27.5q-13 13 -23.5 29.5t-17.5 36.5q-3 -3 -7 -3q-13 0 -16 6t-1 14q1 5 3 12.5t5 15.5q3 9 7 19l1 -3v29q-12 0 -15 5.5t-1 14.5l3 11.5t5 15.5q3 9 7 19l1 -2v15q-12 0 -15 5.5
t-1 14.5l3 11.5t5 15.5q3 9 7 19l1 -2v14q-12 1 -15 6.5t-1 14.5l3 11.5t5 15.5q3 9 7 19l1 -2v14q-12 1 -15 6.5t-1 14.5q1 6 5 17.5l7 19.5q-10 25 -49 25h-14v25h199v-230q-10 -2 -21.5 -1.5t-23.5 8.5q-22 14 -27 28t0 19t13 1t18 -6q9 -2 15.5 8t-0.5 18t-19 10t-24 -5
q-6 -3 -11.5 -8t-7 -12.5t3 -19t18.5 -27.5q8 -10 18 -14.5t19.5 -6.5t17 -1.5t11.5 0.5v-62q-2 1 -3 1t-3 1q-9 4 -18 9.5t-11 11.5q-2 5 -2 10t-5 8q-3 1 -7 -6q-2 -4 -3 -9q-8 6 -14 11l-9.5 9.5t-4.5 9.5q-1 4 -6.5 9.5t-10.5 8t-8 0t2 -12.5q5 -11 18 -22.5t27 -20.5
q16 -11 35 -21q-34 -2 -53 -7t-28 -10q-11 -6 -13 -14q20 12 40.5 15t37.5 1q19 -2 38 -8q-10 3 -21 3q-9 0 -20 -2t-21 -9t-12 -15.5t0.5 -16t8 -13.5t11.5 -7q11 -2 15.5 6.5t-3.5 11.5q-4 1 -8 3.5t-5 5.5t1.5 7.5t12.5 10.5q8 5 19.5 5t22.5 -3v-47q0 -23 3 -41
q-6 -12 -16.5 -25.5t-22.5 -14.5q-20 -2 -29.5 10t-4.5 24t17 12t18 -6q3 -3 6.5 -2t5.5 4.5t2 8t-6 8.5t-15.5 4.5t-18.5 -2.5t-15.5 -11t-5.5 -22t5 -21t9 -11t12 -5q-3 -3 -4 -6q-2 -6 6 -7q10 -1 17 2t12 8q2 2 6 7l8 10q4 6 10 13q1 -1 3 -1t3.5 -0.5t3.5 1.5
q8 -21 24.5 -31.5t45.5 -10.5q43 0 79 30q28 25 34 49q-6 -7 -10 -13l-8 -10t-6 -7q-5 -4 -12 -7.5t-17 -1.5q-8 0 -6 6q1 3 4 6q-7 1 -12 5t-9 11.5t-5 21.5q-1 13 5.5 21t15.5 11.5t18.5 3t15.5 -4.5t6 -9t-2 -8.5t-5.5 -4.5t-6.5 2q-6 7 -18 6.5t-17 -12.5t4.5 -24
t29.5 -10q12 1 21.5 13.5t16.5 24.5v320q0 48 -53 48h-15v25h120v-449q0 -48 53 -48h3z" />
    <glyph glyph-name="v" unicode="v" horiz-adv-x="542" 
d="M508 526v-25h-19q-13 0 -16 -13l-172 -497h-32l-8 22q-10 -3 -13.5 1.5t-5.5 12.5q-1 6 -1.5 20t-0.5 22l-11 30q-17 -5 -20 14q-2 7 -2 22v23l-6 15q-11 -3 -14.5 1.5t-5.5 12.5t-2 24t-1 22l-5 14q-11 -4 -14.5 0.5t-5.5 12.5q-1 4 -1.5 12l-1 16t-0.5 14v7l-4 12
q-11 -4 -15.5 0.5t-6.5 12.5q-1 5 -1.5 13t-0.5 16v20l1 -1l-8 20q-11 -4 -15.5 0.5t-6.5 12.5q-1 4 -1.5 12.5t-0.5 16.5v14v6q-7 14 -16 23q-16 14 -37 14h-11v25h260v-25h-42q-15 0 -10 -14l33 -102q-6 -2 -10 -3q-25 -5 -38.5 3t-13.5 14q0 7 9.5 9.5t17.5 7.5
q7 5 5 16.5t-12 13.5q-11 2 -20.5 -5t-14.5 -21q-2 -6 -3 -13.5t3.5 -14.5t15.5 -12t32 -8q16 -1 32 6l31 -94q-3 2 -7 3.5l-9 3.5q-8 3 -16 8t-10 10q-1 5 -1 9t-4 6q-3 1 -6 -5q-2 -4 -3 -8q-7 5 -12 10q-5 4 -8.5 8.5t-4.5 8.5q0 3 -5 7.5t-9.5 6.5t-6.5 0t2 -11
t15.5 -19t23.5 -18q14 -10 30 -18q-29 -1 -45.5 -5t-24.5 -9q-10 -6 -11 -13q17 11 35 14t33 1q17 -2 33 -7q-9 2 -19 2q-8 0 -17.5 -2t-18.5 -8t-10.5 -13t0.5 -14t7 -12t10 -6q11 -2 14.5 6t-3.5 10q-3 1 -6.5 3t-5 4.5t1 6.5t10.5 9q13 8 31.5 3.5t28.5 -9.5l16 -45
l-2 -7q-6 -16 -13 -28q-6 -11 -15 -20t-19 -10q-20 -2 -29 10t-4 24t17 12t17 -6q3 -3 6.5 -2t6 4.5t2 8t-5.5 8.5q-6 4 -15.5 4.5t-18.5 -2.5t-15.5 -11t-5.5 -22t5 -21.5t9 -11.5t12 -5q-3 -2 -4 -5q-2 -6 6 -7q9 -1 16.5 2t11.5 8q2 2 6 7t9 10q4 6 10 13q3 -2 6 -2
q5 0 6 9q1 6 2 14.5t3 17.5l82 237q24 70 -37 70h-16v25h145z" />
    <glyph glyph-name="w" unicode="w" horiz-adv-x="704" 
d="M673 526v-25h-19q-12 0 -17 -13l-79 -499h-18l-121 366l-112 -366h-72l-4 12q-9 -2 -12.5 3t-4.5 13q-1 6 0 17.5t1 20.5l-9 35q-9 -1 -12.5 3.5t-4.5 12.5q0 6 0.5 17t0.5 19l-6 24q-9 -1 -12 4t-4 13q-1 5 -0.5 15t1.5 19l-7 26q-8 -1 -11 3.5t-4 12.5q-1 5 -0.5 14.5
t1.5 17.5l-8 28q-8 0 -10.5 4.5t-3.5 11.5q-1 5 -0.5 14t1.5 17l-11 37q-8 0 -10.5 4.5t-3.5 11.5v12.5t1 15.5q-10 28 -22 39q-14 15 -39 15h-11v25h258v-25h-39q-14 0 -11 -14l25 -100q-4 -2 -7.5 -3t-8.5 -2q-25 -5 -38.5 2.5t-13.5 13.5q0 7 9.5 9.5t17.5 7.5
q7 5 5 16.5t-12 13.5t-20 -5t-15 -20q-2 -7 -3 -14.5t3 -14t15 -12t33 -7.5q11 -2 20 0.5t17 6.5l23 -95q-8 4 -13 5q-8 3 -15.5 8t-9.5 10t-1.5 9.5t-4.5 6.5q-3 1 -6 -5q-2 -4 -3 -8q-7 5 -12 10q-5 4 -8.5 8.5t-3.5 8.5q-1 4 -5.5 8.5t-9 6.5t-7 -0.5t1.5 -11.5
q5 -9 16 -19t23 -18q14 -10 31 -18q-30 -1 -46.5 -5t-24.5 -9q-10 -6 -11 -13q17 11 35.5 13.5t32.5 0.5q17 -2 33 -7q-8 2 -18 2q-8 0 -18 -1.5t-18 -7.5q-9 -6 -11 -13.5t0.5 -14.5t7.5 -11.5t10 -5.5q10 -2 13.5 5.5t-3.5 10.5q-7 2 -11.5 7t12.5 16q11 7 26.5 4.5
t26.5 -7.5l16 -67q-6 -13 -17 -29t-25 -18q-20 -2 -29.5 10t-4.5 24t17 12.5t17 -6.5q3 -3 7 -1.5t6 5t2 8t-6 8.5t-15.5 4.5t-18.5 -3t-15.5 -11.5t-5.5 -21q1 -14 5 -21.5t9 -11.5t12 -5q-3 -3 -4 -6q-2 -6 6 -6q10 -2 17 1.5t12 7.5q2 2 6 7l8 10q4 6 10 13q3 -1 6 -1
q6 0 7 9l84 276v9h1v1q-7 5 -6 9q2 7 7 6q2 -1 3 -2.5t3 -3.5q2 -3 4 -5l1 1q2 2 2 4t-4 8t-10 3q-6 -4 -9.5 0.5t-5.5 9.5t3.5 12.5t19.5 -0.5q7 -4 11 -10.5t6 -12.5q2 -8 2 -16v-20l64 -186q5 14 20 18q20 3 28 -4q4 -4 7 -8q1 3 3 4q3 2 6 -2l27 177q9 36 5 54t-35 18
h-14v25h130zM516 188q3 3 9 8t11.5 11t9 13t2.5 13q-3 16 -14 20.5t-19 -2.5q-8 -6 -6 -15t8 -12q5 -2 1.5 -8t-11.5 -4zM556 222q-2 -3 -5 -6t-5 -6q-3 -4 -5 -7l2 -4q0 -5 -5 -7q-4 -2 -9.5 -4.5t-11.5 -4.5l23 -66z" />
    <glyph glyph-name="x" unicode="x" horiz-adv-x="546" 
d="M515 27v-26h-241v19q-12 5 -12.5 13.5t1.5 15.5q3 10 10 15.5t15 4.5q8 -2 9.5 -10t-4.5 -12q-5 -4 -12 -6t-7 -7q0 -4 5 -7h22q16 0 9 13l-34 71q-11 -4 -15.5 0t-6.5 12t-3.5 23.5t-2.5 22.5l-7 14q-10 -5 -14.5 -1t-6.5 12l-50 -78q-28 -45 -25 -67q1 -24 32 -24h18
v-25h-146v18q-11 5 -11.5 13t1.5 16q3 10 10.5 15t15.5 4t9 -9.5t-4 -12.5q-6 -4 -13 -6t-7 -7q0 -2 4 -6h15q8 0 12 7l131 208l-10 21q-9 -4 -13.5 0t-6.5 12q-2 7 -3.5 20.5t-2.5 21.5l-13 26q-9 -4 -13.5 0t-6.5 12q-2 6 -3 19.5t-3 21.5l-13 29q-10 -4 -14 0t-6 12
q-2 5 -3 14.5l-2 18.5q-24 33 -53 33h-7v25h236v-25h-18q-7 0 -10 -5q-3 -4 0 -10l65 -133l19 30q-3 -3 -7 -5q-3 -2 -7.5 -2t-9.5 3q-3 1 -3 2.5t1 2.5t3 2q-3 1 -6 5q-2 3 -3 8t1 13q5 16 18.5 14.5t18.5 -7.5q5 -7 -0.5 -10.5t-7.5 1.5t-9 6.5t-12 -3.5q-5 -6 -2 -14.5
t14 -11.5q5 -1 9 1t9 4l26 40q19 31 16 49q-3 20 -24 20h-22v25h134v-25h-19q-9 0 -12 -8l-109 -173l15 -30q-7 -4 -17 -6q-25 -5 -38.5 2.5t-13.5 14.5t9.5 9.5t17.5 7.5t6 16.5t-13 13.5t-21 -5.5t-14 -20.5q-2 -6 -3 -13.5t3 -14.5t15 -12.5t33 -7.5q11 -2 21 1t18 8
l48 -98q-3 2 -7.5 3.5t-9.5 3.5q-8 3 -16 8t-10 10q-1 5 -1 9t-4 7q-5 2 -7 -5q-2 -4 -2 -8q-7 5 -12 9t-8.5 8.5t-4.5 8.5t-5.5 8.5t-9 6.5t-7 0t2.5 -11q4 -10 15.5 -19.5t23.5 -17.5q14 -10 30 -18q-29 -2 -45.5 -6t-24.5 -9q-10 -6 -12 -13q17 11 35.5 14t32.5 1
q17 -2 33 -7q-8 2 -18 2q-8 0 -18 -2t-18 -7q-9 -6 -10.5 -13.5t0.5 -14.5t7 -12t10 -6q10 -2 14 6t-3 10q-3 1 -6.5 3t-5 4.5t1 6.5t10.5 9t19.5 4.5t22.5 -3.5q12 -4 25 -10l2 -1l17 -34l7.5 -14.5l7.5 -13.5q-6 -13 -17 -28t-25 -17q-20 -2 -29 10.5t-4 24.5t17 12t17 -6
q3 -3 6.5 -2t6 4.5t2 8t-5.5 8.5q-6 4 -15.5 4.5t-19 -2.5t-16 -11t-5.5 -22t5 -21.5t9 -11.5t12 -5q-2 -3 -3 -6q-2 -6 6 -6q9 -2 16.5 1.5t11.5 7.5q2 2 6 7.5t9 10.5q4 6 10 13q3 -2 6 -2q5 0 6 9q0 2 0.5 3.5t0.5 3.5q28 -43 59 -43h3z" />
    <glyph glyph-name="y" unicode="y" horiz-adv-x="676" 
d="M640 526v-25h-32q-12 0 -17 -13q-43 -145 -80 -256t-69 -190q-11 -27 -29.5 -54t-40 -50.5t-46 -43t-47.5 -32.5q-17 -9 -42 -14.5t-51.5 -6.5t-51.5 3t-42 13q-24 12 -39 31.5t-21.5 39.5t-3.5 39t16 31q25 24 44.5 17.5t24.5 -26.5q3 -10 -4 -16.5t-17 -10.5t-21 -5.5
t-16 0.5q-1 -15 6 -29q6 -12 20 -24t43 -20q17 -4 40.5 -3.5t38.5 4.5q-12 0 -22 7q-6 4 -2 8q2 2 6 3q-5 5 -8 11q-2 5 -2 13.5t6 21.5t15 17t19 2.5t18 -7t11 -11.5t1 -10.5t-5.5 -6.5t-7.5 -1t-5 5q-2 8 -12 13.5t-20 -2.5q-11 -8 -9 -23t21 -23q9 -5 21 -1t23 11l2 2
q20 19 39 47.5t37 68.5l-9 21q-8 -2 -11 2t-5 12q-1 5 -2 15t-1 19l-15 37q-9 -2 -12.5 2t-5.5 12q-2 6 -2.5 18.5t-1.5 20.5l-8 20q-10 -2 -13.5 2t-5.5 12q-2 7 -3 21.5t-2 22.5l-6 16q-10 -4 -14.5 0.5t-6.5 12.5t-3 25.5t-1 22.5l-5 12q-11 -4 -15.5 0t-6.5 13
q-2 4 -2 12t-1 16q-1 10 -1 20l2 -1q-3 5 -5.5 10t-4.5 10q-11 -4 -15.5 0.5t-6.5 12.5q-1 4 -1.5 10t-1.5 14l-4 4q-24 24 -49 24h-13v25h315v-25h-66q-8 0 -11 -5q-3 -3 0 -10l40 -104q-5 -3 -10.5 -5.5t-12.5 -3.5q-25 -5 -38.5 2.5t-13.5 14.5q1 6 10 8.5t17 7.5
t6.5 16.5t-12.5 13.5t-21 -5t-15 -20q-2 -7 -2.5 -14.5t3.5 -14t15 -12t32 -7.5q14 -2 25 2t20 10l37 -97q-2 1 -8 3q-8 3 -15.5 8t-9.5 10t-1.5 9t-4.5 6q-3 1 -6 -5q-2 -4 -3 -8q-7 5 -12 10q-5 4 -8.5 8.5t-3.5 8.5q-1 4 -5.5 8.5t-9 6.5t-7 0t1.5 -11q5 -10 16 -19.5
t23 -17.5q14 -10 31 -19q-30 -1 -46.5 -5t-24.5 -9q-10 -6 -11 -13q17 11 35.5 13.5t32.5 0.5q17 -2 33 -7q-8 2 -18 2q-8 0 -18 -1.5t-18 -7.5q-9 -6 -11 -13.5t0.5 -14t7.5 -11.5t10 -6q10 -2 13.5 6t-3.5 10t-11.5 7t12.5 16q11 7 27 4t27 -7l27 -71q-6 -12 -16.5 -26.5
t-24.5 -16.5q-20 -2 -29 10t-4 24t16.5 12.5t17.5 -6.5q3 -3 6.5 -1.5t5.5 5t2 8t-6 8.5q-5 4 -15 4.5t-19 -3t-15.5 -11.5t-5.5 -21q1 -14 5 -21.5t9 -11.5t12 -5q-3 -3 -4 -6q-2 -6 6 -6q10 -2 17.5 1.5t11.5 7.5q2 2 5.5 7t8.5 10l11 13q2 0 4 2t3.5 4t2.5 7l5 -14
q31 91 50 156t27 106q-13 -15 -24.5 -12.5t-19.5 8.5q-11 8 -15 20t1 21q4 10 15.5 8.5t14.5 -10.5q2 -9 2 -18.5t7 -11.5q4 -2 10.5 2.5t11.5 14.5q1 6 1.5 11.5t0.5 10.5q0 23 -12 38q-11 14 -30 14h-25v25h184z" />
    <glyph glyph-name="z" unicode="z" horiz-adv-x="554" 
d="M477 -27v16q0 12 -14 12h-408v21l16 31q-6 7 3 19q2 4 7 9l10 10l22 44q-5 5 -4 10t5 11q3 4 9.5 11t13.5 13l12 25q-7 5 -6 10.5t6 11.5q3 5 12 14l15 15l10 19q-8 5 -8 10.5t5 12.5q5 6 16 17.5l16 16.5l7 13q-10 5 -9.5 11t5.5 14q2 3 8 9l12 12l14 14v-3l4 8
q-8 -2 -12 -1q-8 0 -6 6q1 3 4 6q-7 1 -12 5t-9 11.5t-5 21.5q-2 17 8.5 25.5t22.5 9.5h-67q-45 0 -64 -14.5t-19 -43.5v-21h-35v131v16v1q-3 2 -5.5 4.5t-1.5 4.5t3.5 4.5t5.5 1.5q2 -1 4 -2.5t4 -3.5l5 -5q1 0 2 1t1 4q0 2 -5 8t-12 3q-7 -4 -12 0.5t-7 9.5t4.5 12.5
t24.5 -0.5q8 -4 13.5 -10.5t7.5 -12.5q3 -8 3 -16v-25v-3q0 -12 14 -12h382v-21l-114 -220q-13 -2 -24 2q-27 8 -36.5 22t-6.5 21q4 6 14 3.5t21 -0.5q11 1 14.5 13t-6.5 19q-9 7 -22.5 5.5t-24.5 -12.5q-5 -5 -9.5 -12t-4 -15.5t8.5 -19.5t28 -24q11 -8 22 -10t22 -1
l-39 -74q-2 10 0.5 16.5t4.5 12.5q3 7 -6 11.5t-15 -2.5q-4 -4 -3.5 -10.5t2.5 -12.5q2 -7 5 -15q-2 1 -6 4l-6.5 4.5t-7.5 4.5q-7 5 -14 12t-7 12t1 9t-3 7q-3 2 -7 -4l-4 -6q-6 6 -10 12q-9 11 -9 19q0 4 -3.5 9t-7.5 8t-6.5 2t-0.5 -11q2 -11 11 -22.5t19 -22.5
q11 -12 26 -24q-29 5 -46 4.5t-26 -3.5q-11 -4 -14 -10q20 7 37.5 5.5t31.5 -6.5q16 -5 31 -14q-8 3 -17 6q-8 2 -17.5 2.5t-19.5 -3.5t-13.5 -11t-2.5 -14t4.5 -13t8.5 -8q9 -4 14.5 2.5t-0.5 10.5q-3 2 -6 4.5t-4 5.5t2.5 6.5t12.5 6.5q13 5 29 -2.5t25 -14.5l-62 -120
q-14 -6 -26 -2q-19 8 -21.5 22.5t7.5 22.5t20.5 3t12.5 -13q1 -4 5 -4.5t7.5 1.5t5.5 6.5t-1 10.5t-11.5 11t-18.5 6t-19 -3t-15 -17q-5 -13 -4.5 -22t2.5 -14q3 -6 8 -10q-4 -1 -6 -3q-4 -4 3 -9q8 -5 16 -5.5t14 1.5q2 1 6 2.5l9 3.5l-2 -4h140q88 0 88 59v4v15v1
q-8 6 -7 9q1 2 3.5 5t6.5 1q2 -1 7 -6q2 -3 5 -5l2 2q2 2 2 4q-1 2 -6 8t-12 2q-7 -3 -12 1.5t-7 9.5t4.5 12t24.5 0q8 -4 13.5 -10.5t7.5 -12.5q3 -8 3 -16v-4v-139h-35zM228 465q-5 -12 4 -24.5t29 -10.5q2 0 6 2l32 62h-41q7 0 13 -4t6 -8.5t-2 -8t-6 -4.5t-7 2
q-5 6 -17 5.5t-17 -11.5z" />
    <glyph glyph-name="ampersand" unicode="&#x26;" 
d="M630 139l55.5 -61l59.5 -64h-108l-30 31.5t-35 36.5q-45 -42 -95.5 -60.5t-108.5 -18.5q-14 0 -27 1.5t-26 3.5q-9 20 -5.5 33.5t9.5 15.5t11 -6t12 -14q8 -6 18 -1t8 15q-2 11 -11 18.5t-23 7.5q-7 0 -14 -1t-12.5 -7t-7 -18t2.5 -33q0 -3 2 -7q-38 9 -67 28.5t-48 45.5
q2 2 3 2q4 2 9.5 -1t8.5 -6q3 -4 3 -9t4 -7t6.5 2t-0.5 13q-2 5 -6 8t-8 5q-5 3 -10 4l8 4q10 4 14 6q5 3 7 -0.5t5 -1.5q2 2 2 6q0 2 -1 5q5 2 15 4t16 3q7 0 7.5 -4.5t-4.5 -8.5q-4 -3 1.5 -8t12.5 -3q7 3 6.5 13t-14.5 17q-7 3 -17 1t-19 -5q-11 -4 -23 -9q2 2 4 5
q2 2 3.5 5t3.5 5q4 4 5.5 11t-4.5 18q-6 10 -15 6.5t-11 -8.5q-1 -5 4 -7.5t7 2.5t6.5 3.5t6.5 -9.5q1 -4 -2 -8t-7 -8t-11 -8q0 7 -6.5 13.5t-15.5 11.5t-12.5 -1.5t-4.5 -12.5t3 -4t7 6t10 0.5t9 -17.5q2 -6 -2.5 -12t-10.5 -11q-30 47 -30 104q0 3 0.5 6t0.5 6l12.5 -5.5
t10.5 -4.5q7 -5 11 1q2 3 2 6q9 0 17 1q7 1 13.5 1.5t9.5 1.5q5 1 12 5.5t11 13.5q4 7 -2 9q-3 1 -7 0q3 6 2 13q-1 6 -6 14t-16 16q-11 9 -21.5 7.5t-18.5 -7.5t-12.5 -14.5t-4.5 -15.5t4 -10t8.5 -3t7.5 2.5t2 7.5q-2 8 4 18t20 8t19.5 -16.5t-7.5 -31.5q-5 -7 -14.5 -9.5
t-20 -3t-20.5 1t-16 2.5q3 31 13.5 57t27.5 49q-8 5 -11.5 14t2.5 21q5 11 13 17t16 11q9 4 19 8q-18 -3 -36 -11q-15 -7 -30.5 -18.5t-26.5 -31.5q-2 7 4 18q5 9 18.5 22t41.5 30q-21 -1 -39 1q-16 2 -32 4.5t-25 9.5q-9 6 -8 9.5t6.5 4t12.5 -1.5t9 -5t8.5 -5l13.5 -4
q8 -2 16 -3q-2 4 -2 8q0 3 0.5 6t3.5 3q5 0 7 -4t6 -8q5 -4 15.5 -4.5t19.5 1.5q5 1 9 1t8 1q4 0 8 1l-16 9q-6 4 -10.5 9t-4.5 10t3.5 8.5t7.5 4.5t8 0t5 -5q3 -8 6.5 -16t17.5 -15q12 -5 21 -6q-23 32 -35.5 66t-12.5 67q0 32 11.5 63t33.5 55.5t55 39.5t77 15
q33 0 61 -10.5t48.5 -29.5t32.5 -46.5t12 -61.5q0 -56 -35 -101t-118 -86v-4l90.5 -103.5l79.5 -89.5l24.5 36.5t24 42t20 54t11.5 71.5l1 3l1 8l-2 4q-5 3 -8.5 7t-2.5 7q2 4 5.5 7.5t8.5 1.5q6 -4 12 -10l7 -7q1 0 3 2q3 3 3 6q-1 4 -8.5 12.5t-18.5 3.5t-18 1.5t-11 14.5
q-2 4 0 10t7 9.5t14.5 4t22.5 -5.5q15 -7 23 -18.5t12 -23.5t5 -22.5t1 -14.5h1q-1 -1 -1 -2v-2v-1q-14 -81 -31.5 -144.5t-55.5 -108.5zM209 341q13 14 28.5 26.5t32.5 23.5q-5 0 -14 -1.5t-19 -4.5t-18.5 -8t-12.5 -13q-7 -14 -5 -18.5t8 -4.5zM426 663q-15 0 -27 -8.5
t-19.5 -22.5t-11.5 -32.5t-4 -38.5q0 -30 7 -54.5t18 -47.5h1q15 7 27 14q11 6 19.5 14t9.5 18q2 20 -10.5 28t-23.5 3t-11.5 -16t6.5 -16q3 -3 2 -6.5t-4.5 -6t-8 -2t-8.5 5.5t-5 14.5t2 18t10.5 15t21.5 5.5t21 -4.5t11 -8.5t6 -11q2 3 5 4q6 2 7 -5q1 -9 -2 -16.5
t-7 -11.5q-2 -2 -6.5 -6t-9.5 -8q-6 -4 -13 -10q2 -2 2 -5q0 -6 -9 -7q-5 -1 -13.5 -2t-17.5 -3q2 -5 5 -9.5t5 -9.5q38 30 60.5 61.5t22.5 76.5q0 16 -3.5 32t-10.5 29t-18 21t-26 8zM507 129q3 14 -2 27l-65.5 79l-78.5 97q-12 -9 -25.5 -21t-24.5 -28t-18.5 -36.5
t-7.5 -45.5q0 -27 9 -51t25 -41.5t38.5 -27.5t49.5 -10t54 11q-6 4 -8 6q-9 8 -11 18.5t3 18.5t14.5 5.5t11.5 -10.5t0.5 -16.5t3.5 -10.5t16 6t16 30zM509 111q5 5 9.5 9t8.5 9q-3 4 -6 7.5t-6 8.5q1 -8 0 -16.5t-6 -17.5z" />
    <glyph glyph-name="exclam" unicode="!" 
d="M445 132q27 0 43.5 -18t16.5 -47q0 -27 -16.5 -45.5t-45.5 -18.5q-26 0 -43 18.5t-17 45.5q0 29 17.5 47t44.5 18zM486 530q8 5 6 15.5t-12 12.5t-19.5 -4.5t-14.5 -19.5q-2 -6 -2.5 -13t3 -13.5t14 -11.5t31.5 -7q11 -2 21 1t18 8l-5 -92q-1 2 -2 3t-2 3
q-8 11 -7.5 18.5t2.5 14.5q1 3 -1.5 5.5t-6.5 3.5t-8 0t-6 -5q-2 -5 -0.5 -10.5t4.5 -10.5q4 -6 8 -13q-3 1 -7 3q-3 2 -6.5 2.5t-7.5 2.5q-8 3 -15.5 7.5t-8.5 9.5q-2 5 -1.5 9t-4.5 6q-4 1 -6 -5q-1 -3 -2 -7l-11 9t-8.5 8t-3.5 8q-1 4 -5.5 8t-9 6t-6.5 0.5t2 -10.5
t15 -18t22 -17q13 -9 29 -18q-28 -1 -43.5 -5t-23.5 -9q-9 -5 -11 -12q17 11 34 13t31 1q16 -2 31 -6q-8 2 -17 2q-8 0 -17 -2t-17 -7q-8 -6 -10 -13t0 -13.5t6.5 -11t9.5 -5.5q10 -2 13.5 5.5t-3.5 9.5q-3 1 -6 2.5t-4 4t1 6.5t10 9t18.5 4t20.5 -4l24 -9l6 -3l-3 -67
q-6 -12 -16 -27.5t-24 -17.5q-20 -2 -28.5 10t-3.5 23t16 11.5t16 -5.5q3 -3 6.5 -2t5.5 4t1.5 7.5t-5.5 8.5t-14 4.5t-17.5 -2.5t-15 -10.5t-5.5 -20.5q1 -14 5 -20.5t9 -10.5t11 -5q-3 -3 -4 -6q-2 -6 6 -6q9 -1 16 2t11 7q5 5 13 16q4 6 10 13q1 -1 2 -1q1 -1 3 -1
l-3 -66h-134l-1 20q-10 1 -12 6t-1 13q1 6 4.5 18t5.5 20l-1 18q-9 1 -11 6t-1 13q1 5 4 16t5 19l-1 21q-14 3 -11 19q1 5 3.5 14.5l4.5 17.5l-2 32q-8 2 -9.5 6.5t-0.5 11.5q1 5 3.5 13.5t4.5 16.5l-2 37q-11 2 -9 18q1 4 2.5 11t3.5 15l-2 42q-10 2 -8 18l2.5 10t3.5 12
l-2 35l114 38q3 6 5 12t0 11q-5 20 -19.5 25t-25.5 -4q-10 -9 -6.5 -20t11.5 -15q4 -2 4 -5.5t-2.5 -7t-7 -4.5t-10.5 3t-9.5 13t-3.5 18.5t6 18.5t20 13q14 3 23 1.5t14 -4.5q6 -4 9 -10q2 3 4 5q4 4 8 -3q5 -8 4 -16.5t-4 -13.5q-1 -2 -3 -5.5t-4 -7.5l61 21l-13 -269
q-8 -6 -21 -9q-24 -5 -36.5 2.5t-12.5 13.5t8.5 8.5t16.5 7.5z" />
    <glyph glyph-name="question" unicode="?" horiz-adv-x="465" 
d="M213 135q28 0 44.5 -18.5t16.5 -47.5q0 -27 -16.5 -45.5t-45.5 -18.5q-26 0 -43 18.5t-17 45.5q0 29 17.5 47.5t43.5 18.5zM349 496q9 0 14 9.5t-2 17.5q-8 7 -19.5 7.5t-22.5 -7.5q-5 -4 -10 -9t-5.5 -12.5t5 -18t20.5 -24.5q12 -11 25 -13.5t24 -1.5q-12 -18 -25 -34.5
l-27 -33.5q-2 -2 -3 -3.5t-3 -3.5l-1 1q-4 7 -7.5 15t-1.5 13t4 8t0 7q-1 4 -8 0q-3 -2 -6 -5q-3 7 -4 14q-4 13 0 20q1 3 0 9.5t-3 10.5t-5 3.5t-5 -9.5q-2 -10 1.5 -23.5t8.5 -26.5q5 -15 13 -31q-23 16 -38 21.5t-24 6.5q-11 1 -16 -3q16 -1 29.5 -7t23.5 -14t16.5 -15.5
t9.5 -11.5q-5 5 -16 13t-27 9q-10 0 -15.5 -4.5t-8 -11t-1 -13t4.5 -9.5q7 -7 14 -3.5t3 9.5q-4 5 -5 11.5t18 5.5q8 -1 14.5 -5.5t12.5 -10.5q-14 -22 -18.5 -40t-4.5 -41q-11 -6 -25 -9.5t-24 2.5q-17 10 -17 24t11 20q11 7 19.5 0.5t9.5 -14.5q0 -4 3.5 -5.5t7.5 0
t6.5 5.5t0.5 10t-9 12t-16 8.5t-18.5 0t-16.5 -13.5t-8 -19t1 -13q2 -6 6 -11q-4 -1 -6 -3t-2.5 -3.5t3.5 -4.5q7 -6 14.5 -8t12.5 -1q2 0 8.5 1.5t12.5 3.5q7 2 15 5q1 -2 3 -4q4 -4 9 1v-5l2 -26h-133l-2 27q-5 42 10.5 87t54.5 92q35 42 53.5 74.5t18.5 67.5
q0 38 -23 62.5t-68 26.5q-14 -2 -35 -10t-26 -22q-6 -20 4 -31.5t24 -9.5q14 3 16.5 14t-3.5 19q-3 3 -0.5 6.5t6.5 5t8.5 0t7.5 -7.5t1.5 -16t-6.5 -18.5t-14.5 -13t-23.5 -0.5t-20.5 10t-9.5 11q-4 6 -3 13q-4 -2 -7 -2q-2 0 -4 1t-1 6q1 10 5.5 16.5t9.5 9.5q3 2 11 6
t15 7q-23 -6 -44.5 -17t-35.5 -21l-25 65q13 9 36.5 20t50.5 20t54 15t48 6q45 0 81 -14t61.5 -36.5t39.5 -51t14 -57.5q0 -32 -12 -63t-32 -60q-8 -2 -16 -1.5t-18 5.5q-22 11 -28 24t-2 18t12.5 2t17.5 -4z" />
    <glyph glyph-name="period" unicode="." horiz-adv-x="214" 
d="M53 68q0 29 17.5 47.5t44.5 18.5t44 -18.5t17 -47.5q0 -28 -17 -46.5t-46 -18.5q-26 0 -43 18.5t-17 46.5z" />
    <glyph glyph-name="comma" unicode="," horiz-adv-x="267" 
d="M54 -114q9 23 18 54t17.5 65t15.5 67.5t11 62.5l102 10q-9 -33 -22 -69.5l-26.5 -71t-26.5 -64t-24 -47.5z" />
    <glyph glyph-name="at" unicode="@" horiz-adv-x="700" 
d="M495 97q-22 6 -11 23q6 9 19 10.5t23 -9.5q7 -6 8 -15.5t-2.5 -19t-10.5 -18t-17 -12.5q-40 -19 -79.5 -26.5t-87.5 -7.5q-59 0 -111.5 21t-92.5 59.5t-63 94t-23 124.5q0 74 24.5 139t70.5 113.5t110 76.5t144 28q63 0 110.5 -19t79.5 -54t48 -84t16 -109
q0 -108 -39.5 -167.5t-106.5 -59.5q-14 0 -27.5 4.5t-23 15t-15.5 26t-5 38.5h-3q-50 -84 -135 -84q-42 0 -73 31.5t-31 88.5q0 45 17 86t47 72.5t71.5 50t91.5 18.5q30 0 57 -6t46 -14l-33 -173q-11 -55 -3 -81t32 -27q18 -1 36 11t32 34.5t22.5 55.5t8.5 74
q0 105 -58 166.5t-169 61.5q-59 0 -107.5 -20.5t-83.5 -59.5t-54.5 -96t-19.5 -130q0 -60 13.5 -109.5t40.5 -85.5t67 -56t93 -20q41 0 85.5 4.5t74.5 21.5q3 2 4 5q2 6 -7 9zM455 473q-6 3 -16 5.5t-23 2.5q-26 0 -48.5 -14t-39.5 -37.5t-27 -54.5t-10 -66q0 -32 13 -52.5
t39 -20.5q17 0 33 12t28.5 31t21.5 42t12 45z" />
    <glyph glyph-name="zero" unicode="0" 
d="M689 382q1 -5 6.5 -6t10.5 2t8 9t-1 14t-14.5 14.5t-24 7.5t-26.5 -5t-22 -23t-10 -29t2 -19q4 -9 11 -13q-5 -2 -8 -5q-6 -6 2 -11q11 -7 22 -7t19 2q4 2 12 5.5l17 7.5l22 10q1 -2 3 -4q4 -4 9 -1q-1 -22 -3 -42t-5 -40q-20 -11 -23 -26q-10 7 -17 14q-6 6 -10.5 13.5
t-2.5 13.5q5 12 14 14.5t11 -5.5q1 -8 10.5 -5.5t8.5 11.5q0 4 -4.5 9t-11.5 7t-14.5 0t-14.5 -10q-13 -16 -11 -27.5t7 -19.5q2 -4 5.5 -8.5t5.5 -8.5q3 -4 6 -9q-20 11 -38 19q-16 7 -33.5 11t-30.5 0t-20 -11t-9 -14t0.5 -13t8.5 -9t12 -2t10 4t5.5 7t-1.5 7
q-6 7 -4.5 14.5t12.5 5.5t28.5 -7t25.5 -9l-2 -8q-2 -7 2 -10q2 -2 4 -1t4 2.5t4.5 2.5t7.5 -2l21.5 -11.5t14.5 -8.5q-2 0 -8 -1.5t-13 -4t-14 -6.5t-10 -11q-8 -15 -4.5 -22t11.5 -4t9 11t7 14q7 5 15 8q-17 -42 -42 -74q-2 -4 -5 -7t-5 -6q-2 5 -3.5 11t-3.5 11
q-12 24 -23.5 34t-22 11.5t-19.5 -3.5t-16 -11q-14 -12 -18.5 -28t1.5 -28q3 -6 9.5 -7.5t13 0t11.5 6t6 10.5q3 12 2.5 24t7.5 16t23.5 -8t20.5 -44v-6q-72 -77 -185 -77q-131 0 -208 101q-38 51 -50.5 118.5t-12.5 155.5q0 86 13 154t51 119q77 101 207 101
q131 0 207 -100q76 -101 76 -274v-6q-16 -11 -35.5 -19t-33.5 -3q-25 10 -27 29.5t12 31.5q15 11 29 4.5t16 -17.5zM505 100q30 76 30 222q0 92 -10 162t-31 119q0 2 -2 6q-6 -19 -13.5 -28t-15 -11.5t-15 -0.5t-13.5 5q-14 7 -20 19t-3 23t16 12t17 -9q5 -10 6 -20t9 -11
q6 -2 14 7.5t11 27.5q-41 78 -109 78q-57 0 -87 -77q-15 -38 -29 -93.5t-14 -129.5q0 -83 13.5 -147.5t31.5 -112.5l3 6q3 5 5 4.5t4 -2.5l4 -6q4 6 11 10q6 3 16 3.5t24 -4.5q14 -6 19 -16t4 -21t-6.5 -20t-12.5 -13q-6 -4 -11 -2t-7.5 5.5t-2 8t5.5 5.5q9 3 14.5 15
t-4.5 23q-9 11 -25.5 7.5t-24.5 -25.5q-2 -8 -1 -13q40 -83 112 -83q57 0 87 77z" />
    <glyph glyph-name="one" unicode="1" 
d="M585 25v-25h-272v16q-8 5 -8.5 12.5t1.5 13.5q3 10 10 15t14 4q8 -2 9.5 -9.5t-4.5 -11.5q-5 -4 -11.5 -6t-6.5 -7l1 -2h35q15 0 15 12v511q0 32 -14 46t-32 0l-30 -22l-17 17l243 198h12v-397q-13 -15 -34 -19q-28 -5 -43 3t-15 15q0 8 10.5 11t18.5 8q9 6 7 18.5
t-14 14.5q-11 2 -22.5 -6t-16.5 -22q-2 -7 -3 -15.5t3.5 -16t16.5 -13t36 -8.5q19 -2 33 4t23 14v-110q-9 13 -8.5 22t2.5 17q1 4 -1.5 7t-7 3.5t-9 -1t-7.5 -5.5q-3 -5 -1 -11.5t5 -12.5q4 -7 10 -15q-4 1 -8 3t-8 3t-9 3q-8 4 -17 9.5t-11 10.5q-2 6 -1.5 10.5t-4.5 7.5
q-3 1 -7 -6q-2 -4 -3 -8q-7 5 -13 10l-9.5 9.5t-4.5 9.5q-1 4 -6 9t-10.5 7t-8 0t2.5 -12q5 -11 17 -21.5t26 -19.5q16 -11 34 -20q-33 -2 -51 -7t-27 -10q-11 -6 -13 -14q20 12 39 15.5t36 1.5q18 -2 37 -8q-9 2 -20 2q-9 0 -19.5 -2t-20.5 -8q-9 -6 -11 -14.5t0 -16
t7.5 -13t11.5 -6.5q11 -2 15 6.5t-3 10.5q-4 1 -8 3t-5.5 5t1.5 7.5t12 10.5t22 5t24 -4q13 -4 28 -11l3 -2v-77q-6 -14 -18 -32.5t-29 -20.5q-23 -2 -33 11t-4 27q6 13 19 13.5t19 -7.5q3 -3 7 -1.5t6.5 5t2 9t-6.5 9.5t-16.5 5t-21 -3t-17.5 -13t-6 -24t6 -23.5t10 -12.5
q6 -5 13 -6q-3 -3 -4 -6q-1 -2 0 -4t7 -3q11 -2 18.5 1.5t12.5 8.5q2 2 6.5 7.5l9.5 11.5l11 15q1 -1 3 -1t2.5 -0.5t2.5 0.5v-45q0 -24 8 -35.5t36 -11.5h11z" />
    <glyph glyph-name="two" unicode="2" 
d="M712 202q7 -3 11 -8.5t6 -10.5q3 -6 3 -13v-21v-149h-591l-12 25q48 67 123 147l31.5 31.5l31.5 32.5l60 60q35 38 60.5 70.5t40.5 59.5q30 55 30 109q0 76 -50 121q-31 29 -78 40q5 -3 9 -7.5t6 -12.5q3 -9 -4 -9q-3 0 -7 1q3 -7 1 -14q-2 -6 -7 -14t-19 -16
q-13 -8 -24 -5.5t-18.5 10t-11.5 17.5t-3 18q1 7 5.5 9.5t9 2t7.5 -3.5t1 -7q-4 -9 2.5 -20.5t20.5 -10.5t21.5 15.5t-3.5 34.5q-6 8 -17.5 12t-24.5 6q-51 0 -95 -26q-37 -23 -37 -68v-24h-29v143h1q-8 4 -6 7q2 7 7 5q4 -2 7 -5l4 -4l1 1q2 2 2 4q-1 2 -5 6.5t-10 1.5
q-6 -2 -10 1t-6 8t4 10.5t20 -0.5q8 -3 11.5 -8.5t5.5 -10.5q2 -6 3 -13v-3v-27q29 17 73 27q45 9 95 9h66t81.5 -4t84.5 -15t75 -33t49 -50t21 -64l3.5 -26.5t1 -23.5t-3 -26t-7.5 -34q-2 -6 -3 -11.5t-3 -10.5h-2q-24 -5 -45 -6q-18 -1 -36 2t-26 14q-17 20 -9 38.5
t26 21.5q19 3 28 -9.5t5 -23.5q-2 -5 2.5 -8.5t10.5 -3.5t11.5 3.5t5.5 12.5q1 9 -5.5 20t-17.5 18.5t-25.5 9t-30.5 -8.5q-17 -11 -23 -20.5t-7 -17.5q-1 -9 3 -17q-6 1 -10 0q-8 -2 -3 -11q5 -11 15 -17t18 -8q4 -1 12.5 -1.5t18.5 -1.5l24 -2q0 -4 2 -7q2 -2 5.5 -3.5
t10.5 2.5l18 6.5t21 8.5q-7 -17 -19 -36t-33 -47q-17 -5 -29.5 -12.5t-15.5 -18.5q-10 9 -17 18q-6 8 -9.5 16.5t-0.5 14.5q7 12 17 13.5t11 -7.5t11 -8.5t10 11.5q0 5 -4 10.5t-11 9t-15.5 2.5t-16.5 -8q-16 -15 -15.5 -28t5.5 -22q2 -5 4.5 -10t4.5 -10q3 -5 5 -11
q-20 16 -39 27q-17 10 -35.5 17t-32.5 5q-29 -5 -34 -21.5t7 -24.5q6 -4 12.5 -4t12 2.5t7.5 6.5t-1 8q-6 8 -3.5 15t14.5 4q6 -2 14 -5t16 -7l15 -7.5t11 -6.5q-2 -4 -3 -8q-1 -3 -1 -6t2 -5t4 -1.5t4.5 2t5.5 1.5t8 -3q5 -4 11 -8t12 -9q-4 -4 -7.5 -7t-7.5 -7
q-7 -2 -13 -5t-10 -9q-5 -8 -6 -12l-28.5 -28.5l-27.5 -28.5q-1 11 -8 24q-12 24 -23.5 34t-21.5 11.5t-19 -3.5t-16 -11q-15 -12 -19 -28t2 -28q3 -6 9.5 -7.5t12.5 0t11 6t7 10.5q3 12 2.5 24t7.5 16t23 -8t20 -44q1 -3 1 -8q-15 -16 -25.5 -28.5l-19.5 -23.5t-16.5 -22
l-15.5 -23h187q94 0 94 58v38q-5 3 -5 7q1 2 3.5 4t4.5 1t3 -2.5t3 -3.5l4 -4q1 0 2 1t1 4q0 2 -4 6.5t-10 2.5q-6 -3 -10 0.5t-6 8.5q-2 4 3.5 9.5t20.5 -0.5z" />
    <glyph glyph-name="three" unicode="3" 
d="M738 344q9 -27 9 -57q0 -32 -7 -60q-14 -10 -15 -21q-9 6 -16 12q-6 5 -10.5 11.5t-2.5 11.5q4 11 11.5 13.5t9.5 -4.5q2 -8 10.5 -5.5t6.5 10.5q-1 4 -5.5 8t-10.5 5.5t-12.5 0t-11.5 -8.5q-11 -14 -8 -24.5t8 -17.5q2 -3 5 -7t5 -7l6 -8q-18 9 -35 15q-15 5 -31 8.5
t-27 -0.5t-16.5 -10.5t-6.5 -12.5t1.5 -11t7.5 -7q11 -5 19.5 2t2.5 13q-5 5 -4.5 11.5t10.5 5.5t26 -5t23 -8q-2 -3 -2 -6q-2 -7 3 -9q4 -3 7 2t11 1l10 -5t11 -6q-1 -1 -1 -2q-4 -6 -5 -9q-6 -2 -12 -6t-8 -11q-5 -9 -3 -17q-22 -27 -49 -48q-1 2 -2 4.5t-2 4.5
q-12 24 -23.5 34.5t-22 11.5t-20 -4t-16.5 -11q-14 -12 -18.5 -28t2.5 -27q3 -6 9.5 -8t12.5 -0.5t11 6t7 10.5q3 12 2.5 24.5t7.5 16.5q8 3 21 -6.5t20 -35.5q-30 -21 -69.5 -37t-84.5 -26.5t-93 -16t-95 -6.5q-45 0 -72 20.5t-35 41.5q-4 10 -1 20t9.5 17.5t15 11
t17.5 0.5q18 -5 23.5 -17.5t0.5 -20.5t-16 -12.5t-19 -2.5q4 -8 14 -15q8 -6 22 -11t35 -6h13q-8 8 -6.5 15.5t4.5 14.5q5 11 14.5 15.5t18.5 2.5q8 -2 9 -12t-7 -14q-7 -3 -15 -4.5t-9 -6.5q0 -7 8 -12q29 0 50.5 2.5t40.5 9.5t36.5 18t38.5 28q45 35 71 86t26 101
q0 35 -16.5 73.5t-48.5 64.5q-16 13 -28 20t-24 10t-27 3.5t-37 0.5l-14 40q61 15 100 54t39 85q0 41 -38 70l-15 9q2 -5 -0.5 -16t-23.5 -23q-13 -8 -24.5 -6.5t-19.5 8t-12.5 15.5t-3.5 16q1 6 5.5 8.5t9 2.5t7.5 -2.5t1 -6.5q-3 -8 3.5 -18.5t21.5 -8.5q13 1 20 12.5
t0 25.5q-30 11 -66 11q-48 0 -94 -26q-32 -20 -32 -63v-10h-29v126q-5 3 -4 6q2 7 7 5q4 -2 7 -5l4 -4l1 1q2 2 2 3q0 2 -4.5 7t-10.5 2q-6 -2 -10 1t-6 8t4 10.5t20 -0.5q8 -3 11.5 -9t5.5 -11q2 -6 3 -13v-20h-1v-12q35 19 76 29q22 6 50 10.5t51 4.5q18 0 40 -2.5t44 -7
t41 -11.5t31 -15q47 -32 47 -81q0 -23 -13 -47.5t-36.5 -45.5t-55.5 -37.5t-70 -23.5q27 0 57 -3.5t59.5 -10t55 -16.5t42.5 -23q37 -27 56 -68l-18.5 -13t-25 -14.5t-26.5 -9.5t-23 1q-13 5 -19.5 13.5t-7.5 17.5t2.5 17t11.5 14q15 11 28.5 4t15.5 -18q1 -6 6.5 -6.5t11 2
t8.5 8.5t-1 14t-14.5 15t-24 8.5t-27 -4.5t-22.5 -23q-10 -17 -10.5 -28t2.5 -19q4 -9 10 -14q-6 -2 -9 -5q-7 -6 2 -11q11 -8 22 -8t19 2q4 1 12.5 4.5l17.5 7.5q11 4 22 9q1 -4 5 -5q6 -4 15 7q4 5 9.5 11t11.5 14z" />
    <glyph glyph-name="four" unicode="4" 
d="M781 181q13 -9 11.5 -13.5t-9.5 -5.5t-18 1.5t-14 7.5t-13 8.5t-18 5.5q-11 3 -24 4q2 -8 3 -13t0 -8.5t-5 -3.5q-8 0 -11.5 6t-8.5 11q-6 6 -21.5 6.5t-29.5 -1.5q-7 -1 -13.5 -1.5t-11.5 -1.5l-12 -2l22 -13q8 -6 15.5 -12.5t7.5 -14.5t-5 -12.5t-11 -6.5t-11.5 -0.5
t-7.5 7.5q-4 11 -9 23t-25 21v-13q-4 -3 -10 -7t-13.5 -6.5t-16.5 -3t-19 3.5q-23 8 -31 20.5t-5 18.5q4 5 13 2.5t18 -1.5t13 11.5t-4 16.5t-20 5.5t-22 -9.5q-5 -5 -9 -10.5t-4 -13.5t6.5 -17.5t23.5 -21.5q11 -9 23.5 -11t22.5 0q11 2 23 6q2 1 4 4q3 3 7 9v-57
q-6 -12 -16 -26t-23 -15q-20 -2 -28.5 10t-3.5 23t16.5 11.5t16.5 -5.5q3 -3 6.5 -2t5.5 4.5t1.5 8t-5.5 8.5q-5 3 -14.5 4t-18.5 -2.5t-15 -11t-5 -20.5q1 -14 4.5 -21t8.5 -11t12 -5q-3 -2 -4 -5q-2 -6 6 -7q9 -1 16.5 2t11.5 7q2 2 5.5 7t7.5 10q4 6 10 13q1 -1 2 -1
q1 -1 3 -1v-1q0 -24 7.5 -36t36.5 -12h4v-25h-247v20q-12 5 -12.5 13t1.5 15q3 9 10 14.5t15 4.5q8 -2 9 -10t-4 -12q-6 -3 -12.5 -5t-6.5 -7t7 -8h13q15 0 15 13v136h-315l-11 17l450 521q-6 4 -4 7q1 2 3.5 5t6.5 1t8 -6l5 -5q1 0 2 1q2 2 2 4q-1 3 -6 9t-13 3
q-8 -4 -13 0.5t-7 10.5q-2 5 5 12.5t26 -0.5q15 -6 19.5 -19t5.5 -19v-434q-3 3 -6.5 6t-6.5 8q-8 11 -7.5 18.5t2.5 15.5q1 3 -1.5 5.5t-6.5 3.5t-8 0t-6 -5q-2 -5 -0.5 -11t4.5 -11q4 -6 8 -13q-3 1 -7 3t-14 6q-8 3 -15.5 7.5t-9.5 9.5t-1.5 9t-4.5 6q-4 1 -6 -5
q-1 -3 -2 -7l-11 9t-8.5 8t-4.5 8t-5.5 8t-9 6t-6.5 0.5t2 -10.5t15.5 -18.5t22.5 -17.5q13 -9 29 -17q-29 -2 -44.5 -6t-23.5 -9q-9 -5 -11 -12q17 11 34.5 13t31.5 1q17 -2 32 -6q-9 2 -18 2q-8 0 -17 -2t-17 -7q-9 -6 -10.5 -13t0.5 -14t6.5 -11.5t9.5 -5.5
q10 -2 13.5 5.5t-3.5 9.5q-3 1 -6.5 3t-4.5 4.5t1.5 6t10.5 8.5t19 4.5t21 -3.5l24 -9l16 -9v-23h25q15 5 29.5 12.5t21.5 20.5q8 14 8.5 21.5t-3.5 10t-10 2.5t-12 -1t-9 2.5t-3 8.5t3 10.5t11 8.5q7 3 18 -0.5t20 -11t12 -19.5t-4 -27q-8 -15 -20 -25.5t-23 -16.5
q-13 -7 -28 -11q26 5 52 16q22 10 44.5 28t39.5 47q3 -11 -6 -27q-8 -14 -27 -33t-60 -43q30 1 57 -2q23 -2 46 -7t37 -14zM398 231v288l-252 -288h252z" />
    <glyph glyph-name="five" unicode="5" 
d="M711 308q0 -4 3.5 -5.5t8 -0.5t7.5 5t2 10q-2 6 -8.5 13t-16 10.5t-20.5 1.5t-20 -13q-10 -11 -12.5 -19t-1.5 -14q1 -7 5 -12q-4 -1 -7 -2q-7 -2 -1 -8q7 -8 15 -10.5t14 -1.5q3 0 9.5 1t13.5 3q8 2 18 3q1 -3 3 -5q4 -4 12 2q2 2 3.5 3t3.5 3q-2 -38 -15 -72
q-12 -10 -13 -18q-9 6 -15 12q-5 5 -9 10.5t-2 10.5q4 10 11 12t9 -5q2 -6 9.5 -4t6.5 9q-1 4 -5 7.5t-9.5 5.5t-12 0.5t-11.5 -8.5q-10 -13 -8 -22.5t7 -15.5q2 -3 5 -7t5 -7q3 -4 5 -7q-17 9 -33 15q-14 5 -28 8t-25 0q-20 -8 -22.5 -21t8.5 -18q10 -4 18 2.5t3 11.5
t-4.5 11t9.5 5t24.5 -5.5t21.5 -6.5l-2 -6q-1 -2 -0.5 -5t2.5 -4q4 -3 6.5 1.5t10.5 0.5q3 -2 6.5 -3.5l8.5 -3.5q-14 -19 -35 -39t-46 -40q-2 8 -6 14q-11 18 -20 25t-17 7t-14.5 -4.5t-11.5 -9.5q-10 -10 -12 -22t3 -20q6 -8 17 -4.5t13 12.5q2 10 0.5 19t4.5 12
q5 4 17 -3.5t18 -30.5q-8 -6 -15.5 -11l-15.5 -10q-63 -38 -135.5 -51.5t-165.5 -11.5q-25 1 -44.5 10t-32.5 22.5t-20 29t-7 30.5t7 24.5t17.5 14.5t22.5 4.5t21 -6.5q18 -12 13.5 -21.5t-11.5 -17.5q-4 -3 -9.5 -6t-11.5 -3.5t-11.5 2t-8.5 9.5q2 -17 9 -31q6 -12 18 -22
t34 -12q10 -1 19.5 -1h18.5q-17 17 -13 27t11 16q8 6 17 5.5t15 -5.5q5 -5 2 -13t-11 -7q-7 0 -13.5 2.5t-8.5 -1.5q-2 -3 0 -9.5t10 -13.5q57 3 105 23t87 50q43 34 67 78q23 44 23 91q0 73 -59 123q-57 50 -143 50q-46 0 -96.5 -14t-93.5 -31v318h317q16 0 16 13v29
q-6 4 -5 7q1 2 3 4.5t4 0.5q4 -2 7 -5l4 -4l1 1q2 2 2 4t-4.5 6.5t-10.5 2.5q-6 -3 -10 0.5t-6 7.5q-2 5 4 10.5t20 -0.5q8 -3 12 -8.5t6 -10.5q3 -6 3 -13v-2v-102q0 -14 -16 -14h-250q1 -3 0 -6l-2 -4q8 1 15 -1q6 -2 12.5 -7.5t11.5 -18.5t0 -23t-14 -16t-20 -8.5
t-18 -0.5t-8.5 6.5t0 8.5t5 6.5t7.5 0.5q8 -5 21 -1t15 17q2 14 -11 22t-35 0q-9 -3 -15 -11.5t-10 -19.5v-118q79 32 171 32q27 0 60 -3.5t66 -11t62 -18.5t49 -26q78 -59 78 -141v-3q-14 -5 -33 -9.5t-30 3.5q-17 12 -15 27t15 20q14 6 23 -1.5t8 -15.5zM257 592
q3 6 5.5 12t4.5 8q3 5 9.5 10t14.5 7h-34v-37z" />
    <glyph glyph-name="six" unicode="6" 
d="M694 376q33 -53 33 -123v-4q-13 -10 -15 -22q-10 5 -17 11q-6 5 -10.5 11t-2.5 11q3 11 10.5 14t9.5 -4q3 -7 11 -4t6 11q-1 4 -5.5 7.5t-10.5 5t-12.5 -1t-11.5 -9.5q-10 -15 -7.5 -25t8.5 -17q2 -3 5.5 -7t5.5 -7l6 -8q-18 9 -36 14q-15 5 -31 7.5t-27 -2.5
q-22 -9 -23 -23.5t10 -18.5t19.5 3.5t2.5 12.5t-5.5 11.5t10.5 6.5q10 -1 26.5 -4.5t23.5 -5.5q-1 -3 -1 -7q0 -8 2 -9q4 -3 7 2t11 1q8 -3 20 -8t14 -7q-2 0 -7 -1.5t-11 -4t-11.5 -7t-7.5 -10.5q-5 -14 -1.5 -20t9.5 -3q7 4 7 11t5 12q2 2 5.5 4.5t7.5 4.5
q-15 -49 -48 -88q-3 8 -10 15q-18 22 -32 29.5t-25 6.5t-19 -8.5t-14 -14.5q-11 -16 -11.5 -33t8.5 -28q4 -5 11 -5.5t13 2.5t10.5 9t4.5 12q0 14 -4 26t4 18q7 5 24.5 -2.5t30.5 -36.5q-4 -4 -7.5 -8t-7.5 -7q-85 -77 -208 -77q-126 0 -209 80q-82 79 -82 200
q0 178 126 315q31 34 61.5 60t65 47t76.5 37t96 30l11 -25q-36 -14 -62 -26.5t-47 -26t-39.5 -28.5l-40.5 -34q-88 -77 -122 -181q82 61 185 61q122 0 196 -67q8 -7 15 -14.5l14 -15.5q-4 -17 -11 -35t-19 -23q-11 -5 -20.5 -4t-16 5.5t-10 12t-2.5 16.5q2 17 15.5 21.5
t21.5 -1.5q4 -3 8 0t5.5 8t-0.5 10.5t-9 8.5q-8 3 -19 0t-20.5 -10.5t-14 -20t0.5 -28.5q5 -17 12 -24.5t14 -10.5q7 -4 15 -2q-2 -4 -2 -8q0 -8 8 -6q11 2 18.5 8.5t11.5 13.5q2 3 4.5 11t5.5 16l8 20q1 -1 3 -1q4 0 7 3zM527 71q39 52 39 152q0 101 -46 163
q-46 64 -119 64q-47 0 -87 -23t-62 -64q-6 -36 -6 -83q0 -103 40 -174q-2 7 -3.5 13t-2.5 9q-1 6 0.5 15.5t9.5 18.5q5 8 9 2q2 -3 2 -7q5 5 12 9q6 2 15.5 2.5t22.5 -6.5q13 -6 16 -17t0 -22t-9.5 -20.5t-13.5 -12.5t-11.5 -1t-6 6.5t-0.5 8.5t6 5q9 2 16.5 14t-0.5 24
q-8 11 -24 9t-27 -24q-6 -11 -2 -26.5t10 -28.5q24 -29 51 -43q29 -16 60 -16q73 0 111 53z" />
    <glyph glyph-name="seven" unicode="7" 
d="M486 73q0 -49 59 -49h29v-26h-275q-17 0 -17 14q0 225 225 557q4 11 5 22t-4 19q-11 19 -27.5 18.5t-24.5 -12.5q-7 -13 0.5 -23t16.5 -10q5 0 6.5 -4t0 -8.5t-6 -7.5t-11.5 -1t-14 10t-10 18t-0.5 21t15.5 19t22.5 10t15.5 0q7 -2 12 -7q1 4 3 7q3 5 9 0q8 -8 10 -16.5
t1 -14.5q-1 -2 -1.5 -7t-2.5 -11l21.5 31l21.5 31h-279q-49 0 -73.5 -8.5t-24.5 -38.5v-11h-31v178h31v-31q0 -14 15 -14h535l12 -19q-70 -89 -120 -169.5t-82 -152.5q-17 -2 -37 -0.5t-30 13.5q-14 20 -7.5 37t22.5 19q16 3 23.5 -8.5t4.5 -21.5q-2 -5 2 -8t9 -3t9.5 3.5
t4.5 11.5q1 8 -4.5 18t-14.5 17.5t-21.5 8.5t-26.5 -9t-19 -19t-6 -16q-1 -9 3 -16q-4 1 -8 0q-3 -1 -4.5 -3t0.5 -7q5 -11 13 -16t15 -7q3 -1 11 -1.5t16 -1.5l20 -2q0 -4 2 -7q2 -2 4.5 -3t8.5 2q1 1 3 1q-5 -10 -10 -25q-5 -14 -9.5 -29t-9.5 -30q-8 -5 -13 -10.5
t-6 -12.5q-8 7 -14 14q-5 6 -9 13t-2 12q4 11 11.5 13t9.5 -6q1 -8 9 -6t7 10q0 4 -4 8.5t-9.5 6.5t-12 1t-11.5 -8q-11 -14 -10 -24.5t6 -17.5q2 -4 4.5 -8t4.5 -8t4 -9q-16 11 -32 19q-14 7 -28 12t-25 2q-21 -5 -24 -20t7 -21q10 -5 18.5 1t4.5 12q-5 7 -4 13.5t10 4.5
t24 -8t21 -10q-1 -3 -2 -7q-2 -7 2 -10t6.5 1.5t10.5 -0.5q4 -2 9 -5.5t10 -6.5q5 -4 11 -8q-9 -1 -16 -3q-16 -4 -22 -15q-6 -14 -3.5 -20t9.5 -4q6 2 7 9t6 12q8 6 19 8q-3 -21 -5 -42t-3 -43q-8 9 -18 16.5t-24 10.5q-25 6 -39 4t-21 -8t-9 -14.5t-2 -16.5
q-1 -16 8 -27.5t21 -13.5q6 -1 11 2t8 8t3 10.5t-3 9.5q-8 9 -16.5 15t-6.5 14q2 7 19.5 10t43.5 -11q16 -8 24 -22q-1 -10 -1 -19v-19z" />
    <glyph glyph-name="eight" unicode="8" 
d="M704 180q3 -5 7.5 -7.5t2.5 4.5q-1 7 -5 14t-13 2q-9 -6 -15 -12.5t-6 -14.5q-7 5 -11 9q-11 9 -10 17q2 8 6.5 10t6.5 -3t7 -3t3 8t-11 9.5t-15 -7.5q-5 -11 -3 -18.5t6 -12.5q2 -2 4 -5.5t4 -5.5q2 -4 4 -6q-13 7 -24 11q-10 4 -20 6t-17 -1q-14 -7 -14 -18t8 -14
q7 -3 12.5 2t0.5 10q-5 4 -4.5 9t6.5 4q7 -1 17.5 -3.5t15.5 -4.5q-1 -2 -1 -5q0 -6 2 -7q3 -2 4.5 1.5t7.5 0.5q2 -2 6 -4l8 -4q4 -3 8 -4q-6 -1 -10 -3t-7.5 -5.5t-5.5 -8.5q-2 -10 0.5 -14.5t6.5 -2.5t3.5 7.5t2.5 9.5q4 4 9 7t9 1q2 -2 8.5 -6l11.5 -7q-22 -38 -59 -65
q3 18 0.5 28.5t-7 16t-11 6.5t-12.5 1q-13 0 -21.5 -7.5t-10.5 -18.5t8 -16t16 1q7 6 12 14t10 6q5 -1 8 -11t-1 -26q-84 -60 -213 -60q-117 0 -190 57q-73 55 -73 145q0 75 52 131q51 57 145 88q-60 22 -99 69q-40 44 -40 94q0 76 63 124q64 49 162 49q89 0 151 -42
q60 -42 60 -101t-33 -102q-33 -44 -96 -69l32 -13q42 -17 74 -38.5t55 -47.5l11 -14.5t10 -14.5q-5 -12 -12.5 -23.5t-18.5 -13.5q-20 -4 -31 7.5t-8 23.5q4 12 15.5 13t18.5 -4q3 -3 6.5 -1.5t5 5t0.5 8t-7 7.5t-16 3t-18.5 -3.5t-13.5 -12t-2 -21.5q3 -14 8.5 -21.5
t10.5 -10.5q6 -4 13 -4q-2 -3 -3 -6q-2 -6 7 -6q10 0 17 3.5t10 8.5q2 2 5.5 7.5l6.5 10.5l8 14q0 -1 2 -1q1 0 2.5 -0.5t3.5 0.5q14 -33 14 -65q0 -52 -22 -93q-8 5 -19.5 16t-9.5 22q2 14 8 18t10 0zM310 535q23 -35 62 -54l69 -36q87 37 87 134q0 55 -36 93q-3 2 -9 8
q9 -20 1.5 -29t-16.5 -14q-12 -7 -24.5 -4.5t-19.5 10.5t0 18t16 8q10 -2 18 -6.5t13 0.5q3 3 2.5 11t-7.5 18q-28 16 -65 16q-52 0 -82 -27q-31 -27 -31 -74q0 -37 22 -72zM536 64q43 42 43 111q0 51 -30 93q-31 43 -89 74l-84 44q-60 -23 -94 -70q-33 -47 -33 -108
q0 -42 14 -78q8 -11 17 -18.5t19 -7.5q21 0 29 14t1 26t-18.5 11t-16.5 -9q-3 -4 -7 -3t-6.5 4.5t-2.5 8.5t5 10q5 4 14.5 6t19.5 0t17.5 -10t8.5 -23q0 -15 -3 -23t-8 -13t-12 -7q3 -2 5 -5q4 -6 -5 -8q-10 -2 -18 0.5t-13 6.5l-14 14q8 -14 23 -31q48 -51 127 -51
q69 0 111 42z" />
    <glyph glyph-name="nine" unicode="9" 
d="M687 280q6 9 12 12q-3 -7 -6.5 -13.5l-7.5 -14.5q-2 10 2 16zM673 443q14 2 20 -8t3 -18q-1 -5 2 -7.5t7.5 -2.5t8.5 3t4 10t-4.5 16t-12 15t-18 7.5t-21.5 -7.5t-15.5 -17t-5.5 -14q-1 -7 2 -13q-4 1 -7 0q-6 -2 -2 -9q4 -9 10.5 -14t12.5 -6q2 -1 8.5 -1.5t13.5 -1.5
q8 -1 17 -1q0 -3 2 -6q2 -2 4 -3t7 2q3 2 8 4l10 4q-4 -17 -9.5 -34t-12.5 -34q-10 -2 -17.5 -6.5t-9.5 -10.5l-9 15q-3 6 -4.5 12t1.5 11q5 8 12 8t6 -7t5.5 -7.5t8.5 7.5t-7.5 16t-20.5 -1q-12 -9 -13 -18.5t1 -16.5l3 -15q1 -4 2 -9l-22 23q-9 9 -19.5 16t-19.5 7
q-19 0 -24 -12t2 -19q6 -7 14.5 -3.5t5.5 9.5q-2 7 0 12t9 2q7 -4 17.5 -12t15.5 -13q-2 -2 -3 -5q-1 -2 -2 -4.5t1 -4.5q2 -4 5.5 0t8.5 -2q2 -3 5.5 -7t6.5 -8q4 -4 8 -9q-7 1 -13 1q-5 0 -11.5 -2t-10.5 -7q-8 -9 -6.5 -15.5t6.5 -5.5t7.5 7t7.5 8q10 5 20 2
q-20 -33 -50 -66q-1 23 -11.5 28t-21.5 4q-14 0 -23 -7.5t-11 -18.5t8.5 -16.5t17.5 1.5q7 6 12 14t11 6q3 -1 6 -6.5t3 -14.5q-122 -129 -330 -183l-11 25q36 13 63 25.5t49 26t41.5 28.5t40.5 33q21 19 34.5 35t23 32.5t16.5 36t15 44.5q-21 -15 -39 -22t-36 -10t-37.5 -3
h-43.5q-29 0 -51 5t-40 14.5t-34 23.5t-34 33q-34 35 -50 79t-16 95q0 112 80 187q80 73 202 73q123 0 202 -76q80 -77 80 -195q0 -46 -9 -89q-6 -1 -15.5 -2t-19.5 -1t-19 3t-14 9q-12 17 -6.5 32t18.5 17zM581 379q2 19 3.5 39t1.5 42q0 102 -39 168q-2 -17 -12 -20.5
t-20 -4.5q-14 -1 -24.5 6.5t-12.5 18.5t8 16.5t18 -0.5q8 -5 13.5 -13t12.5 -6q6 2 8 17l-4 6l-4 6q-48 59 -111 59q-70 0 -109 -51q-38 -52 -38 -148q0 -87 38 -148q12 -8 27 -15.5t27 -2.5q20 8 22.5 23.5t-8.5 24.5t-21.5 4t-12.5 -14q-1 -5 -5 -5.5t-8 2t-6 7.5t1 11
t12 11t19 6.5t19.5 -3.5t15.5 -18q6 -14 5.5 -23.5t-2.5 -14.5q-4 -7 -9 -10q4 -2 6 -4t2 -4.5t-4 -4.5q-8 -5 -16.5 -6t-14.5 1q-5 2 -17.5 8.5t-17.5 8.5q44 -53 110 -53q47 0 85 22q39 24 62 62z" />
    <glyph glyph-name="A" unicode="A" horiz-adv-x="664" 
d="M498 85q18 10 23.5 26t6.5 24l11 -33l-17 -11t-19 -16q-8 -4 -12 -5t-3 2.5t-4 5.5h-1q4 2 7.5 3.5t7.5 3.5zM438 236q-1 12 2.5 20.5t9.5 13t13.5 5.5t13.5 -2l6 -3l7 -22q-2 -10 -7 -14q-6 -6 1.5 -13.5t15.5 -1.5l8 -24l-4 -2q-6 7 -11 12l-16 16q-4 4 -11.5 6.5
t-16.5 0.5q-7 -1 -5 -7q-5 7 -6 15zM543 90q11 -29 22.5 -43.5t36.5 -14.5h12v-30h-238v30h22q9 0 14 5q4 6 0 13l-81 251h-124l-52 -179q-2 -10 -4 -18.5t-3 -16.5q2 -13 7.5 -27.5t16.5 -22.5q13 -5 33 -5h1q17 5 15 20q-2 14 -13.5 19t-19.5 1q-4 -2 -7.5 1t-4.5 7t1 8
t9 5t17 -2.5t18.5 -10t12.5 -16.5t-2 -22q-5 -9 -11 -14v-26h-167v30h2q-15 5 -16 12.5t1 14.5q2 8 9 13t15 4t9 -8.5t-4 -10.5q-5 -4 -11.5 -5.5t-6.5 -5.5q0 -5 9.5 -9.5t26.5 -0.5q10 2 16 7t10 10l27 92h-2q-10 2 -8 8.5t7 14.5l8 13l9 15l7 24h-3q-11 2 -9 10t8 17
q5 6 11 17t11 19l5 17q-4 -1 -11 -3t-12 -8q-3 -3 -2.5 -6.5t1.5 -6.5t1 -5.5t-3 -4.5q-7 -3 -12 1.5t-4 11.5t5.5 14.5t12.5 8.5q-6 2 -11 3t-11 1t-11 -2q-6 -2 -4.5 -8.5t-3.5 -10.5t-9 4.5t4 17.5q5 5 9 6.5t8.5 1.5t9 -1.5t10.5 -2.5q-4 1 -8 4q-4 2 -8.5 6t-8.5 10
q-7 9 -4.5 16.5t8.5 9.5t8.5 -3t0.5 -8q-2 -4 -1 -10.5t6 -9.5t13 -7t19 -2q-7 4 -11 8q-4 3 -7.5 7t-2.5 7q1 6 6.5 5.5t5.5 -6.5t4 -9t8 -4q3 -1 6.5 0t6.5 2l3 14h-3q-11 2 -9 10t8 16q5 7 12.5 20.5t10.5 19.5l7 23q-7 1 -9.5 8.5t3.5 16.5l12 19.5l13 21.5l12 41
q-7 3 -9 16t2 18l12.5 20l16.5 26l31 108q1 29 11.5 38.5t18.5 9.5q4 0 7 -4.5t3.5 -10t-0.5 -11.5t-5 -9q-7 -7 -11 -14l11 -33q2 6 7 6q7 0 8 -10t-1 -18q-1 -3 -1 -7v-9l79 -236l-7 -2q-18 -1 -35 2q-14 2 -28.5 8t-22.5 18q-15 23 -10.5 40t18.5 17q15 0 23 -14t6 -24
q-1 -5 3 -9t8.5 -5t8.5 2t4 11q0 9 -6 21t-15.5 21.5t-21 13t-23.5 -4.5t-16 -16.5t-4 -16.5q0 -9 4 -17q-5 1 -8 1q-7 0 -2 -10q5 -12 13.5 -19.5t14.5 -10.5q3 -2 10 -4t15 -4q9 -3 19 -6q1 -4 3 -7q2 -2 4.5 -4t7.5 0q8 2 18 5t21 8l38 -113q-4 2 -7.5 4.5t-5.5 4.5
q-8 6 -9 13t1 10t3.5 6.5t-3.5 6.5q-6 3 -11.5 -5.5t-3.5 -18.5q1 -5 4.5 -9t8.5 -7q5 -4 12 -6q-14 5 -31.5 12.5t-26.5 21.5q-8 11 -4 20q2 4 5 7q5 -3 10 -5q4 -2 8.5 -2t7.5 3q7 5 6.5 13t-6.5 14t-22.5 3t-24.5 -17t2 -36q-6 2 -19 7t-18 3q-7 -2 -8.5 -10.5t5.5 -10.5
q8 -2 10.5 0.5t2.5 6.5q0 2 4.5 1.5t10.5 -2.5t12 -5t9 -6q2 -2 3 -2.5t3 -2.5q-4 0 -11.5 -1.5t-9.5 -6.5q-2 -6 2 -11t8 -1q5 3 3 6.5t4 4.5q8 2 16 0q11 -6 23.5 -9t23.5 -5q-11 -3 -17.5 -7.5t-9.5 -9.5q-4 -5 -4 -11q-3 3 -6 4q-7 2 -8 -6q-2 -11 1.5 -20t8.5 -14l5 -5
t8 -7q-5 -4 -8.5 -12t-3.5 -24q0 -14 7 -21t16.5 -9.5t18.5 -1t14 5.5t5 9t-2.5 8.5t-6 4t-6.5 -2.5q-5 -7 -16 -7.5t-17 10.5q-5 8 -2 17t11 14l10 -8q-2 -4 -2 -7q0 -7 10 -8q8 -1 19 -3t24 -4q2 -4 3.5 -7.5t3.5 -5.5q2 -3 3 -5l1 -5q2 -9 0 -22t-13 -25
q-16 -16 -29 -17.5t-17 3.5q-3 5 2 11t9 14q3 7 -4.5 14.5t-15.5 3.5t-12 -14.5t0 -21.5q3 -10 10.5 -18t30.5 0q-7 -4 -1 -12q2 -3 7.5 -2t8.5 2l-3 -6q-3 -6 -12.5 -14t-10.5 -5t-3.5 5t-7.5 -2t-2 -10t9 -6q4 0 12 7t12 10q-3 -18 6 -29q8 -9 20.5 -6.5t15.5 8.5t2 12.5
t-7 8.5t-12 -4q-4 -3 -6 -6q-3 1 -5 4q-2 2 -2.5 6t1.5 11q4 13 15 23.5t19 17.5q-4 -4 -7 -8q-2 -4 -4.5 -7.5t-1.5 -7.5q1 -8 6.5 -13.5t8.5 -1.5q4 4 2 6l-4 4t-3 7.5t4 12.5q1 4 5 8zM254 340q2 -5 13.5 -4.5t25.5 12.5q9 8 11.5 17t2.5 17l-37 135l-54 -185h30
q-5 2 -6.5 6.5t-2.5 9.5q-2 9 2 17t11 11q8 3 13 -3.5t2 -12.5t-8 -11t-3 -9zM321 332l-10 35q-2 -8 -8 -17.5t-19 -14.5l-4 -2t-4 -1h45zM468 208q10 0 19.5 -9t16.5 -20h-1l-16 8l-15 8.5t-15 11.5q2 0 5 0.5t6 0.5zM447 216h1h-1z" />
    <glyph glyph-name="B" unicode="B" horiz-adv-x="684" 
d="M400 468q109 -23 169 -84q62 -64 62 -149q0 -2 -0.5 -3t-0.5 -3q-5 9 -9.5 18t-6.5 16q-5 15 -6.5 21t1.5 13q4 7 -1 15t-12 3q-4 -3 -4 -10t2 -14q2 -8 4 -17l-19 19q-8 6 -15 15t-7 14t1.5 9.5t-2.5 8.5q-3 3 -8 -2q-3 -3 -5 -6l-9 15l-6 12t-2 10q0 4 -3.5 10.5
t-7.5 11t-7 3.5t-1 -12t10.5 -25.5t18.5 -28.5q11 -16 26 -32q-30 13 -48 16t-28 2q-11 -2 -15 -7q21 2 40 -4t33 -14q17 -10 32 -22q-8 7 -18 11q-8 4 -18 6.5t-21 0.5t-14.5 -8t-3 -14t4 -15t8.5 -10q10 -6 15.5 -0.5t-0.5 10.5l-6 6t-3.5 6.5t3 6t13.5 4.5q10 1 21 -5
t21 -14q11 -9 23 -21l26 -39q-11 -64 -52 -110q-2 5 -4.5 10.5t-5.5 10.5q0 3 0.5 7t0.5 6q-1 2 -3 3.5t-4 -0.5q-1 2 -3 8q1 3 1 6.5t1 5.5t-2.5 3.5t-5.5 -3.5q-1 5 -2.5 11.5t-1.5 9.5q-4 29 6.5 38t23.5 9q12 0 17 -10.5t0 -20.5q-4 -8 -6.5 -8.5t-5.5 2t-7.5 4.5
t-12.5 0q-5 -2 -5.5 -6.5t2 -9.5t7.5 -9t11 -4q11 0 21 10.5t14 31.5q2 10 -3 17.5t-13.5 12t-19 5.5t-17.5 -2q-30 -14 -24 -68q0 -7 5 -22q-4 5 -9 10.5t-11 10.5q-1 3 -3 8.5t-3 8.5q-1 7 -0.5 11t3.5 9t-0.5 6t-5.5 -1q-2 -3 -2 -9.5t1 -9.5q1 -7 2.5 -10.5l3.5 -8.5
q-4 3 -7 5.5t-5 4.5q-5 3 -10.5 1t-10 -6.5t-7 -10.5t-0.5 -12q5 -11 11 -8t4 8q-3 6 -0.5 13t13.5 2q4 -2 11 -8.5t14 -14l13.5 -14.5t9.5 -11v-1q-5 2 -10 4.5t-10 4.5q-4 2 -8.5 5.5t-5.5 5.5q-2 3 -1.5 6t-2.5 5q-2 2 -3 -2t1 -8t8 -8q-10 1 -16 -7.5t-6 -17.5
q0 -10 8.5 -20.5t15.5 -10.5t8 8.5t-6 9.5q-7 2 -10.5 7.5t-0.5 13.5q3 7 12 6.5t17 -3.5q5 -2 9 -5t8 -7q0 -1 0.5 -1.5t0.5 -1.5q2 -4 4 -7l4 -6q-5 -5 -9 -8.5t-9 -8.5q-82 -68 -212 -68q-61 0 -113 23v-10h-153v28q-14 5 -14.5 13.5t1.5 15.5q3 10 10 15t15 4t9 -9
t-4 -12q-6 -4 -12.5 -6t-6.5 -7q0 -3 5 -7t15 -5h11q4 0 7 1q5 1 8.5 3t7.5 4v4v58q-8 -1 -11 9t0 17q2 5 5.5 20.5t5.5 29.5v35q-8 -1 -11 9.5t0 16.5q2 5 5.5 20.5t5.5 29.5v35q-8 0 -11 10t0 17q2 5 5.5 20.5t5.5 29.5v35q-6 -1 -10 8q-11 -2 -17 -9q-3 -4 -2.5 -7
t1.5 -6t1 -5.5t-3 -4.5q-7 -4 -12 1t-4 12t5.5 14.5t12.5 8.5q-6 2 -11 3t-10.5 1t-10.5 -2q-6 -3 -4.5 -9t-3.5 -10t-9.5 4t4.5 17q10 10 17.5 7.5t18.5 -3.5q-4 1 -8 4q-4 2 -8 6t-8 10q-7 10 -4.5 17.5t8.5 9.5q5 2 7.5 -3t0.5 -9t-1 -10.5t6 -9.5t13.5 -7t19.5 -2
q-6 4 -11 8q-5 3 -8.5 7t-2.5 7q1 6 6.5 5.5t5.5 -6.5t4 -9t9 -4q2 8 4 20t4 22v35q-8 -1 -11 9.5t0 16.5q2 5 5.5 20.5t5.5 29.5v10q0 22 -15 37q-16 14 -41 14h-9v15l-6 4t-5 4q-5 5 -1 12t10 5q5 -2 4 -5t1 -7q2 -2 4 -5.5t12 -5.5h28q-1 5 2.5 10t10.5 1l13 -5l16 -6h51
v1q11 5 29.5 9.5t33.5 7.5q15 4 36.5 5.5t35.5 1.5q78 0 125 -37q47 -38 47 -97q0 -41 -28 -73l-5 -4q7 7 3 11q-2 2 -5 3l4 16q2 7 2.5 13t1.5 9q1 5 -1 13t-9 14q-6 5 -9 0q-2 -3 -2 -6q-5 4 -11 6t-14.5 0t-19.5 -10t-13.5 -18t0.5 -19t9.5 -15.5t12.5 -8.5t10 1t5.5 7
t0 7.5t-5.5 3.5q-8 0 -15 9t-1 20t21 12.5t26 -15.5q5 -8 3.5 -21t-6.5 -24q-5 -14 -14 -28l-8 -9q-17 -11 -37 -18zM172 475h73h52t43 13q22 17 35 44.5t13 53.5q0 23 -7 46t-23 37t-38.5 16t-48.5 2q-9 0 -21.5 -1t-25 -3.5t-23.5 -6.5t-18 -9q-11 -8 -11 -22v-46l1 -9
q6 -21 15 -39q7 -15 17 -27.5t23 -14.5t22.5 1t15.5 9.5t8 15t-1 16.5q-5 16 -19.5 17t-22.5 -7q-4 -4 -9 -2t-7.5 7t-1.5 11t8 11q7 4 20 4.5t24.5 -5t19 -16.5t4.5 -29t-9 -27.5t-12 -14.5q-7 -5 -16 -5q3 -4 4 -8q2 -8 -8 -8q-12 -1 -21 4t-14 11q-2 2 -7 9t-10 15
l-12 18q-2 -2 -4 -2q-4 -2 -8 2v-61zM172 360l6 14t7 12q2 5 2 15q0 5 -3.5 3.5t-6.5 3.5q-2 5 2.5 7.5t9.5 0.5t5.5 -9t-0.5 -11q2 2 3 2.5t3 2.5q3 2 6.5 7.5t5.5 11t3 9.5t0 4q-4 1 -6.5 3t-0.5 8h-36v-84zM476 73q-2 2 -6 5t-9 6l-12 8q1 2 1 5q0 5 -8 5q-3 1 -9 1
q38 55 38 130q0 98 -64 154q-16 14 -31.5 24.5t-33 18t-39 11t-49.5 3.5h-28q2 -2 2 -3q2 -5 -4 -16.5t-9 -16.5q9 3 18 3t16 -5q12 -8 13 -23.5t-5 -20.5t-13 -4.5t-12 6.5q-2 3 -1.5 7t2.5 8t5 9q-2 3 -6 5q-7 3 -19 -2q-13 -7 -22 -22.5t-14 -27.5q3 6 7 10q3 4 7 7t9 4
q8 1 16 -5t4 -11q-3 -5 -6 -3t-6 5q-3 2 -9 1.5t-13 -6.5q-4 -4 -7.5 -9t-6.5 -10v-165l1 -9q6 -21 15 -38q7 -15 17 -28t23 -15q26 -4 38.5 11t6.5 31q-3 8 -8.5 12.5t-11.5 5.5t-12 -1t-10 -6t-9 -2t-7.5 6.5t-1.5 10.5t8 11q7 4 20 4.5t24.5 -4.5t19 -16t4.5 -29
t-9 -27.5t-12 -14.5q-7 -5 -16 -6q3 -4 4 -8q2 -7 -8 -7q-12 -1 -21 4t-14 10q-2 3 -7 9.5t-10 14.5q-6 8 -12 18q-2 -1 -4 -1t-3.5 -0.5t-3.5 1.5q3 -21 17.5 -33.5t40.5 -22.5q12 -5 31.5 -9t36.5 -4q42 0 66.5 13t51.5 42q2 3 5 6.5t5 6.5q11 -5 24.5 -13t15.5 -20
q3 -18 -5.5 -27t-19.5 -5q-10 4 -11.5 14t3.5 16q2 3 0.5 6t-4.5 4.5t-6.5 0.5t-5.5 -6q-3 -5 -2.5 -13.5t4 -16.5t10.5 -13t18 -3t17 6.5t8 9.5q3 5 3 11q2 -2 5 -3q5 -3 5 5q0 9 -3.5 15.5t-6.5 9.5z" />
    <glyph glyph-name="C" unicode="C" horiz-adv-x="817" 
d="M76 304q7 -9 2 -25.5t-11 -30.5q-10 32 -13 70q11 0 22 -14zM761 133q11 0 16 -6.5t3 -12.5t-7.5 -5t-7.5 5t-7.5 7t-10.5 0q-6 -2 -14 -6.5t-13 -14.5q7 3 13 5q5 2 10.5 2t7.5 -2q4 -4 0.5 -8.5t-8.5 -0.5t-10 2t-8 -5t-3 -8v-5q-119 -91 -268 -91q-82 0 -157 26
q-47 18 -88 45q-5 9 -6.5 18t1.5 17q8 20 23 23.5t23 -6.5q8 -11 2.5 -22.5t-13.5 -13.5q-4 -1 -5 -5t1 -8t6.5 -5.5t10.5 1.5q6 4 11.5 13t7 19t-2.5 20t-16 15q-13 5 -22 4.5t-14 -3.5q-6 -4 -10 -9q-1 4 -3 6t-4.5 2t-4.5 -4q-6 -9 -7 -17.5t1 -14.5q1 -3 3.5 -9l5.5 -13
q-15 10 -29 23q-18 15 -33 33q1 2 4 5q5 4 12.5 5.5t14.5 -4.5q6 -6 12 -0.5t1 12.5q-3 3 -10.5 3.5t-15.5 -1.5q-9 -2 -19 -4q9 14 21.5 19t20.5 7t16 -3t10 -11q2 -7 9.5 -9t11.5 6q5 8 -1 18.5t-23 12.5q-19 1 -33 -2q-7 -2 -13 -5q7 6 13 9.5t10.5 7.5t7 10t1.5 16
q-1 9 -5 14.5t-9 7.5t-9.5 0.5t-4.5 -5.5t2.5 -7l5 -6t4.5 -6.5t0 -7.5q-3 -8 -8.5 -13.5t-11.5 -10.5q-7 -5 -14 -9q7 9 3.5 21.5t-10.5 19.5q-6 8 -16.5 7.5t-12.5 -11.5q-2 -5 1 -7.5t7 -4t8 -4.5t5 -10q2 -8 -1.5 -16t-6.5 -14q-18 26 -29 51q-5 12 -10 26l9.5 18.5
l7.5 14.5q4 5 12 6t14 -1t9 -7.5t9 -5.5q5 1 6 8t-8 16q-5 5 -11.5 5t-12.5 -1l-14 -4q3 6 7 12q3 5 6.5 10l6.5 9t5 4.5t4 0t3.5 -0.5t2.5 2q2 6 -1 10q-2 3 -4 5q5 6 15.5 17.5t18.5 17.5q8 5 10.5 0t-0.5 -13q-2 -8 7 -10t16 8q7 9 0.5 21t-26.5 8q-10 -2 -21 -12
t-21 -22q-11 -14 -22 -31l2 10l3 18q2 8 0 18t-15 18q-7 4 -12.5 2t-10 -6t-6.5 -9.5t-1 -9.5q2 -8 9 -6.5t6 9.5t6 9.5t14 -6.5q3 -5 1.5 -12t-4.5 -15l-8 -18q-3 6 -11.5 9t-19.5 4q-1 3 -1 6.5v6.5q0 52 15 102q4 -8 5 -11q3 -7 6 -8t6 0q4 1 7 5q9 -7 18 -12
q8 -5 14.5 -9.5t10.5 -6.5q6 -3 16.5 -4t21.5 5q5 2 6 5.5t-1 5.5q-2 3 -7 5q8 3 12 11q4 7 6 18t-3 29t-16.5 25t-24 7t-24 -5t-16.5 -12t-3.5 -13t6 -9.5t9.5 -3t7 5.5q4 10 18.5 15t25.5 -8t5.5 -32t-30.5 -25q-9 -2 -18.5 1t-19 9t-18 13.5t-14.5 14.5q3 8 6 15t7 15
q33 70 93 124q62 53 139 81q79 29 165 29q76 0 162 -18v17q-8 3 -8 8q2 2 4 4.5t5 1.5q2 -1 4 -2.5t4 -3.5l5 -5q0 1 1 2q2 2 2 4t-5 7.5t-12 2.5t-12 1t-7 9t4.5 12t23.5 -1q8 -4 13.5 -10t7.5 -12q3 -7 3 -15v-180h-33v33q0 43 -45 72q-47 28 -139 28h-24.5t-21.5 -1
q-2 -14 6 -26q11 -17 22.5 -20t15.5 2q5 4 1.5 10.5t-4.5 14.5q-2 8 6.5 14t15.5 1t8 -15t-5 -21q-3 -5 -7.5 -10t-11 -7t-15.5 0.5t-22 13.5q-11 9 -14 21.5t-3 21.5q-14 -1 -26.5 -3t-23.5 -5q6 0 12.5 -1t12.5 -5q11 -5 5 -13q-3 -4 -8 -6q9 -5 14 -14q5 -8 6.5 -21.5
t-4.5 -34.5t-19 -30t-27.5 -10t-27.5 5t-19 15t-4 16t7 11.5t11 4t8 -6.5q5 -12 21 -17.5t30 9.5q14 16 7.5 38.5t-36.5 30.5q-15 4 -32 -5.5t-31 -23.5q-17 -16 -34 -37l-8 -14q-17 -42 -20.5 -90.5t-3.5 -96.5q0 -40 3.5 -79.5t12.5 -75.5t25 -68t42 -56q22 -21 42.5 -32
t48.5 -18q30 -7 63.5 -8t65.5 0q52 1 92.5 16.5t88.5 49.5q2 4 4.5 10.5t0.5 13.5q-1 4 -4 6t-6 3t-5 2t-2 5q2 8 8.5 9t11.5 -4t9 -12.5t-1 -14.5q5 3 9 7q9 7 12 18q2 6 -4 9t-7 8q0 6 9 5t12 -14q2 -14 -4.5 -18.5t-14.5 -12.5q4 2 9 4q10 4 22 4z" />
    <glyph glyph-name="D" unicode="D" horiz-adv-x="882" 
d="M832 368q4 2 8.5 3.5t9.5 4.5q0 -3 0.5 -5.5t0.5 -4.5q0 -74 -33 -143q-4 -7 -7 -14q-2 0 -2.5 0.5t-1.5 0.5q-5 0 -10.5 -5.5t-9.5 -11.5q-5 -7 -9 -16q-1 5 -1 9q-1 4 -1 8.5t-1 9.5q-2 10 -1.5 21t4.5 15q5 5 9 7t4 8q0 2 -3 3t-6 0q-4 -1 -9 -2q1 9 3 17l4 13.5
t6 9.5q3 3 4.5 10t1 13t-3.5 7t-10 -8q-7 -10 -10 -26.5t-5 -33.5q-2 -19 -1 -41q-18 29 -31.5 43t-22.5 19q-11 6 -19 4q20 -11 33 -28t20 -32q8 -18 11 -37q-3 10 -8 20q-5 8 -12 16.5t-18 14.5q-11 5 -19 2.5t-13.5 -8.5t-8 -13.5t-0.5 -13.5q2 -5 6 -7.5t8 -2.5t6.5 2.5
t1.5 6.5t-1 8.5t2 7t7 2.5t15 -6q10 -5 16 -17t9 -24q4 -14 4 -31v-19l-12 -11.5l-12 -11.5q-8 -7 -17 -13.5l-18 -13.5q4 5 7.5 8.5l6.5 6.5q7 7 3 11q-2 2 -5 3l4 16q2 7 3 13.5t2 9.5q1 5 -1 13t-9 15q-6 5 -9 0q-2 -3 -2 -6q-5 4 -12 6q-6 2 -15 0t-20 -10
q-12 -8 -14.5 -18t0.5 -19.5t10 -16.5t13 -9q7 -2 11 1t5.5 7t0 7.5t-5.5 3.5q-9 1 -16 10t-1 21q7 11 22 12t26 -16q5 -9 3.5 -21.5t-6.5 -24.5q-5 -14 -15 -29l-6 -7q-13 -8 -26.5 -15l-27.5 -14q-2 0 -3 0.5t-3 0.5q-20 5 -28 15t-6 15t10 3.5t16 0.5q8 1 10 10t-5 14
q-8 5 -18 3t-17 -10q-4 -5 -7 -10t-2 -11.5t7.5 -14t21.5 -16.5q8 -4 12 -5q-6 -2 -12 -4.5t-13 -4.5q-83 -30 -174 -30q-20 0 -43 2t-48 6q-26 3 -46.5 7t-37.5 9v-11h-157v27q-15 5 -15.5 13.5t1.5 16.5q2 10 9.5 15.5t15.5 3.5q8 -1 9.5 -9t-4.5 -12q-5 -5 -12 -6.5
t-7 -6.5q0 -7 12 -11h29q10 3 15 7v3v17q-11 0 -13 5.5t1 15.5q2 7 5.5 21.5l6.5 26.5v34q-11 0 -13 5.5t1 15.5l5.5 22l6.5 26v34q-11 1 -13 6t1 15l5.5 22l6.5 27v34q-11 0 -13 5t1 16q2 7 5.5 21.5l6.5 26.5v34q-11 0 -13 5.5t1 15.5q2 7 5.5 21.5l6.5 26.5v34
q-11 1 -13 6t1 15l5.5 22l6.5 27v3q0 23 -15 38q-8 7 -11.5 10.5t-17.5 3.5h-9v22q-5 0 -10 2t-13 8q-8 5 -8 13t3.5 14.5t9 10.5t8.5 2q11 -7 10 -12t-5.5 -9l-8.5 -7.5t2 -7.5q8 -4 12 -5h18q-2 5 3.5 7.5t10.5 0.5q4 -1 17.5 -3.5t21.5 -4.5h86v-19q65 31 177 31
q89 0 172 -27q81 -29 143 -80q63 -51 96 -122q30 -61 33 -131q-5 0 -14 -0.5t-18 0.5t-17.5 4t-13.5 9q-13 17 -9.5 30t15.5 14q11 2 18 -8t5 -18q-1 -4 2 -6.5t7 -2.5t7 2.5t3 8.5q0 7 -5 15.5t-12.5 14.5t-17 7.5t-18.5 -5.5q-10 -8 -13 -14.5t-3 -12.5q0 -7 3 -13
q-3 1 -6 1q-7 0 -1 -8q5 -8 11 -13t11 -7q7 -2 21 -4q7 -1 15 -2q0 -4 2 -6q3 -5 10 -1zM740 329q-7 6 -13.5 9.5t-11.5 5.5q-6 3 -11 4q7 1 13.5 0.5t11.5 0t10 3.5t10 11q8 14 0.5 22.5t-12.5 3.5q-2 -3 -2 -6.5t0.5 -7t0 -7t-3.5 -5.5q-6 -5 -13.5 -6t-13.5 -1
q-8 0 -15 1q11 3 14.5 14t1.5 19q-1 8 -8 13.5t-15 -1.5q-4 -3 -3 -6.5t3 -6.5t3.5 -7t-1.5 -9q-1 -6 -10 -11q-3 41 -12 80q12 1 23 1.5t19 1.5q8 0 10 2.5t3 5.5q0 4 -1 9q10 7 20 13l15.5 10t11.5 8q6 5 11.5 15t4.5 24q0 7 -3 8.5t-6 0.5q-4 -1 -8 -4q-1 9 -6 17
q-5 7 -16 14t-31 10t-32 -5.5t-18 -21t-6 -26.5t5 -22t12 -9t12 2t7 8t-2 9q-8 9 -6.5 25.5t19.5 22.5t34.5 -8.5t11.5 -42.5q-2 -12 -13 -22.5t-25.5 -18t-28 -12l-19.5 -6.5q-12 45 -33 85t-52 71q-25 25 -51 42.5t-55.5 28.5t-63.5 15.5t-74 4.5q-52 0 -97 -14
q17 -2 21 -12.5t4 -20.5q0 -12 -6.5 -20t-15.5 -10q-8 -1 -12.5 9t0.5 16t12 10.5t5 10.5q-2 5 -10 8t-22 0q-11 -5 -19 -10q-1 0 -3 -2q-8 -6 -13 -19v-3v-524v-5l6 -6q22 -18 43 -29q18 -10 38 -16.5t35 1.5q15 7 22.5 17.5t9 21.5t-2.5 21t-13 16t-17.5 6.5t-16 -3
t-12.5 -10t-6 -13.5t-7.5 -8t-12.5 2t-9.5 10t0.5 17t17 19t28.5 12t31 -3t26.5 -26t11.5 -34.5t-2.5 -23.5q-4 -11 -12 -18q5 -2 9 -5q8 -6 -2 -14q-4 -3 -7.5 -4.5t-7.5 -3.5q10 -2 20 -2h23q30 0 56.5 2.5t54.5 13.5q28 10 55 25t48 34q48 42 70.5 95t23.5 116
q12 -2 15 -12q2 -8 9 -7t6 9q-1 6 -12.5 12t-17.5 8v2q13 4 23 1.5t17 -4.5q8 -2 11 -10.5t1 -13.5t2.5 -10.5t11.5 -1.5q8 3 8.5 13.5t-10.5 20.5z" />
  </font>
</defs>
</svg>
